<svg class="main-svg" xmlns="http://www.w3.org/2000/svg" xmlns:xlink="http://www.w3.org/1999/xlink" width="1050" height="600" style="" viewBox="0 0 1050 600"><rect x="0" y="0" width="1050" height="600" style="fill: rgb(255, 255, 255); fill-opacity: 1;"/><defs id="defs-ddf017"><g class="clips"><clipPath id="clipddf017xyplot" class="plotclip"><rect width="651" height="420"/></clipPath><clipPath class="axesclip" id="clipddf017x"><rect x="89" y="0" width="651" height="600"/></clipPath><clipPath class="axesclip" id="clipddf017y"><rect x="0" y="100" width="1050" height="420"/></clipPath><clipPath class="axesclip" id="clipddf017xy"><rect x="89" y="100" width="651" height="420"/></clipPath></g><g class="gradients"/><g class="patterns"/></defs><g class="bglayer"/><g class="layer-below"><g class="imagelayer"/><g class="shapelayer"/></g><g class="cartesianlayer"><g class="subplot xy"><g class="layer-subplot"><g class="shapelayer"/><g class="imagelayer"/></g><g class="minor-gridlayer"><g class="x"/><g class="y"/></g><g class="gridlayer"><g class="x"><path class="xgrid crisp" transform="translate(125.3,0)" d="M0,100v420" style="stroke: rgb(235, 240, 248); stroke-opacity: 1; stroke-width: 1px;"/><path class="xgrid crisp" transform="translate(183.14,0)" d="M0,100v420" style="stroke: rgb(235, 240, 248); stroke-opacity: 1; stroke-width: 1px;"/><path class="xgrid crisp" transform="translate(240.98,0)" d="M0,100v420" style="stroke: rgb(235, 240, 248); stroke-opacity: 1; stroke-width: 1px;"/><path class="xgrid crisp" transform="translate(298.82,0)" d="M0,100v420" style="stroke: rgb(235, 240, 248); stroke-opacity: 1; stroke-width: 1px;"/><path class="xgrid crisp" transform="translate(356.66,0)" d="M0,100v420" style="stroke: rgb(235, 240, 248); stroke-opacity: 1; stroke-width: 1px;"/><path class="xgrid crisp" transform="translate(414.5,0)" d="M0,100v420" style="stroke: rgb(235, 240, 248); stroke-opacity: 1; stroke-width: 1px;"/><path class="xgrid crisp" transform="translate(472.34,0)" d="M0,100v420" style="stroke: rgb(235, 240, 248); stroke-opacity: 1; stroke-width: 1px;"/><path class="xgrid crisp" transform="translate(530.1800000000001,0)" d="M0,100v420" style="stroke: rgb(235, 240, 248); stroke-opacity: 1; stroke-width: 1px;"/><path class="xgrid crisp" transform="translate(588.02,0)" d="M0,100v420" style="stroke: rgb(235, 240, 248); stroke-opacity: 1; stroke-width: 1px;"/><path class="xgrid crisp" transform="translate(645.86,0)" d="M0,100v420" style="stroke: rgb(235, 240, 248); stroke-opacity: 1; stroke-width: 1px;"/><path class="xgrid crisp" transform="translate(703.7,0)" d="M0,100v420" style="stroke: rgb(235, 240, 248); stroke-opacity: 1; stroke-width: 1px;"/></g><g class="y"><path class="ygrid crisp" transform="translate(0,442.82)" d="M89,0h651" style="stroke: rgb(235, 240, 248); stroke-opacity: 1; stroke-width: 1px;"/><path class="ygrid crisp" transform="translate(0,388.81)" d="M89,0h651" style="stroke: rgb(235, 240, 248); stroke-opacity: 1; stroke-width: 1px;"/><path class="ygrid crisp" transform="translate(0,334.8)" d="M89,0h651" style="stroke: rgb(235, 240, 248); stroke-opacity: 1; stroke-width: 1px;"/><path class="ygrid crisp" transform="translate(0,280.78999999999996)" d="M89,0h651" style="stroke: rgb(235, 240, 248); stroke-opacity: 1; stroke-width: 1px;"/><path class="ygrid crisp" transform="translate(0,226.78)" d="M89,0h651" style="stroke: rgb(235, 240, 248); stroke-opacity: 1; stroke-width: 1px;"/><path class="ygrid crisp" transform="translate(0,172.76999999999998)" d="M89,0h651" style="stroke: rgb(235, 240, 248); stroke-opacity: 1; stroke-width: 1px;"/><path class="ygrid crisp" transform="translate(0,118.76)" d="M89,0h651" style="stroke: rgb(235, 240, 248); stroke-opacity: 1; stroke-width: 1px;"/></g></g><g class="zerolinelayer"><path class="yzl zl crisp" transform="translate(0,496.83)" d="M89,0h651" style="stroke: rgb(235, 240, 248); stroke-opacity: 1; stroke-width: 2px;"/></g><path class="xlines-below"/><path class="ylines-below"/><g class="overlines-below"/><g class="xaxislayer-below"/><g class="yaxislayer-below"/><g class="overaxes-below"/><g class="plot" transform="translate(89,100)" clip-path="url(#clipddf017xyplot)"><g class="scatterlayer mlayer"><g class="trace scatter tracef121b7" style="stroke-miterlimit: 2; opacity: 1;"><g class="fills"/><g class="errorbars"/><g class="lines"><path class="js-line" d="M36.3,387.87L94.14,377.96L151.98,362.65L209.82,331.6L267.66,261.22L325.5,213.59L383.34,179.6L441.18,121.55L499.02,86.58L556.86,53.97L614.7,24.75" style="vector-effect: none; fill: none; stroke: rgb(135, 206, 235); stroke-opacity: 1; stroke-width: 2px; opacity: 1;"/></g><g class="points"><path class="point" transform="translate(36.3,387.87)" d="M3,0A3,3 0 1,1 0,-3A3,3 0 0,1 3,0Z" style="opacity: 1; stroke-width: 0px; fill: rgb(135, 206, 235); fill-opacity: 1;"/><path class="point" transform="translate(94.14,377.96)" d="M3,0A3,3 0 1,1 0,-3A3,3 0 0,1 3,0Z" style="opacity: 1; stroke-width: 0px; fill: rgb(135, 206, 235); fill-opacity: 1;"/><path class="point" transform="translate(151.98,362.65)" d="M3,0A3,3 0 1,1 0,-3A3,3 0 0,1 3,0Z" style="opacity: 1; stroke-width: 0px; fill: rgb(135, 206, 235); fill-opacity: 1;"/><path class="point" transform="translate(209.82,331.6)" d="M3,0A3,3 0 1,1 0,-3A3,3 0 0,1 3,0Z" style="opacity: 1; stroke-width: 0px; fill: rgb(135, 206, 235); fill-opacity: 1;"/><path class="point" transform="translate(267.66,261.22)" d="M3,0A3,3 0 1,1 0,-3A3,3 0 0,1 3,0Z" style="opacity: 1; stroke-width: 0px; fill: rgb(135, 206, 235); fill-opacity: 1;"/><path class="point" transform="translate(325.5,213.59)" d="M3,0A3,3 0 1,1 0,-3A3,3 0 0,1 3,0Z" style="opacity: 1; stroke-width: 0px; fill: rgb(135, 206, 235); fill-opacity: 1;"/><path class="point" transform="translate(383.34,179.6)" d="M3,0A3,3 0 1,1 0,-3A3,3 0 0,1 3,0Z" style="opacity: 1; stroke-width: 0px; fill: rgb(135, 206, 235); fill-opacity: 1;"/><path class="point" transform="translate(441.18,121.55)" d="M3,0A3,3 0 1,1 0,-3A3,3 0 0,1 3,0Z" style="opacity: 1; stroke-width: 0px; fill: rgb(135, 206, 235); fill-opacity: 1;"/><path class="point" transform="translate(499.02,86.58)" d="M3,0A3,3 0 1,1 0,-3A3,3 0 0,1 3,0Z" style="opacity: 1; stroke-width: 0px; fill: rgb(135, 206, 235); fill-opacity: 1;"/><path class="point" transform="translate(556.86,53.97)" d="M3,0A3,3 0 1,1 0,-3A3,3 0 0,1 3,0Z" style="opacity: 1; stroke-width: 0px; fill: rgb(135, 206, 235); fill-opacity: 1;"/><path class="point" transform="translate(614.7,24.75)" d="M3,0A3,3 0 1,1 0,-3A3,3 0 0,1 3,0Z" style="opacity: 1; stroke-width: 0px; fill: rgb(135, 206, 235); fill-opacity: 1;"/></g><g class="text"/></g><g class="trace scatter traceedbac7" style="stroke-miterlimit: 2; opacity: 1;"><g class="fills"/><g class="errorbars"/><g class="lines"><path class="js-line" d="M36.3,387.87L94.14,377.96L151.98,363.17L209.82,331.6L267.66,260.27L325.5,212.24L383.34,179.17L441.18,123.1L499.02,83.73L614.7,26.28" style="vector-effect: none; fill: none; stroke: rgb(255, 99, 71); stroke-opacity: 1; stroke-width: 2px; opacity: 1;"/></g><g class="points"><path class="point" transform="translate(36.3,387.87)" d="M3,3H-3V-3H3Z" style="opacity: 1; stroke-width: 0px; fill: rgb(255, 99, 71); fill-opacity: 1;"/><path class="point" transform="translate(94.14,377.96)" d="M3,3H-3V-3H3Z" style="opacity: 1; stroke-width: 0px; fill: rgb(255, 99, 71); fill-opacity: 1;"/><path class="point" transform="translate(151.98,363.17)" d="M3,3H-3V-3H3Z" style="opacity: 1; stroke-width: 0px; fill: rgb(255, 99, 71); fill-opacity: 1;"/><path class="point" transform="translate(209.82,331.6)" d="M3,3H-3V-3H3Z" style="opacity: 1; stroke-width: 0px; fill: rgb(255, 99, 71); fill-opacity: 1;"/><path class="point" transform="translate(267.66,260.27)" d="M3,3H-3V-3H3Z" style="opacity: 1; stroke-width: 0px; fill: rgb(255, 99, 71); fill-opacity: 1;"/><path class="point" transform="translate(325.5,212.24)" d="M3,3H-3V-3H3Z" style="opacity: 1; stroke-width: 0px; fill: rgb(255, 99, 71); fill-opacity: 1;"/><path class="point" transform="translate(383.34,179.17)" d="M3,3H-3V-3H3Z" style="opacity: 1; stroke-width: 0px; fill: rgb(255, 99, 71); fill-opacity: 1;"/><path class="point" transform="translate(441.18,123.1)" d="M3,3H-3V-3H3Z" style="opacity: 1; stroke-width: 0px; fill: rgb(255, 99, 71); fill-opacity: 1;"/><path class="point" transform="translate(499.02,83.73)" d="M3,3H-3V-3H3Z" style="opacity: 1; stroke-width: 0px; fill: rgb(255, 99, 71); fill-opacity: 1;"/><path class="point" transform="translate(556.86,54.63)" d="M3,3H-3V-3H3Z" style="opacity: 1; stroke-width: 0px; fill: rgb(255, 99, 71); fill-opacity: 1;"/><path class="point" transform="translate(614.7,26.28)" d="M3,3H-3V-3H3Z" style="opacity: 1; stroke-width: 0px; fill: rgb(255, 99, 71); fill-opacity: 1;"/></g><g class="text"/></g><g class="trace scatter tracef53411" style="stroke-miterlimit: 2; opacity: 1;"><g class="fills"/><g class="errorbars"/><g class="lines"><path class="js-line" d="M36.3,394.2L94.14,391.07L151.98,378.19L209.82,360.93L267.66,299.02L325.5,264.22L383.34,220.49L441.18,159.93L499.02,114.33L556.86,77.31L614.7,44.61" style="vector-effect: none; fill: none; stroke: rgb(46, 139, 87); stroke-opacity: 1; stroke-width: 2px; opacity: 1;"/></g><g class="points"><path class="point" transform="translate(36.3,394.2)" d="M3.6,1.2H1.2V3.6H-1.2V1.2H-3.6V-1.2H-1.2V-3.6H1.2V-1.2H3.6Z" style="opacity: 1; stroke-width: 0px; fill: rgb(46, 139, 87); fill-opacity: 1;"/><path class="point" transform="translate(94.14,391.07)" d="M3.6,1.2H1.2V3.6H-1.2V1.2H-3.6V-1.2H-1.2V-3.6H1.2V-1.2H3.6Z" style="opacity: 1; stroke-width: 0px; fill: rgb(46, 139, 87); fill-opacity: 1;"/><path class="point" transform="translate(151.98,378.19)" d="M3.6,1.2H1.2V3.6H-1.2V1.2H-3.6V-1.2H-1.2V-3.6H1.2V-1.2H3.6Z" style="opacity: 1; stroke-width: 0px; fill: rgb(46, 139, 87); fill-opacity: 1;"/><path class="point" transform="translate(209.82,360.93)" d="M3.6,1.2H1.2V3.6H-1.2V1.2H-3.6V-1.2H-1.2V-3.6H1.2V-1.2H3.6Z" style="opacity: 1; stroke-width: 0px; fill: rgb(46, 139, 87); fill-opacity: 1;"/><path class="point" transform="translate(267.66,299.02)" d="M3.6,1.2H1.2V3.6H-1.2V1.2H-3.6V-1.2H-1.2V-3.6H1.2V-1.2H3.6Z" style="opacity: 1; stroke-width: 0px; fill: rgb(46, 139, 87); fill-opacity: 1;"/><path class="point" transform="translate(325.5,264.22)" d="M3.6,1.2H1.2V3.6H-1.2V1.2H-3.6V-1.2H-1.2V-3.6H1.2V-1.2H3.6Z" style="opacity: 1; stroke-width: 0px; fill: rgb(46, 139, 87); fill-opacity: 1;"/><path class="point" transform="translate(383.34,220.49)" d="M3.6,1.2H1.2V3.6H-1.2V1.2H-3.6V-1.2H-1.2V-3.6H1.2V-1.2H3.6Z" style="opacity: 1; stroke-width: 0px; fill: rgb(46, 139, 87); fill-opacity: 1;"/><path class="point" transform="translate(441.18,159.93)" d="M3.6,1.2H1.2V3.6H-1.2V1.2H-3.6V-1.2H-1.2V-3.6H1.2V-1.2H3.6Z" style="opacity: 1; stroke-width: 0px; fill: rgb(46, 139, 87); fill-opacity: 1;"/><path class="point" transform="translate(499.02,114.33)" d="M3.6,1.2H1.2V3.6H-1.2V1.2H-3.6V-1.2H-1.2V-3.6H1.2V-1.2H3.6Z" style="opacity: 1; stroke-width: 0px; fill: rgb(46, 139, 87); fill-opacity: 1;"/><path class="point" transform="translate(556.86,77.31)" d="M3.6,1.2H1.2V3.6H-1.2V1.2H-3.6V-1.2H-1.2V-3.6H1.2V-1.2H3.6Z" style="opacity: 1; stroke-width: 0px; fill: rgb(46, 139, 87); fill-opacity: 1;"/><path class="point" transform="translate(614.7,44.61)" d="M3.6,1.2H1.2V3.6H-1.2V1.2H-3.6V-1.2H-1.2V-3.6H1.2V-1.2H3.6Z" style="opacity: 1; stroke-width: 0px; fill: rgb(46, 139, 87); fill-opacity: 1;"/></g><g class="text"/></g><g class="trace scatter trace13a3e5" style="stroke-miterlimit: 2; opacity: 1;"><g class="fills"/><g class="errorbars"/><g class="lines"><path class="js-line" d="M36.3,388.92L94.14,376.92L151.98,356.44L209.82,320.98L267.66,260.74L325.5,234.65L383.34,205.16L441.18,159.54L499.02,129.27L556.86,105.91L614.7,80.04" style="vector-effect: none; fill: none; stroke: rgb(255, 165, 0); stroke-opacity: 1; stroke-width: 2px; opacity: 1;"/></g><g class="points"><path class="point" transform="translate(36.3,388.92)" d="M3.9,0L0,3.9L-3.9,0L0,-3.9Z" style="opacity: 1; stroke-width: 0px; fill: rgb(255, 165, 0); fill-opacity: 1;"/><path class="point" transform="translate(94.14,376.92)" d="M3.9,0L0,3.9L-3.9,0L0,-3.9Z" style="opacity: 1; stroke-width: 0px; fill: rgb(255, 165, 0); fill-opacity: 1;"/><path class="point" transform="translate(151.98,356.44)" d="M3.9,0L0,3.9L-3.9,0L0,-3.9Z" style="opacity: 1; stroke-width: 0px; fill: rgb(255, 165, 0); fill-opacity: 1;"/><path class="point" transform="translate(209.82,320.98)" d="M3.9,0L0,3.9L-3.9,0L0,-3.9Z" style="opacity: 1; stroke-width: 0px; fill: rgb(255, 165, 0); fill-opacity: 1;"/><path class="point" transform="translate(267.66,260.74)" d="M3.9,0L0,3.9L-3.9,0L0,-3.9Z" style="opacity: 1; stroke-width: 0px; fill: rgb(255, 165, 0); fill-opacity: 1;"/><path class="point" transform="translate(325.5,234.65)" d="M3.9,0L0,3.9L-3.9,0L0,-3.9Z" style="opacity: 1; stroke-width: 0px; fill: rgb(255, 165, 0); fill-opacity: 1;"/><path class="point" transform="translate(383.34,205.16)" d="M3.9,0L0,3.9L-3.9,0L0,-3.9Z" style="opacity: 1; stroke-width: 0px; fill: rgb(255, 165, 0); fill-opacity: 1;"/><path class="point" transform="translate(441.18,159.54)" d="M3.9,0L0,3.9L-3.9,0L0,-3.9Z" style="opacity: 1; stroke-width: 0px; fill: rgb(255, 165, 0); fill-opacity: 1;"/><path class="point" transform="translate(499.02,129.27)" d="M3.9,0L0,3.9L-3.9,0L0,-3.9Z" style="opacity: 1; stroke-width: 0px; fill: rgb(255, 165, 0); fill-opacity: 1;"/><path class="point" transform="translate(556.86,105.91)" d="M3.9,0L0,3.9L-3.9,0L0,-3.9Z" style="opacity: 1; stroke-width: 0px; fill: rgb(255, 165, 0); fill-opacity: 1;"/><path class="point" transform="translate(614.7,80.04)" d="M3.9,0L0,3.9L-3.9,0L0,-3.9Z" style="opacity: 1; stroke-width: 0px; fill: rgb(255, 165, 0); fill-opacity: 1;"/></g><g class="text"/></g><g class="trace scatter trace747ee2" style="stroke-miterlimit: 2; opacity: 1;"><g class="fills"/><g class="errorbars"/><g class="lines"><path class="js-line" d="M36.3,392.09L94.14,387.92L151.98,379.74L209.82,361.43L267.66,306.11L325.5,269.59L383.34,249.03L441.18,205.68L499.02,176.59L556.86,145.68L614.7,132.89" style="vector-effect: none; fill: none; stroke: rgb(165, 42, 42); stroke-opacity: 1; stroke-width: 2px; opacity: 1;"/></g><g class="points"><path class="point" transform="translate(36.3,392.09)" d="M0,1.7l1.7,1.7l1.7,-1.7l-1.7,-1.7l1.7,-1.7l-1.7,-1.7l-1.7,1.7l-1.7,-1.7l-1.7,1.7l1.7,1.7l-1.7,1.7l1.7,1.7Z" style="opacity: 1; stroke-width: 0px; fill: rgb(165, 42, 42); fill-opacity: 1;"/><path class="point" transform="translate(94.14,387.92)" d="M0,1.7l1.7,1.7l1.7,-1.7l-1.7,-1.7l1.7,-1.7l-1.7,-1.7l-1.7,1.7l-1.7,-1.7l-1.7,1.7l1.7,1.7l-1.7,1.7l1.7,1.7Z" style="opacity: 1; stroke-width: 0px; fill: rgb(165, 42, 42); fill-opacity: 1;"/><path class="point" transform="translate(151.98,379.74)" d="M0,1.7l1.7,1.7l1.7,-1.7l-1.7,-1.7l1.7,-1.7l-1.7,-1.7l-1.7,1.7l-1.7,-1.7l-1.7,1.7l1.7,1.7l-1.7,1.7l1.7,1.7Z" style="opacity: 1; stroke-width: 0px; fill: rgb(165, 42, 42); fill-opacity: 1;"/><path class="point" transform="translate(209.82,361.43)" d="M0,1.7l1.7,1.7l1.7,-1.7l-1.7,-1.7l1.7,-1.7l-1.7,-1.7l-1.7,1.7l-1.7,-1.7l-1.7,1.7l1.7,1.7l-1.7,1.7l1.7,1.7Z" style="opacity: 1; stroke-width: 0px; fill: rgb(165, 42, 42); fill-opacity: 1;"/><path class="point" transform="translate(267.66,306.11)" d="M0,1.7l1.7,1.7l1.7,-1.7l-1.7,-1.7l1.7,-1.7l-1.7,-1.7l-1.7,1.7l-1.7,-1.7l-1.7,1.7l1.7,1.7l-1.7,1.7l1.7,1.7Z" style="opacity: 1; stroke-width: 0px; fill: rgb(165, 42, 42); fill-opacity: 1;"/><path class="point" transform="translate(325.5,269.59)" d="M0,1.7l1.7,1.7l1.7,-1.7l-1.7,-1.7l1.7,-1.7l-1.7,-1.7l-1.7,1.7l-1.7,-1.7l-1.7,1.7l1.7,1.7l-1.7,1.7l1.7,1.7Z" style="opacity: 1; stroke-width: 0px; fill: rgb(165, 42, 42); fill-opacity: 1;"/><path class="point" transform="translate(383.34,249.03)" d="M0,1.7l1.7,1.7l1.7,-1.7l-1.7,-1.7l1.7,-1.7l-1.7,-1.7l-1.7,1.7l-1.7,-1.7l-1.7,1.7l1.7,1.7l-1.7,1.7l1.7,1.7Z" style="opacity: 1; stroke-width: 0px; fill: rgb(165, 42, 42); fill-opacity: 1;"/><path class="point" transform="translate(441.18,205.68)" d="M0,1.7l1.7,1.7l1.7,-1.7l-1.7,-1.7l1.7,-1.7l-1.7,-1.7l-1.7,1.7l-1.7,-1.7l-1.7,1.7l1.7,1.7l-1.7,1.7l1.7,1.7Z" style="opacity: 1; stroke-width: 0px; fill: rgb(165, 42, 42); fill-opacity: 1;"/><path class="point" transform="translate(499.02,176.59)" d="M0,1.7l1.7,1.7l1.7,-1.7l-1.7,-1.7l1.7,-1.7l-1.7,-1.7l-1.7,1.7l-1.7,-1.7l-1.7,1.7l1.7,1.7l-1.7,1.7l1.7,1.7Z" style="opacity: 1; stroke-width: 0px; fill: rgb(165, 42, 42); fill-opacity: 1;"/><path class="point" transform="translate(556.86,145.68)" d="M0,1.7l1.7,1.7l1.7,-1.7l-1.7,-1.7l1.7,-1.7l-1.7,-1.7l-1.7,1.7l-1.7,-1.7l-1.7,1.7l1.7,1.7l-1.7,1.7l1.7,1.7Z" style="opacity: 1; stroke-width: 0px; fill: rgb(165, 42, 42); fill-opacity: 1;"/><path class="point" transform="translate(614.7,132.89)" d="M0,1.7l1.7,1.7l1.7,-1.7l-1.7,-1.7l1.7,-1.7l-1.7,-1.7l-1.7,1.7l-1.7,-1.7l-1.7,1.7l1.7,1.7l-1.7,1.7l1.7,1.7Z" style="opacity: 1; stroke-width: 0px; fill: rgb(165, 42, 42); fill-opacity: 1;"/></g><g class="text"/></g><g class="trace scatter trace51f204" style="stroke-miterlimit: 2; opacity: 1;"><g class="fills"/><g class="errorbars"/><g class="lines"><path class="js-line" d="M36.3,390.5L94.14,384.78L151.98,377.15L209.82,355.36L267.66,298.55L383.34,211.97L441.18,160.32L499.02,116.11L556.86,88.81L614.7,81.57" style="vector-effect: none; fill: none; stroke: rgb(128, 0, 128); stroke-opacity: 1; stroke-width: 2px; opacity: 1;"/></g><g class="points"><path class="point" transform="translate(36.3,390.5)" d="M-3.46,1.5H3.46L0,-3Z" style="opacity: 1; stroke-width: 0px; fill: rgb(128, 0, 128); fill-opacity: 1;"/><path class="point" transform="translate(94.14,384.78)" d="M-3.46,1.5H3.46L0,-3Z" style="opacity: 1; stroke-width: 0px; fill: rgb(128, 0, 128); fill-opacity: 1;"/><path class="point" transform="translate(151.98,377.15)" d="M-3.46,1.5H3.46L0,-3Z" style="opacity: 1; stroke-width: 0px; fill: rgb(128, 0, 128); fill-opacity: 1;"/><path class="point" transform="translate(209.82,355.36)" d="M-3.46,1.5H3.46L0,-3Z" style="opacity: 1; stroke-width: 0px; fill: rgb(128, 0, 128); fill-opacity: 1;"/><path class="point" transform="translate(267.66,298.55)" d="M-3.46,1.5H3.46L0,-3Z" style="opacity: 1; stroke-width: 0px; fill: rgb(128, 0, 128); fill-opacity: 1;"/><path class="point" transform="translate(325.5,254.81)" d="M-3.46,1.5H3.46L0,-3Z" style="opacity: 1; stroke-width: 0px; fill: rgb(128, 0, 128); fill-opacity: 1;"/><path class="point" transform="translate(383.34,211.97)" d="M-3.46,1.5H3.46L0,-3Z" style="opacity: 1; stroke-width: 0px; fill: rgb(128, 0, 128); fill-opacity: 1;"/><path class="point" transform="translate(441.18,160.32)" d="M-3.46,1.5H3.46L0,-3Z" style="opacity: 1; stroke-width: 0px; fill: rgb(128, 0, 128); fill-opacity: 1;"/><path class="point" transform="translate(499.02,116.11)" d="M-3.46,1.5H3.46L0,-3Z" style="opacity: 1; stroke-width: 0px; fill: rgb(128, 0, 128); fill-opacity: 1;"/><path class="point" transform="translate(556.86,88.81)" d="M-3.46,1.5H3.46L0,-3Z" style="opacity: 1; stroke-width: 0px; fill: rgb(128, 0, 128); fill-opacity: 1;"/><path class="point" transform="translate(614.7,81.57)" d="M-3.46,1.5H3.46L0,-3Z" style="opacity: 1; stroke-width: 0px; fill: rgb(128, 0, 128); fill-opacity: 1;"/></g><g class="text"/></g><g class="trace scatter tracea41017" style="stroke-miterlimit: 2; opacity: 1;"><g class="fills"/><g class="errorbars"/><g class="lines"><path class="js-line" d="M36.3,389.45L151.98,370.94L209.82,351.82L267.66,297.6L325.5,264.66L383.34,232.84L441.18,190.18L499.02,156.67L556.86,131.22L614.7,111.51" style="vector-effect: none; fill: none; stroke: rgb(0, 0, 139); stroke-opacity: 1; stroke-width: 2px; opacity: 1;"/></g><g class="points"><path class="point" transform="translate(36.3,389.45)" d="M-3.46,-1.5H3.46L0,3Z" style="opacity: 1; stroke-width: 0px; fill: rgb(0, 0, 139); fill-opacity: 1;"/><path class="point" transform="translate(94.14,380.06)" d="M-3.46,-1.5H3.46L0,3Z" style="opacity: 1; stroke-width: 0px; fill: rgb(0, 0, 139); fill-opacity: 1;"/><path class="point" transform="translate(151.98,370.94)" d="M-3.46,-1.5H3.46L0,3Z" style="opacity: 1; stroke-width: 0px; fill: rgb(0, 0, 139); fill-opacity: 1;"/><path class="point" transform="translate(209.82,351.82)" d="M-3.46,-1.5H3.46L0,3Z" style="opacity: 1; stroke-width: 0px; fill: rgb(0, 0, 139); fill-opacity: 1;"/><path class="point" transform="translate(267.66,297.6)" d="M-3.46,-1.5H3.46L0,3Z" style="opacity: 1; stroke-width: 0px; fill: rgb(0, 0, 139); fill-opacity: 1;"/><path class="point" transform="translate(325.5,264.66)" d="M-3.46,-1.5H3.46L0,3Z" style="opacity: 1; stroke-width: 0px; fill: rgb(0, 0, 139); fill-opacity: 1;"/><path class="point" transform="translate(383.34,232.84)" d="M-3.46,-1.5H3.46L0,3Z" style="opacity: 1; stroke-width: 0px; fill: rgb(0, 0, 139); fill-opacity: 1;"/><path class="point" transform="translate(441.18,190.18)" d="M-3.46,-1.5H3.46L0,3Z" style="opacity: 1; stroke-width: 0px; fill: rgb(0, 0, 139); fill-opacity: 1;"/><path class="point" transform="translate(499.02,156.67)" d="M-3.46,-1.5H3.46L0,3Z" style="opacity: 1; stroke-width: 0px; fill: rgb(0, 0, 139); fill-opacity: 1;"/><path class="point" transform="translate(556.86,131.22)" d="M-3.46,-1.5H3.46L0,3Z" style="opacity: 1; stroke-width: 0px; fill: rgb(0, 0, 139); fill-opacity: 1;"/><path class="point" transform="translate(614.7,111.51)" d="M-3.46,-1.5H3.46L0,3Z" style="opacity: 1; stroke-width: 0px; fill: rgb(0, 0, 139); fill-opacity: 1;"/></g><g class="text"/></g><g class="trace scatter trace4745be" style="stroke-miterlimit: 2; opacity: 1;"><g class="fills"/><g class="errorbars"/><g class="lines"><path class="js-line" d="M36.3,395.25L94.14,393.16L151.98,390.1L209.82,379.64L267.66,315.56L325.5,270.04L383.34,223.05L441.18,159.54L499.02,108.99L556.86,73.04L614.7,39.41" style="vector-effect: none; fill: none; stroke: rgb(218, 165, 32); stroke-opacity: 1; stroke-width: 2px; opacity: 1;"/></g><g class="points"><path class="point" transform="translate(36.3,395.25)" d="M0.94,-1.3H3.99L1.52,0.5L2.47,3.4L0,1.6L-2.47,3.4L-1.52,0.5L-3.99,-1.3H-0.94L0,-4.2Z" style="opacity: 1; stroke-width: 0px; fill: rgb(218, 165, 32); fill-opacity: 1;"/><path class="point" transform="translate(94.14,393.16)" d="M0.94,-1.3H3.99L1.52,0.5L2.47,3.4L0,1.6L-2.47,3.4L-1.52,0.5L-3.99,-1.3H-0.94L0,-4.2Z" style="opacity: 1; stroke-width: 0px; fill: rgb(218, 165, 32); fill-opacity: 1;"/><path class="point" transform="translate(151.98,390.1)" d="M0.94,-1.3H3.99L1.52,0.5L2.47,3.4L0,1.6L-2.47,3.4L-1.52,0.5L-3.99,-1.3H-0.94L0,-4.2Z" style="opacity: 1; stroke-width: 0px; fill: rgb(218, 165, 32); fill-opacity: 1;"/><path class="point" transform="translate(209.82,379.64)" d="M0.94,-1.3H3.99L1.52,0.5L2.47,3.4L0,1.6L-2.47,3.4L-1.52,0.5L-3.99,-1.3H-0.94L0,-4.2Z" style="opacity: 1; stroke-width: 0px; fill: rgb(218, 165, 32); fill-opacity: 1;"/><path class="point" transform="translate(267.66,315.56)" d="M0.94,-1.3H3.99L1.52,0.5L2.47,3.4L0,1.6L-2.47,3.4L-1.52,0.5L-3.99,-1.3H-0.94L0,-4.2Z" style="opacity: 1; stroke-width: 0px; fill: rgb(218, 165, 32); fill-opacity: 1;"/><path class="point" transform="translate(325.5,270.04)" d="M0.94,-1.3H3.99L1.52,0.5L2.47,3.4L0,1.6L-2.47,3.4L-1.52,0.5L-3.99,-1.3H-0.94L0,-4.2Z" style="opacity: 1; stroke-width: 0px; fill: rgb(218, 165, 32); fill-opacity: 1;"/><path class="point" transform="translate(383.34,223.05)" d="M0.94,-1.3H3.99L1.52,0.5L2.47,3.4L0,1.6L-2.47,3.4L-1.52,0.5L-3.99,-1.3H-0.94L0,-4.2Z" style="opacity: 1; stroke-width: 0px; fill: rgb(218, 165, 32); fill-opacity: 1;"/><path class="point" transform="translate(441.18,159.54)" d="M0.94,-1.3H3.99L1.52,0.5L2.47,3.4L0,1.6L-2.47,3.4L-1.52,0.5L-3.99,-1.3H-0.94L0,-4.2Z" style="opacity: 1; stroke-width: 0px; fill: rgb(218, 165, 32); fill-opacity: 1;"/><path class="point" transform="translate(499.02,108.99)" d="M0.94,-1.3H3.99L1.52,0.5L2.47,3.4L0,1.6L-2.47,3.4L-1.52,0.5L-3.99,-1.3H-0.94L0,-4.2Z" style="opacity: 1; stroke-width: 0px; fill: rgb(218, 165, 32); fill-opacity: 1;"/><path class="point" transform="translate(556.86,73.04)" d="M0.94,-1.3H3.99L1.52,0.5L2.47,3.4L0,1.6L-2.47,3.4L-1.52,0.5L-3.99,-1.3H-0.94L0,-4.2Z" style="opacity: 1; stroke-width: 0px; fill: rgb(218, 165, 32); fill-opacity: 1;"/><path class="point" transform="translate(614.7,39.41)" d="M0.94,-1.3H3.99L1.52,0.5L2.47,3.4L0,1.6L-2.47,3.4L-1.52,0.5L-3.99,-1.3H-0.94L0,-4.2Z" style="opacity: 1; stroke-width: 0px; fill: rgb(218, 165, 32); fill-opacity: 1;"/></g><g class="text"/></g><g class="trace scatter trace497ed9" style="stroke-miterlimit: 2; opacity: 1;"><g class="fills"/><g class="errorbars"/><g class="lines"><path class="js-line" d="M36.3,388.39L94.14,379.54L151.98,366.28L209.82,338.68L267.66,275.86L325.5,231.06L383.34,200.9L441.18,150.63L499.02,115.4L556.86,89.14L614.7,65.69" style="vector-effect: none; fill: none; stroke: rgb(255, 0, 255); stroke-opacity: 1; stroke-width: 2px; opacity: 1;"/></g><g class="points"><path class="point" transform="translate(36.3,388.39)" d="M-4.2,0A 5.7,5.7 0 0 1 0,4.2A 5.7,5.7 0 0 1 4.2,0A 5.7,5.7 0 0 1 0,-4.2A 5.7,5.7 0 0 1 -4.2,0Z" style="opacity: 1; stroke-width: 0px; fill: rgb(255, 0, 255); fill-opacity: 1;"/><path class="point" transform="translate(94.14,379.54)" d="M-4.2,0A 5.7,5.7 0 0 1 0,4.2A 5.7,5.7 0 0 1 4.2,0A 5.7,5.7 0 0 1 0,-4.2A 5.7,5.7 0 0 1 -4.2,0Z" style="opacity: 1; stroke-width: 0px; fill: rgb(255, 0, 255); fill-opacity: 1;"/><path class="point" transform="translate(151.98,366.28)" d="M-4.2,0A 5.7,5.7 0 0 1 0,4.2A 5.7,5.7 0 0 1 4.2,0A 5.7,5.7 0 0 1 0,-4.2A 5.7,5.7 0 0 1 -4.2,0Z" style="opacity: 1; stroke-width: 0px; fill: rgb(255, 0, 255); fill-opacity: 1;"/><path class="point" transform="translate(209.82,338.68)" d="M-4.2,0A 5.7,5.7 0 0 1 0,4.2A 5.7,5.7 0 0 1 4.2,0A 5.7,5.7 0 0 1 0,-4.2A 5.7,5.7 0 0 1 -4.2,0Z" style="opacity: 1; stroke-width: 0px; fill: rgb(255, 0, 255); fill-opacity: 1;"/><path class="point" transform="translate(267.66,275.86)" d="M-4.2,0A 5.7,5.7 0 0 1 0,4.2A 5.7,5.7 0 0 1 4.2,0A 5.7,5.7 0 0 1 0,-4.2A 5.7,5.7 0 0 1 -4.2,0Z" style="opacity: 1; stroke-width: 0px; fill: rgb(255, 0, 255); fill-opacity: 1;"/><path class="point" transform="translate(325.5,231.06)" d="M-4.2,0A 5.7,5.7 0 0 1 0,4.2A 5.7,5.7 0 0 1 4.2,0A 5.7,5.7 0 0 1 0,-4.2A 5.7,5.7 0 0 1 -4.2,0Z" style="opacity: 1; stroke-width: 0px; fill: rgb(255, 0, 255); fill-opacity: 1;"/><path class="point" transform="translate(383.34,200.9)" d="M-4.2,0A 5.7,5.7 0 0 1 0,4.2A 5.7,5.7 0 0 1 4.2,0A 5.7,5.7 0 0 1 0,-4.2A 5.7,5.7 0 0 1 -4.2,0Z" style="opacity: 1; stroke-width: 0px; fill: rgb(255, 0, 255); fill-opacity: 1;"/><path class="point" transform="translate(441.18,150.63)" d="M-4.2,0A 5.7,5.7 0 0 1 0,4.2A 5.7,5.7 0 0 1 4.2,0A 5.7,5.7 0 0 1 0,-4.2A 5.7,5.7 0 0 1 -4.2,0Z" style="opacity: 1; stroke-width: 0px; fill: rgb(255, 0, 255); fill-opacity: 1;"/><path class="point" transform="translate(499.02,115.4)" d="M-4.2,0A 5.7,5.7 0 0 1 0,4.2A 5.7,5.7 0 0 1 4.2,0A 5.7,5.7 0 0 1 0,-4.2A 5.7,5.7 0 0 1 -4.2,0Z" style="opacity: 1; stroke-width: 0px; fill: rgb(255, 0, 255); fill-opacity: 1;"/><path class="point" transform="translate(556.86,89.14)" d="M-4.2,0A 5.7,5.7 0 0 1 0,4.2A 5.7,5.7 0 0 1 4.2,0A 5.7,5.7 0 0 1 0,-4.2A 5.7,5.7 0 0 1 -4.2,0Z" style="opacity: 1; stroke-width: 0px; fill: rgb(255, 0, 255); fill-opacity: 1;"/><path class="point" transform="translate(614.7,65.69)" d="M-4.2,0A 5.7,5.7 0 0 1 0,4.2A 5.7,5.7 0 0 1 4.2,0A 5.7,5.7 0 0 1 0,-4.2A 5.7,5.7 0 0 1 -4.2,0Z" style="opacity: 1; stroke-width: 0px; fill: rgb(255, 0, 255); fill-opacity: 1;"/></g><g class="text"/></g></g></g><g class="overplot"/><path class="xlines-above crisp" d="M0,0" style="fill: none;"/><path class="ylines-above crisp" d="M0,0" style="fill: none;"/><g class="overlines-above"/><g class="xaxislayer-above"><g class="xtick"><text text-anchor="middle" x="0" y="543" transform="translate(125.3,0)" style="font-family: 'Open Sans', verdana, arial, sans-serif; font-size: 22px; fill: rgb(42, 63, 95); fill-opacity: 1; white-space: pre; opacity: 1;">25</text></g><g class="xtick"><text text-anchor="middle" x="0" y="543" transform="translate(183.14,0)" style="font-family: 'Open Sans', verdana, arial, sans-serif; font-size: 22px; fill: rgb(42, 63, 95); fill-opacity: 1; white-space: pre; opacity: 1;">50</text></g><g class="xtick"><text text-anchor="middle" x="0" y="543" transform="translate(240.98,0)" style="font-family: 'Open Sans', verdana, arial, sans-serif; font-size: 22px; fill: rgb(42, 63, 95); fill-opacity: 1; white-space: pre; opacity: 1;">100</text></g><g class="xtick"><text text-anchor="middle" x="0" y="543" transform="translate(298.82,0)" style="font-family: 'Open Sans', verdana, arial, sans-serif; font-size: 22px; fill: rgb(42, 63, 95); fill-opacity: 1; white-space: pre; opacity: 1;">200</text></g><g class="xtick"><text text-anchor="middle" x="0" y="543" transform="translate(356.66,0)" style="font-family: 'Open Sans', verdana, arial, sans-serif; font-size: 22px; fill: rgb(42, 63, 95); fill-opacity: 1; white-space: pre; opacity: 1;">500</text></g><g class="xtick"><text text-anchor="middle" x="0" y="543" transform="translate(414.5,0)" style="font-family: 'Open Sans', verdana, arial, sans-serif; font-size: 22px; fill: rgb(42, 63, 95); fill-opacity: 1; white-space: pre; opacity: 1;">750</text></g><g class="xtick"><text text-anchor="middle" x="0" y="543" transform="translate(472.34,0)" style="font-family: 'Open Sans', verdana, arial, sans-serif; font-size: 22px; fill: rgb(42, 63, 95); fill-opacity: 1; white-space: pre; opacity: 1;">1000</text></g><g class="xtick"><text text-anchor="middle" x="0" y="543" transform="translate(530.1800000000001,0)" style="font-family: 'Open Sans', verdana, arial, sans-serif; font-size: 22px; fill: rgb(42, 63, 95); fill-opacity: 1; white-space: pre; opacity: 1;">1500</text></g><g class="xtick"><text text-anchor="middle" x="0" y="543" transform="translate(588.02,0)" style="font-family: 'Open Sans', verdana, arial, sans-serif; font-size: 22px; fill: rgb(42, 63, 95); fill-opacity: 1; white-space: pre; opacity: 1;">2000</text></g><g class="xtick"><text text-anchor="middle" x="0" y="543" transform="translate(645.86,0)" style="font-family: 'Open Sans', verdana, arial, sans-serif; font-size: 22px; fill: rgb(42, 63, 95); fill-opacity: 1; white-space: pre; opacity: 1;">2500</text></g><g class="xtick"><text text-anchor="middle" x="0" y="543" transform="translate(703.7,0)" style="font-family: 'Open Sans', verdana, arial, sans-serif; font-size: 22px; fill: rgb(42, 63, 95); fill-opacity: 1; white-space: pre; opacity: 1;">3000</text></g></g><g class="yaxislayer-above"><g class="ytick"><text text-anchor="end" x="88" y="7.699999999999999" transform="translate(0,496.83)" style="font-family: 'Open Sans', verdana, arial, sans-serif; font-size: 22px; fill: rgb(42, 63, 95); fill-opacity: 1; white-space: pre; opacity: 1;">0</text></g><g class="ytick"><text text-anchor="end" x="88" y="7.699999999999999" style="font-family: 'Open Sans', verdana, arial, sans-serif; font-size: 22px; fill: rgb(42, 63, 95); fill-opacity: 1; white-space: pre; opacity: 1;" transform="translate(0,442.82)">0.05</text></g><g class="ytick"><text text-anchor="end" x="88" y="7.699999999999999" style="font-family: 'Open Sans', verdana, arial, sans-serif; font-size: 22px; fill: rgb(42, 63, 95); fill-opacity: 1; white-space: pre; opacity: 1;" transform="translate(0,388.81)">0.1</text></g><g class="ytick"><text text-anchor="end" x="88" y="7.699999999999999" style="font-family: 'Open Sans', verdana, arial, sans-serif; font-size: 22px; fill: rgb(42, 63, 95); fill-opacity: 1; white-space: pre; opacity: 1;" transform="translate(0,334.8)">0.15</text></g><g class="ytick"><text text-anchor="end" x="88" y="7.699999999999999" style="font-family: 'Open Sans', verdana, arial, sans-serif; font-size: 22px; fill: rgb(42, 63, 95); fill-opacity: 1; white-space: pre; opacity: 1;" transform="translate(0,280.78999999999996)">0.2</text></g><g class="ytick"><text text-anchor="end" x="88" y="7.699999999999999" style="font-family: 'Open Sans', verdana, arial, sans-serif; font-size: 22px; fill: rgb(42, 63, 95); fill-opacity: 1; white-space: pre; opacity: 1;" transform="translate(0,226.78)">0.25</text></g><g class="ytick"><text text-anchor="end" x="88" y="7.699999999999999" style="font-family: 'Open Sans', verdana, arial, sans-serif; font-size: 22px; fill: rgb(42, 63, 95); fill-opacity: 1; white-space: pre; opacity: 1;" transform="translate(0,172.76999999999998)">0.3</text></g><g class="ytick"><text text-anchor="end" x="88" y="7.699999999999999" style="font-family: 'Open Sans', verdana, arial, sans-serif; font-size: 22px; fill: rgb(42, 63, 95); fill-opacity: 1; white-space: pre; opacity: 1;" transform="translate(0,118.76)">0.35</text></g></g><g class="overaxes-above"/></g></g><g class="polarlayer"/><g class="smithlayer"/><g class="ternarylayer"/><g class="geolayer"/><g class="funnelarealayer"/><g class="pielayer"/><g class="iciclelayer"/><g class="treemaplayer"/><g class="sunburstlayer"/><g class="glimages"/><defs id="topdefs-ddf017"><g class="clips"/><clipPath id="legendddf017"><rect width="285" height="295" x="0" y="0"/></clipPath></defs><g class="layer-above"><g class="imagelayer"/><g class="shapelayer"/></g><g class="infolayer"><g class="legend" pointer-events="all" transform="translate(753.02,100)"><rect class="bg" shape-rendering="crispEdges" width="285" height="295" x="0" y="0" style="stroke: rgb(68, 68, 68); stroke-opacity: 1; fill: rgb(255, 255, 255); fill-opacity: 1; stroke-width: 0px;"/><g class="scrollbox" transform="" clip-path="url(#legendddf017)"><g class="groups"><g class="traces" transform="translate(0,20.8)" style="opacity: 1;"><text class="legendtext" text-anchor="start" x="40" y="8.58" style="font-family: 'Open Sans', verdana, arial, sans-serif; font-size: 22px; fill: rgb(42, 63, 95); fill-opacity: 1; white-space: pre;">XGDAG - GNNExplainer</text><g class="layers" style="opacity: 1;"><g class="legendfill"/><g class="legendlines"><path class="js-line" d="M5,0h30" style="fill: none; stroke: rgb(135, 206, 235); stroke-opacity: 1; stroke-width: 2px;"/></g><g class="legendsymbols"><g class="legendpoints"><path class="scatterpts" transform="translate(20,0)" d="M3,0A3,3 0 1,1 0,-3A3,3 0 0,1 3,0Z" style="opacity: 1; stroke-width: 0px; fill: rgb(135, 206, 235); fill-opacity: 1;"/></g></g></g><rect class="legendtoggle" x="0" y="-15.8" width="279.625" height="31.6" style="fill: rgb(0, 0, 0); fill-opacity: 0;"/></g><g class="traces" transform="translate(0,52.400000000000006)" style="opacity: 1;"><text class="legendtext" text-anchor="start" x="40" y="8.58" style="font-family: 'Open Sans', verdana, arial, sans-serif; font-size: 22px; fill: rgb(42, 63, 95); fill-opacity: 1; white-space: pre;">XGDAG - GraphSVX</text><g class="layers" style="opacity: 1;"><g class="legendfill"/><g class="legendlines"><path class="js-line" d="M5,0h30" style="fill: none; stroke: rgb(255, 99, 71); stroke-opacity: 1; stroke-width: 2px;"/></g><g class="legendsymbols"><g class="legendpoints"><path class="scatterpts" transform="translate(20,0)" d="M3,3H-3V-3H3Z" style="opacity: 1; stroke-width: 0px; fill: rgb(255, 99, 71); fill-opacity: 1;"/></g></g></g><rect class="legendtoggle" x="0" y="-15.8" width="279.625" height="31.6" style="fill: rgb(0, 0, 0); fill-opacity: 0;"/></g><g class="traces" transform="translate(0,84)" style="opacity: 1;"><text class="legendtext" text-anchor="start" x="40" y="8.58" style="font-family: 'Open Sans', verdana, arial, sans-serif; font-size: 22px; fill: rgb(42, 63, 95); fill-opacity: 1; white-space: pre;">NIAPU</text><g class="layers" style="opacity: 1;"><g class="legendfill"/><g class="legendlines"><path class="js-line" d="M5,0h30" style="fill: none; stroke: rgb(46, 139, 87); stroke-opacity: 1; stroke-width: 2px;"/></g><g class="legendsymbols"><g class="legendpoints"><path class="scatterpts" transform="translate(20,0)" d="M3.6,1.2H1.2V3.6H-1.2V1.2H-3.6V-1.2H-1.2V-3.6H1.2V-1.2H3.6Z" style="opacity: 1; stroke-width: 0px; fill: rgb(46, 139, 87); fill-opacity: 1;"/></g></g></g><rect class="legendtoggle" x="0" y="-15.8" width="279.625" height="31.6" style="fill: rgb(0, 0, 0); fill-opacity: 0;"/></g><g class="traces" transform="translate(0,115.60000000000001)" style="opacity: 1;"><text class="legendtext" text-anchor="start" x="40" y="8.58" style="font-family: 'Open Sans', verdana, arial, sans-serif; font-size: 22px; fill: rgb(42, 63, 95); fill-opacity: 1; white-space: pre;">DIAMOnD</text><g class="layers" style="opacity: 1;"><g class="legendfill"/><g class="legendlines"><path class="js-line" d="M5,0h30" style="fill: none; stroke: rgb(255, 165, 0); stroke-opacity: 1; stroke-width: 2px;"/></g><g class="legendsymbols"><g class="legendpoints"><path class="scatterpts" transform="translate(20,0)" d="M3.9,0L0,3.9L-3.9,0L0,-3.9Z" style="opacity: 1; stroke-width: 0px; fill: rgb(255, 165, 0); fill-opacity: 1;"/></g></g></g><rect class="legendtoggle" x="0" y="-15.8" width="279.625" height="31.6" style="fill: rgb(0, 0, 0); fill-opacity: 0;"/></g><g class="traces" transform="translate(0,147.20000000000002)" style="opacity: 1;"><text class="legendtext" text-anchor="start" x="40" y="8.58" style="font-family: 'Open Sans', verdana, arial, sans-serif; font-size: 22px; fill: rgb(42, 63, 95); fill-opacity: 1; white-space: pre;">MCL</text><g class="layers" style="opacity: 1;"><g class="legendfill"/><g class="legendlines"><path class="js-line" d="M5,0h30" style="fill: none; stroke: rgb(165, 42, 42); stroke-opacity: 1; stroke-width: 2px;"/></g><g class="legendsymbols"><g class="legendpoints"><path class="scatterpts" transform="translate(20,0)" d="M0,1.7l1.7,1.7l1.7,-1.7l-1.7,-1.7l1.7,-1.7l-1.7,-1.7l-1.7,1.7l-1.7,-1.7l-1.7,1.7l1.7,1.7l-1.7,1.7l1.7,1.7Z" style="opacity: 1; stroke-width: 0px; fill: rgb(165, 42, 42); fill-opacity: 1;"/></g></g></g><rect class="legendtoggle" x="0" y="-15.8" width="279.625" height="31.6" style="fill: rgb(0, 0, 0); fill-opacity: 0;"/></g><g class="traces" transform="translate(0,178.8)" style="opacity: 1;"><text class="legendtext" text-anchor="start" x="40" y="8.58" style="font-family: 'Open Sans', verdana, arial, sans-serif; font-size: 22px; fill: rgb(42, 63, 95); fill-opacity: 1; white-space: pre;">RWR</text><g class="layers" style="opacity: 1;"><g class="legendfill"/><g class="legendlines"><path class="js-line" d="M5,0h30" style="fill: none; stroke: rgb(128, 0, 128); stroke-opacity: 1; stroke-width: 2px;"/></g><g class="legendsymbols"><g class="legendpoints"><path class="scatterpts" transform="translate(20,0)" d="M-3.46,1.5H3.46L0,-3Z" style="opacity: 1; stroke-width: 0px; fill: rgb(128, 0, 128); fill-opacity: 1;"/></g></g></g><rect class="legendtoggle" x="0" y="-15.8" width="279.625" height="31.6" style="fill: rgb(0, 0, 0); fill-opacity: 0;"/></g><g class="traces" transform="translate(0,210.4)" style="opacity: 1;"><text class="legendtext" text-anchor="start" x="40" y="8.58" style="font-family: 'Open Sans', verdana, arial, sans-serif; font-size: 22px; fill: rgb(42, 63, 95); fill-opacity: 1; white-space: pre;">fFlow</text><g class="layers" style="opacity: 1;"><g class="legendfill"/><g class="legendlines"><path class="js-line" d="M5,0h30" style="fill: none; stroke: rgb(0, 0, 139); stroke-opacity: 1; stroke-width: 2px;"/></g><g class="legendsymbols"><g class="legendpoints"><path class="scatterpts" transform="translate(20,0)" d="M-3.46,-1.5H3.46L0,3Z" style="opacity: 1; stroke-width: 0px; fill: rgb(0, 0, 139); fill-opacity: 1;"/></g></g></g><rect class="legendtoggle" x="0" y="-15.8" width="279.625" height="31.6" style="fill: rgb(0, 0, 0); fill-opacity: 0;"/></g><g class="traces" transform="translate(0,242)" style="opacity: 1;"><text class="legendtext" text-anchor="start" x="40" y="8.58" style="font-family: 'Open Sans', verdana, arial, sans-serif; font-size: 22px; fill: rgb(42, 63, 95); fill-opacity: 1; white-space: pre;">NetCombo</text><g class="layers" style="opacity: 1;"><g class="legendfill"/><g class="legendlines"><path class="js-line" d="M5,0h30" style="fill: none; stroke: rgb(218, 165, 32); stroke-opacity: 1; stroke-width: 2px;"/></g><g class="legendsymbols"><g class="legendpoints"><path class="scatterpts" transform="translate(20,0)" d="M0.94,-1.3H3.99L1.52,0.5L2.47,3.4L0,1.6L-2.47,3.4L-1.52,0.5L-3.99,-1.3H-0.94L0,-4.2Z" style="opacity: 1; stroke-width: 0px; fill: rgb(218, 165, 32); fill-opacity: 1;"/></g></g></g><rect class="legendtoggle" x="0" y="-15.8" width="279.625" height="31.6" style="fill: rgb(0, 0, 0); fill-opacity: 0;"/></g><g class="traces" transform="translate(0,273.59999999999997)" style="opacity: 1;"><text class="legendtext" text-anchor="start" x="40" y="8.58" style="font-family: 'Open Sans', verdana, arial, sans-serif; font-size: 22px; fill: rgb(42, 63, 95); fill-opacity: 1; white-space: pre;">NetRank</text><g class="layers" style="opacity: 1;"><g class="legendfill"/><g class="legendlines"><path class="js-line" d="M5,0h30" style="fill: none; stroke: rgb(255, 0, 255); stroke-opacity: 1; stroke-width: 2px;"/></g><g class="legendsymbols"><g class="legendpoints"><path class="scatterpts" transform="translate(20,0)" d="M-4.2,0A 5.7,5.7 0 0 1 0,4.2A 5.7,5.7 0 0 1 4.2,0A 5.7,5.7 0 0 1 0,-4.2A 5.7,5.7 0 0 1 -4.2,0Z" style="opacity: 1; stroke-width: 0px; fill: rgb(255, 0, 255); fill-opacity: 1;"/></g></g></g><rect class="legendtoggle" x="0" y="-15.8" width="279.625" height="31.6" style="fill: rgb(0, 0, 0); fill-opacity: 0;"/></g></g></g><rect class="scrollbar" rx="20" ry="3" width="0" height="0" x="0" y="0" style="fill: rgb(128, 139, 164); fill-opacity: 1;"/></g><g class="g-gtitle"/><g class="g-xtitle"><text class="xtitle" x="414.5" y="580.7" text-anchor="middle" style="font-family: 'Open Sans', verdana, arial, sans-serif; font-size: 26px; fill: rgb(42, 63, 95); opacity: 1; font-weight: normal; white-space: pre;">Top k genes</text></g><g class="g-ytitle" transform="translate(11.5283203125,0)"><text class="ytitle" transform="rotate(-90,12.471874999999997,310)" x="12.471874999999997" y="310" text-anchor="middle" style="font-family: 'Open Sans', verdana, arial, sans-serif; font-size: 26px; fill: rgb(42, 63, 95); opacity: 1; font-weight: normal; white-space: pre;">F1 score</text></g></g></svg>