<svg class="main-svg" xmlns="http://www.w3.org/2000/svg" xmlns:xlink="http://www.w3.org/1999/xlink" width="1050" height="600" style="" viewBox="0 0 1050 600"><rect x="0" y="0" width="1050" height="600" style="fill: rgb(255, 255, 255); fill-opacity: 1;"/><defs id="defs-33d477"><g class="clips"><clipPath id="clip33d477xyplot" class="plotclip"><rect width="651" height="420"/></clipPath><clipPath class="axesclip" id="clip33d477x"><rect x="89" y="0" width="651" height="600"/></clipPath><clipPath class="axesclip" id="clip33d477y"><rect x="0" y="100" width="1050" height="420"/></clipPath><clipPath class="axesclip" id="clip33d477xy"><rect x="89" y="100" width="651" height="420"/></clipPath></g><g class="gradients"/><g class="patterns"/></defs><g class="bglayer"/><g class="layer-below"><g class="imagelayer"/><g class="shapelayer"/></g><g class="cartesianlayer"><g class="subplot xy"><g class="layer-subplot"><g class="shapelayer"/><g class="imagelayer"/></g><g class="minor-gridlayer"><g class="x"/><g class="y"/></g><g class="gridlayer"><g class="x"><path class="xgrid crisp" transform="translate(125.3,0)" d="M0,100v420" style="stroke: rgb(235, 240, 248); stroke-opacity: 1; stroke-width: 1px;"/><path class="xgrid crisp" transform="translate(183.14,0)" d="M0,100v420" style="stroke: rgb(235, 240, 248); stroke-opacity: 1; stroke-width: 1px;"/><path class="xgrid crisp" transform="translate(240.98,0)" d="M0,100v420" style="stroke: rgb(235, 240, 248); stroke-opacity: 1; stroke-width: 1px;"/><path class="xgrid crisp" transform="translate(298.82,0)" d="M0,100v420" style="stroke: rgb(235, 240, 248); stroke-opacity: 1; stroke-width: 1px;"/><path class="xgrid crisp" transform="translate(356.66,0)" d="M0,100v420" style="stroke: rgb(235, 240, 248); stroke-opacity: 1; stroke-width: 1px;"/><path class="xgrid crisp" transform="translate(414.5,0)" d="M0,100v420" style="stroke: rgb(235, 240, 248); stroke-opacity: 1; stroke-width: 1px;"/><path class="xgrid crisp" transform="translate(472.34,0)" d="M0,100v420" style="stroke: rgb(235, 240, 248); stroke-opacity: 1; stroke-width: 1px;"/><path class="xgrid crisp" transform="translate(530.1800000000001,0)" d="M0,100v420" style="stroke: rgb(235, 240, 248); stroke-opacity: 1; stroke-width: 1px;"/><path class="xgrid crisp" transform="translate(588.02,0)" d="M0,100v420" style="stroke: rgb(235, 240, 248); stroke-opacity: 1; stroke-width: 1px;"/><path class="xgrid crisp" transform="translate(645.86,0)" d="M0,100v420" style="stroke: rgb(235, 240, 248); stroke-opacity: 1; stroke-width: 1px;"/><path class="xgrid crisp" transform="translate(703.7,0)" d="M0,100v420" style="stroke: rgb(235, 240, 248); stroke-opacity: 1; stroke-width: 1px;"/></g><g class="y"><path class="ygrid crisp" transform="translate(0,433.7)" d="M89,0h651" style="stroke: rgb(235, 240, 248); stroke-opacity: 1; stroke-width: 1px;"/><path class="ygrid crisp" transform="translate(0,372.15)" d="M89,0h651" style="stroke: rgb(235, 240, 248); stroke-opacity: 1; stroke-width: 1px;"/><path class="ygrid crisp" transform="translate(0,310.6)" d="M89,0h651" style="stroke: rgb(235, 240, 248); stroke-opacity: 1; stroke-width: 1px;"/><path class="ygrid crisp" transform="translate(0,249.05)" d="M89,0h651" style="stroke: rgb(235, 240, 248); stroke-opacity: 1; stroke-width: 1px;"/><path class="ygrid crisp" transform="translate(0,187.5)" d="M89,0h651" style="stroke: rgb(235, 240, 248); stroke-opacity: 1; stroke-width: 1px;"/><path class="ygrid crisp" transform="translate(0,125.95)" d="M89,0h651" style="stroke: rgb(235, 240, 248); stroke-opacity: 1; stroke-width: 1px;"/></g></g><g class="zerolinelayer"><path class="yzl zl crisp" transform="translate(0,495.25)" d="M89,0h651" style="stroke: rgb(235, 240, 248); stroke-opacity: 1; stroke-width: 2px;"/></g><path class="xlines-below"/><path class="ylines-below"/><g class="overlines-below"/><g class="xaxislayer-below"/><g class="yaxislayer-below"/><g class="overaxes-below"/><g class="plot" transform="translate(89,100)" clip-path="url(#clip33d477xyplot)"><g class="scatterlayer mlayer"><g class="trace scatter tracee236c1" style="stroke-miterlimit: 2; opacity: 1;"><g class="fills"/><g class="errorbars"/><g class="lines"><path class="js-line" d="M36.3,314.53L94.14,246.04L151.98,136.09L209.82,164.43L267.66,95.39L325.5,132.31L383.34,135.58L441.18,160.11L499.02,157.69L556.86,151.7L614.7,158.8" style="vector-effect: none; fill: none; stroke: rgb(135, 206, 235); stroke-opacity: 1; stroke-width: 2px; opacity: 1;"/></g><g class="points"><path class="point" transform="translate(36.3,314.53)" d="M3,0A3,3 0 1,1 0,-3A3,3 0 0,1 3,0Z" style="opacity: 1; stroke-width: 0px; fill: rgb(135, 206, 235); fill-opacity: 1;"/><path class="point" transform="translate(94.14,246.04)" d="M3,0A3,3 0 1,1 0,-3A3,3 0 0,1 3,0Z" style="opacity: 1; stroke-width: 0px; fill: rgb(135, 206, 235); fill-opacity: 1;"/><path class="point" transform="translate(151.98,136.09)" d="M3,0A3,3 0 1,1 0,-3A3,3 0 0,1 3,0Z" style="opacity: 1; stroke-width: 0px; fill: rgb(135, 206, 235); fill-opacity: 1;"/><path class="point" transform="translate(209.82,164.43)" d="M3,0A3,3 0 1,1 0,-3A3,3 0 0,1 3,0Z" style="opacity: 1; stroke-width: 0px; fill: rgb(135, 206, 235); fill-opacity: 1;"/><path class="point" transform="translate(267.66,95.39)" d="M3,0A3,3 0 1,1 0,-3A3,3 0 0,1 3,0Z" style="opacity: 1; stroke-width: 0px; fill: rgb(135, 206, 235); fill-opacity: 1;"/><path class="point" transform="translate(325.5,132.31)" d="M3,0A3,3 0 1,1 0,-3A3,3 0 0,1 3,0Z" style="opacity: 1; stroke-width: 0px; fill: rgb(135, 206, 235); fill-opacity: 1;"/><path class="point" transform="translate(383.34,135.58)" d="M3,0A3,3 0 1,1 0,-3A3,3 0 0,1 3,0Z" style="opacity: 1; stroke-width: 0px; fill: rgb(135, 206, 235); fill-opacity: 1;"/><path class="point" transform="translate(441.18,160.11)" d="M3,0A3,3 0 1,1 0,-3A3,3 0 0,1 3,0Z" style="opacity: 1; stroke-width: 0px; fill: rgb(135, 206, 235); fill-opacity: 1;"/><path class="point" transform="translate(499.02,157.69)" d="M3,0A3,3 0 1,1 0,-3A3,3 0 0,1 3,0Z" style="opacity: 1; stroke-width: 0px; fill: rgb(135, 206, 235); fill-opacity: 1;"/><path class="point" transform="translate(556.86,151.7)" d="M3,0A3,3 0 1,1 0,-3A3,3 0 0,1 3,0Z" style="opacity: 1; stroke-width: 0px; fill: rgb(135, 206, 235); fill-opacity: 1;"/><path class="point" transform="translate(614.7,158.8)" d="M3,0A3,3 0 1,1 0,-3A3,3 0 0,1 3,0Z" style="opacity: 1; stroke-width: 0px; fill: rgb(135, 206, 235); fill-opacity: 1;"/></g><g class="text"/></g><g class="trace scatter trace0350e9" style="stroke-miterlimit: 2; opacity: 1;"><g class="fills"/><g class="errorbars"/><g class="lines"><path class="js-line" d="M36.3,314.53L94.14,246.04L151.98,136.09L209.82,164.43L267.66,126.95L325.5,120.36L383.34,135.58L441.18,153.2L499.02,168.48L556.86,173.84L614.7,151.3" style="vector-effect: none; fill: none; stroke: rgb(255, 99, 71); stroke-opacity: 1; stroke-width: 2px; opacity: 1;"/></g><g class="points"><path class="point" transform="translate(36.3,314.53)" d="M3,3H-3V-3H3Z" style="opacity: 1; stroke-width: 0px; fill: rgb(255, 99, 71); fill-opacity: 1;"/><path class="point" transform="translate(94.14,246.04)" d="M3,3H-3V-3H3Z" style="opacity: 1; stroke-width: 0px; fill: rgb(255, 99, 71); fill-opacity: 1;"/><path class="point" transform="translate(151.98,136.09)" d="M3,3H-3V-3H3Z" style="opacity: 1; stroke-width: 0px; fill: rgb(255, 99, 71); fill-opacity: 1;"/><path class="point" transform="translate(209.82,164.43)" d="M3,3H-3V-3H3Z" style="opacity: 1; stroke-width: 0px; fill: rgb(255, 99, 71); fill-opacity: 1;"/><path class="point" transform="translate(267.66,126.95)" d="M3,3H-3V-3H3Z" style="opacity: 1; stroke-width: 0px; fill: rgb(255, 99, 71); fill-opacity: 1;"/><path class="point" transform="translate(325.5,120.36)" d="M3,3H-3V-3H3Z" style="opacity: 1; stroke-width: 0px; fill: rgb(255, 99, 71); fill-opacity: 1;"/><path class="point" transform="translate(383.34,135.58)" d="M3,3H-3V-3H3Z" style="opacity: 1; stroke-width: 0px; fill: rgb(255, 99, 71); fill-opacity: 1;"/><path class="point" transform="translate(441.18,153.2)" d="M3,3H-3V-3H3Z" style="opacity: 1; stroke-width: 0px; fill: rgb(255, 99, 71); fill-opacity: 1;"/><path class="point" transform="translate(499.02,168.48)" d="M3,3H-3V-3H3Z" style="opacity: 1; stroke-width: 0px; fill: rgb(255, 99, 71); fill-opacity: 1;"/><path class="point" transform="translate(556.86,173.84)" d="M3,3H-3V-3H3Z" style="opacity: 1; stroke-width: 0px; fill: rgb(255, 99, 71); fill-opacity: 1;"/><path class="point" transform="translate(614.7,151.3)" d="M3,3H-3V-3H3Z" style="opacity: 1; stroke-width: 0px; fill: rgb(255, 99, 71); fill-opacity: 1;"/></g><g class="text"/></g><g class="trace scatter trace92becf" style="stroke-miterlimit: 2; opacity: 1;"><g class="fills"/><g class="errorbars"/><g class="lines"><path class="js-line" d="M36.3,354.89L94.14,320.64L151.98,298.06L209.82,164.43L267.66,63.82L325.5,24.75L383.34,58.64L441.18,70.21L499.02,130.69L556.86,116.28L614.7,128.78" style="vector-effect: none; fill: none; stroke: rgb(46, 139, 87); stroke-opacity: 1; stroke-width: 2px; opacity: 1;"/></g><g class="points"><path class="point" transform="translate(36.3,354.89)" d="M3.6,1.2H1.2V3.6H-1.2V1.2H-3.6V-1.2H-1.2V-3.6H1.2V-1.2H3.6Z" style="opacity: 1; stroke-width: 0px; fill: rgb(46, 139, 87); fill-opacity: 1;"/><path class="point" transform="translate(94.14,320.64)" d="M3.6,1.2H1.2V3.6H-1.2V1.2H-3.6V-1.2H-1.2V-3.6H1.2V-1.2H3.6Z" style="opacity: 1; stroke-width: 0px; fill: rgb(46, 139, 87); fill-opacity: 1;"/><path class="point" transform="translate(151.98,298.06)" d="M3.6,1.2H1.2V3.6H-1.2V1.2H-3.6V-1.2H-1.2V-3.6H1.2V-1.2H3.6Z" style="opacity: 1; stroke-width: 0px; fill: rgb(46, 139, 87); fill-opacity: 1;"/><path class="point" transform="translate(209.82,164.43)" d="M3.6,1.2H1.2V3.6H-1.2V1.2H-3.6V-1.2H-1.2V-3.6H1.2V-1.2H3.6Z" style="opacity: 1; stroke-width: 0px; fill: rgb(46, 139, 87); fill-opacity: 1;"/><path class="point" transform="translate(267.66,63.82)" d="M3.6,1.2H1.2V3.6H-1.2V1.2H-3.6V-1.2H-1.2V-3.6H1.2V-1.2H3.6Z" style="opacity: 1; stroke-width: 0px; fill: rgb(46, 139, 87); fill-opacity: 1;"/><path class="point" transform="translate(325.5,24.75)" d="M3.6,1.2H1.2V3.6H-1.2V1.2H-3.6V-1.2H-1.2V-3.6H1.2V-1.2H3.6Z" style="opacity: 1; stroke-width: 0px; fill: rgb(46, 139, 87); fill-opacity: 1;"/><path class="point" transform="translate(383.34,58.64)" d="M3.6,1.2H1.2V3.6H-1.2V1.2H-3.6V-1.2H-1.2V-3.6H1.2V-1.2H3.6Z" style="opacity: 1; stroke-width: 0px; fill: rgb(46, 139, 87); fill-opacity: 1;"/><path class="point" transform="translate(441.18,70.21)" d="M3.6,1.2H1.2V3.6H-1.2V1.2H-3.6V-1.2H-1.2V-3.6H1.2V-1.2H3.6Z" style="opacity: 1; stroke-width: 0px; fill: rgb(46, 139, 87); fill-opacity: 1;"/><path class="point" transform="translate(499.02,130.69)" d="M3.6,1.2H1.2V3.6H-1.2V1.2H-3.6V-1.2H-1.2V-3.6H1.2V-1.2H3.6Z" style="opacity: 1; stroke-width: 0px; fill: rgb(46, 139, 87); fill-opacity: 1;"/><path class="point" transform="translate(556.86,116.28)" d="M3.6,1.2H1.2V3.6H-1.2V1.2H-3.6V-1.2H-1.2V-3.6H1.2V-1.2H3.6Z" style="opacity: 1; stroke-width: 0px; fill: rgb(46, 139, 87); fill-opacity: 1;"/><path class="point" transform="translate(614.7,128.78)" d="M3.6,1.2H1.2V3.6H-1.2V1.2H-3.6V-1.2H-1.2V-3.6H1.2V-1.2H3.6Z" style="opacity: 1; stroke-width: 0px; fill: rgb(46, 139, 87); fill-opacity: 1;"/></g><g class="text"/></g><g class="trace scatter trace76c1f2" style="stroke-miterlimit: 2; opacity: 1;"><g class="fills"/><g class="errorbars"/><g class="lines"><path class="js-line" d="M36.3,395.25L94.14,357.95L151.98,168.48L209.82,164.43L267.66,111.17L325.5,123.37L383.34,123.37L614.7,123.37" style="vector-effect: none; fill: none; stroke: rgb(255, 165, 0); stroke-opacity: 1; stroke-width: 2px; opacity: 1;"/></g><g class="points"><path class="point" transform="translate(36.3,395.25)" d="M3.9,0L0,3.9L-3.9,0L0,-3.9Z" style="opacity: 1; stroke-width: 0px; fill: rgb(255, 165, 0); fill-opacity: 1;"/><path class="point" transform="translate(94.14,357.95)" d="M3.9,0L0,3.9L-3.9,0L0,-3.9Z" style="opacity: 1; stroke-width: 0px; fill: rgb(255, 165, 0); fill-opacity: 1;"/><path class="point" transform="translate(151.98,168.48)" d="M3.9,0L0,3.9L-3.9,0L0,-3.9Z" style="opacity: 1; stroke-width: 0px; fill: rgb(255, 165, 0); fill-opacity: 1;"/><path class="point" transform="translate(209.82,164.43)" d="M3.9,0L0,3.9L-3.9,0L0,-3.9Z" style="opacity: 1; stroke-width: 0px; fill: rgb(255, 165, 0); fill-opacity: 1;"/><path class="point" transform="translate(267.66,111.17)" d="M3.9,0L0,3.9L-3.9,0L0,-3.9Z" style="opacity: 1; stroke-width: 0px; fill: rgb(255, 165, 0); fill-opacity: 1;"/><path class="point" transform="translate(325.5,123.37)" d="M3.9,0L0,3.9L-3.9,0L0,-3.9Z" style="opacity: 1; stroke-width: 0px; fill: rgb(255, 165, 0); fill-opacity: 1;"/><path class="point" transform="translate(383.34,123.37)" d="M3.9,0L0,3.9L-3.9,0L0,-3.9Z" style="opacity: 1; stroke-width: 0px; fill: rgb(255, 165, 0); fill-opacity: 1;"/><path class="point" transform="translate(441.18,123.37)" d="M3.9,0L0,3.9L-3.9,0L0,-3.9Z" style="opacity: 1; stroke-width: 0px; fill: rgb(255, 165, 0); fill-opacity: 1;"/><path class="point" transform="translate(499.02,123.37)" d="M3.9,0L0,3.9L-3.9,0L0,-3.9Z" style="opacity: 1; stroke-width: 0px; fill: rgb(255, 165, 0); fill-opacity: 1;"/><path class="point" transform="translate(556.86,123.37)" d="M3.9,0L0,3.9L-3.9,0L0,-3.9Z" style="opacity: 1; stroke-width: 0px; fill: rgb(255, 165, 0); fill-opacity: 1;"/><path class="point" transform="translate(614.7,123.37)" d="M3.9,0L0,3.9L-3.9,0L0,-3.9Z" style="opacity: 1; stroke-width: 0px; fill: rgb(255, 165, 0); fill-opacity: 1;"/></g><g class="text"/></g><g class="trace scatter trace31a7c0" style="stroke-miterlimit: 2; opacity: 1;"><g class="fills"/><g class="errorbars"/><g class="lines"><path class="js-line" d="M36.3,354.89L94.14,357.95L151.98,362.85L209.82,343.96L267.66,277.69L614.7,277.69" style="vector-effect: none; fill: none; stroke: rgb(165, 42, 42); stroke-opacity: 1; stroke-width: 2px; opacity: 1;"/></g><g class="points"><path class="point" transform="translate(36.3,354.89)" d="M0,1.7l1.7,1.7l1.7,-1.7l-1.7,-1.7l1.7,-1.7l-1.7,-1.7l-1.7,1.7l-1.7,-1.7l-1.7,1.7l1.7,1.7l-1.7,1.7l1.7,1.7Z" style="opacity: 1; stroke-width: 0px; fill: rgb(165, 42, 42); fill-opacity: 1;"/><path class="point" transform="translate(94.14,357.95)" d="M0,1.7l1.7,1.7l1.7,-1.7l-1.7,-1.7l1.7,-1.7l-1.7,-1.7l-1.7,1.7l-1.7,-1.7l-1.7,1.7l1.7,1.7l-1.7,1.7l1.7,1.7Z" style="opacity: 1; stroke-width: 0px; fill: rgb(165, 42, 42); fill-opacity: 1;"/><path class="point" transform="translate(151.98,362.85)" d="M0,1.7l1.7,1.7l1.7,-1.7l-1.7,-1.7l1.7,-1.7l-1.7,-1.7l-1.7,1.7l-1.7,-1.7l-1.7,1.7l1.7,1.7l-1.7,1.7l1.7,1.7Z" style="opacity: 1; stroke-width: 0px; fill: rgb(165, 42, 42); fill-opacity: 1;"/><path class="point" transform="translate(209.82,343.96)" d="M0,1.7l1.7,1.7l1.7,-1.7l-1.7,-1.7l1.7,-1.7l-1.7,-1.7l-1.7,1.7l-1.7,-1.7l-1.7,1.7l1.7,1.7l-1.7,1.7l1.7,1.7Z" style="opacity: 1; stroke-width: 0px; fill: rgb(165, 42, 42); fill-opacity: 1;"/><path class="point" transform="translate(267.66,277.69)" d="M0,1.7l1.7,1.7l1.7,-1.7l-1.7,-1.7l1.7,-1.7l-1.7,-1.7l-1.7,1.7l-1.7,-1.7l-1.7,1.7l1.7,1.7l-1.7,1.7l1.7,1.7Z" style="opacity: 1; stroke-width: 0px; fill: rgb(165, 42, 42); fill-opacity: 1;"/><path class="point" transform="translate(325.5,277.69)" d="M0,1.7l1.7,1.7l1.7,-1.7l-1.7,-1.7l1.7,-1.7l-1.7,-1.7l-1.7,1.7l-1.7,-1.7l-1.7,1.7l1.7,1.7l-1.7,1.7l1.7,1.7Z" style="opacity: 1; stroke-width: 0px; fill: rgb(165, 42, 42); fill-opacity: 1;"/><path class="point" transform="translate(383.34,277.69)" d="M0,1.7l1.7,1.7l1.7,-1.7l-1.7,-1.7l1.7,-1.7l-1.7,-1.7l-1.7,1.7l-1.7,-1.7l-1.7,1.7l1.7,1.7l-1.7,1.7l1.7,1.7Z" style="opacity: 1; stroke-width: 0px; fill: rgb(165, 42, 42); fill-opacity: 1;"/><path class="point" transform="translate(441.18,277.69)" d="M0,1.7l1.7,1.7l1.7,-1.7l-1.7,-1.7l1.7,-1.7l-1.7,-1.7l-1.7,1.7l-1.7,-1.7l-1.7,1.7l1.7,1.7l-1.7,1.7l1.7,1.7Z" style="opacity: 1; stroke-width: 0px; fill: rgb(165, 42, 42); fill-opacity: 1;"/><path class="point" transform="translate(499.02,277.69)" d="M0,1.7l1.7,1.7l1.7,-1.7l-1.7,-1.7l1.7,-1.7l-1.7,-1.7l-1.7,1.7l-1.7,-1.7l-1.7,1.7l1.7,1.7l-1.7,1.7l1.7,1.7Z" style="opacity: 1; stroke-width: 0px; fill: rgb(165, 42, 42); fill-opacity: 1;"/><path class="point" transform="translate(556.86,277.69)" d="M0,1.7l1.7,1.7l1.7,-1.7l-1.7,-1.7l1.7,-1.7l-1.7,-1.7l-1.7,1.7l-1.7,-1.7l-1.7,1.7l1.7,1.7l-1.7,1.7l1.7,1.7Z" style="opacity: 1; stroke-width: 0px; fill: rgb(165, 42, 42); fill-opacity: 1;"/><path class="point" transform="translate(614.7,277.69)" d="M0,1.7l1.7,1.7l1.7,-1.7l-1.7,-1.7l1.7,-1.7l-1.7,-1.7l-1.7,1.7l-1.7,-1.7l-1.7,1.7l1.7,1.7l-1.7,1.7l1.7,1.7Z" style="opacity: 1; stroke-width: 0px; fill: rgb(165, 42, 42); fill-opacity: 1;"/></g><g class="text"/></g><g class="trace scatter tracef3752f" style="stroke-miterlimit: 2; opacity: 1;"><g class="fills"/><g class="errorbars"/><g class="lines"><path class="js-line" d="M36.3,274.17L94.14,283.34L151.98,200.88L209.82,164.43L267.66,190.08L325.5,180.12L383.34,154.82L441.18,167.03L499.02,136.09L556.86,133.99L614.7,158.8" style="vector-effect: none; fill: none; stroke: rgb(128, 0, 128); stroke-opacity: 1; stroke-width: 2px; opacity: 1;"/></g><g class="points"><path class="point" transform="translate(36.3,274.17)" d="M-3.46,1.5H3.46L0,-3Z" style="opacity: 1; stroke-width: 0px; fill: rgb(128, 0, 128); fill-opacity: 1;"/><path class="point" transform="translate(94.14,283.34)" d="M-3.46,1.5H3.46L0,-3Z" style="opacity: 1; stroke-width: 0px; fill: rgb(128, 0, 128); fill-opacity: 1;"/><path class="point" transform="translate(151.98,200.88)" d="M-3.46,1.5H3.46L0,-3Z" style="opacity: 1; stroke-width: 0px; fill: rgb(128, 0, 128); fill-opacity: 1;"/><path class="point" transform="translate(209.82,164.43)" d="M-3.46,1.5H3.46L0,-3Z" style="opacity: 1; stroke-width: 0px; fill: rgb(128, 0, 128); fill-opacity: 1;"/><path class="point" transform="translate(267.66,190.08)" d="M-3.46,1.5H3.46L0,-3Z" style="opacity: 1; stroke-width: 0px; fill: rgb(128, 0, 128); fill-opacity: 1;"/><path class="point" transform="translate(325.5,180.12)" d="M-3.46,1.5H3.46L0,-3Z" style="opacity: 1; stroke-width: 0px; fill: rgb(128, 0, 128); fill-opacity: 1;"/><path class="point" transform="translate(383.34,154.82)" d="M-3.46,1.5H3.46L0,-3Z" style="opacity: 1; stroke-width: 0px; fill: rgb(128, 0, 128); fill-opacity: 1;"/><path class="point" transform="translate(441.18,167.03)" d="M-3.46,1.5H3.46L0,-3Z" style="opacity: 1; stroke-width: 0px; fill: rgb(128, 0, 128); fill-opacity: 1;"/><path class="point" transform="translate(499.02,136.09)" d="M-3.46,1.5H3.46L0,-3Z" style="opacity: 1; stroke-width: 0px; fill: rgb(128, 0, 128); fill-opacity: 1;"/><path class="point" transform="translate(556.86,133.99)" d="M-3.46,1.5H3.46L0,-3Z" style="opacity: 1; stroke-width: 0px; fill: rgb(128, 0, 128); fill-opacity: 1;"/><path class="point" transform="translate(614.7,158.8)" d="M-3.46,1.5H3.46L0,-3Z" style="opacity: 1; stroke-width: 0px; fill: rgb(128, 0, 128); fill-opacity: 1;"/></g><g class="text"/></g><g class="trace scatter tracee55ea7" style="stroke-miterlimit: 2; opacity: 1;"><g class="fills"/><g class="errorbars"/><g class="lines"><path class="js-line" d="M36.3,354.89L94.14,320.64L151.98,330.46L209.82,241.37L267.66,237.43L325.5,204.02L383.34,222.14L441.18,229.27L499.02,222.48L556.86,213.7L614.7,207.6" style="vector-effect: none; fill: none; stroke: rgb(0, 0, 139); stroke-opacity: 1; stroke-width: 2px; opacity: 1;"/></g><g class="points"><path class="point" transform="translate(36.3,354.89)" d="M-3.46,-1.5H3.46L0,3Z" style="opacity: 1; stroke-width: 0px; fill: rgb(0, 0, 139); fill-opacity: 1;"/><path class="point" transform="translate(94.14,320.64)" d="M-3.46,-1.5H3.46L0,3Z" style="opacity: 1; stroke-width: 0px; fill: rgb(0, 0, 139); fill-opacity: 1;"/><path class="point" transform="translate(151.98,330.46)" d="M-3.46,-1.5H3.46L0,3Z" style="opacity: 1; stroke-width: 0px; fill: rgb(0, 0, 139); fill-opacity: 1;"/><path class="point" transform="translate(209.82,241.37)" d="M-3.46,-1.5H3.46L0,3Z" style="opacity: 1; stroke-width: 0px; fill: rgb(0, 0, 139); fill-opacity: 1;"/><path class="point" transform="translate(267.66,237.43)" d="M-3.46,-1.5H3.46L0,3Z" style="opacity: 1; stroke-width: 0px; fill: rgb(0, 0, 139); fill-opacity: 1;"/><path class="point" transform="translate(325.5,204.02)" d="M-3.46,-1.5H3.46L0,3Z" style="opacity: 1; stroke-width: 0px; fill: rgb(0, 0, 139); fill-opacity: 1;"/><path class="point" transform="translate(383.34,222.14)" d="M-3.46,-1.5H3.46L0,3Z" style="opacity: 1; stroke-width: 0px; fill: rgb(0, 0, 139); fill-opacity: 1;"/><path class="point" transform="translate(441.18,229.27)" d="M-3.46,-1.5H3.46L0,3Z" style="opacity: 1; stroke-width: 0px; fill: rgb(0, 0, 139); fill-opacity: 1;"/><path class="point" transform="translate(499.02,222.48)" d="M-3.46,-1.5H3.46L0,3Z" style="opacity: 1; stroke-width: 0px; fill: rgb(0, 0, 139); fill-opacity: 1;"/><path class="point" transform="translate(556.86,213.7)" d="M-3.46,-1.5H3.46L0,3Z" style="opacity: 1; stroke-width: 0px; fill: rgb(0, 0, 139); fill-opacity: 1;"/><path class="point" transform="translate(614.7,207.6)" d="M-3.46,-1.5H3.46L0,3Z" style="opacity: 1; stroke-width: 0px; fill: rgb(0, 0, 139); fill-opacity: 1;"/></g><g class="text"/></g><g class="trace scatter trace1dda48" style="stroke-miterlimit: 2; opacity: 1;"><g class="fills"/><g class="errorbars"/><g class="lines"><path class="js-line" d="M36.3,354.89L94.14,357.95L151.98,200.88L209.82,215.73L267.66,237.43L325.5,192.07L383.34,193.29L441.18,146.28L499.02,141.49L556.86,138.42L614.7,113.77" style="vector-effect: none; fill: none; stroke: rgb(218, 165, 32); stroke-opacity: 1; stroke-width: 2px; opacity: 1;"/></g><g class="points"><path class="point" transform="translate(36.3,354.89)" d="M0.94,-1.3H3.99L1.52,0.5L2.47,3.4L0,1.6L-2.47,3.4L-1.52,0.5L-3.99,-1.3H-0.94L0,-4.2Z" style="opacity: 1; stroke-width: 0px; fill: rgb(218, 165, 32); fill-opacity: 1;"/><path class="point" transform="translate(94.14,357.95)" d="M0.94,-1.3H3.99L1.52,0.5L2.47,3.4L0,1.6L-2.47,3.4L-1.52,0.5L-3.99,-1.3H-0.94L0,-4.2Z" style="opacity: 1; stroke-width: 0px; fill: rgb(218, 165, 32); fill-opacity: 1;"/><path class="point" transform="translate(151.98,200.88)" d="M0.94,-1.3H3.99L1.52,0.5L2.47,3.4L0,1.6L-2.47,3.4L-1.52,0.5L-3.99,-1.3H-0.94L0,-4.2Z" style="opacity: 1; stroke-width: 0px; fill: rgb(218, 165, 32); fill-opacity: 1;"/><path class="point" transform="translate(209.82,215.73)" d="M0.94,-1.3H3.99L1.52,0.5L2.47,3.4L0,1.6L-2.47,3.4L-1.52,0.5L-3.99,-1.3H-0.94L0,-4.2Z" style="opacity: 1; stroke-width: 0px; fill: rgb(218, 165, 32); fill-opacity: 1;"/><path class="point" transform="translate(267.66,237.43)" d="M0.94,-1.3H3.99L1.52,0.5L2.47,3.4L0,1.6L-2.47,3.4L-1.52,0.5L-3.99,-1.3H-0.94L0,-4.2Z" style="opacity: 1; stroke-width: 0px; fill: rgb(218, 165, 32); fill-opacity: 1;"/><path class="point" transform="translate(325.5,192.07)" d="M0.94,-1.3H3.99L1.52,0.5L2.47,3.4L0,1.6L-2.47,3.4L-1.52,0.5L-3.99,-1.3H-0.94L0,-4.2Z" style="opacity: 1; stroke-width: 0px; fill: rgb(218, 165, 32); fill-opacity: 1;"/><path class="point" transform="translate(383.34,193.29)" d="M0.94,-1.3H3.99L1.52,0.5L2.47,3.4L0,1.6L-2.47,3.4L-1.52,0.5L-3.99,-1.3H-0.94L0,-4.2Z" style="opacity: 1; stroke-width: 0px; fill: rgb(218, 165, 32); fill-opacity: 1;"/><path class="point" transform="translate(441.18,146.28)" d="M0.94,-1.3H3.99L1.52,0.5L2.47,3.4L0,1.6L-2.47,3.4L-1.52,0.5L-3.99,-1.3H-0.94L0,-4.2Z" style="opacity: 1; stroke-width: 0px; fill: rgb(218, 165, 32); fill-opacity: 1;"/><path class="point" transform="translate(499.02,141.49)" d="M0.94,-1.3H3.99L1.52,0.5L2.47,3.4L0,1.6L-2.47,3.4L-1.52,0.5L-3.99,-1.3H-0.94L0,-4.2Z" style="opacity: 1; stroke-width: 0px; fill: rgb(218, 165, 32); fill-opacity: 1;"/><path class="point" transform="translate(556.86,138.42)" d="M0.94,-1.3H3.99L1.52,0.5L2.47,3.4L0,1.6L-2.47,3.4L-1.52,0.5L-3.99,-1.3H-0.94L0,-4.2Z" style="opacity: 1; stroke-width: 0px; fill: rgb(218, 165, 32); fill-opacity: 1;"/><path class="point" transform="translate(614.7,113.77)" d="M0.94,-1.3H3.99L1.52,0.5L2.47,3.4L0,1.6L-2.47,3.4L-1.52,0.5L-3.99,-1.3H-0.94L0,-4.2Z" style="opacity: 1; stroke-width: 0px; fill: rgb(218, 165, 32); fill-opacity: 1;"/></g><g class="text"/></g><g class="trace scatter trace956119" style="stroke-miterlimit: 2; opacity: 1;"><g class="fills"/><g class="errorbars"/><g class="lines"><path class="js-line" d="M36.3,314.53L94.14,283.34L151.98,233.27L209.82,138.79L267.66,126.95L325.5,144.27L383.34,135.58L441.18,167.03L499.02,179.28L556.86,187.13L614.7,188.83" style="vector-effect: none; fill: none; stroke: rgb(255, 0, 255); stroke-opacity: 1; stroke-width: 2px; opacity: 1;"/></g><g class="points"><path class="point" transform="translate(36.3,314.53)" d="M-4.2,0A 5.7,5.7 0 0 1 0,4.2A 5.7,5.7 0 0 1 4.2,0A 5.7,5.7 0 0 1 0,-4.2A 5.7,5.7 0 0 1 -4.2,0Z" style="opacity: 1; stroke-width: 0px; fill: rgb(255, 0, 255); fill-opacity: 1;"/><path class="point" transform="translate(94.14,283.34)" d="M-4.2,0A 5.7,5.7 0 0 1 0,4.2A 5.7,5.7 0 0 1 4.2,0A 5.7,5.7 0 0 1 0,-4.2A 5.7,5.7 0 0 1 -4.2,0Z" style="opacity: 1; stroke-width: 0px; fill: rgb(255, 0, 255); fill-opacity: 1;"/><path class="point" transform="translate(151.98,233.27)" d="M-4.2,0A 5.7,5.7 0 0 1 0,4.2A 5.7,5.7 0 0 1 4.2,0A 5.7,5.7 0 0 1 0,-4.2A 5.7,5.7 0 0 1 -4.2,0Z" style="opacity: 1; stroke-width: 0px; fill: rgb(255, 0, 255); fill-opacity: 1;"/><path class="point" transform="translate(209.82,138.79)" d="M-4.2,0A 5.7,5.7 0 0 1 0,4.2A 5.7,5.7 0 0 1 4.2,0A 5.7,5.7 0 0 1 0,-4.2A 5.7,5.7 0 0 1 -4.2,0Z" style="opacity: 1; stroke-width: 0px; fill: rgb(255, 0, 255); fill-opacity: 1;"/><path class="point" transform="translate(267.66,126.95)" d="M-4.2,0A 5.7,5.7 0 0 1 0,4.2A 5.7,5.7 0 0 1 4.2,0A 5.7,5.7 0 0 1 0,-4.2A 5.7,5.7 0 0 1 -4.2,0Z" style="opacity: 1; stroke-width: 0px; fill: rgb(255, 0, 255); fill-opacity: 1;"/><path class="point" transform="translate(325.5,144.27)" d="M-4.2,0A 5.7,5.7 0 0 1 0,4.2A 5.7,5.7 0 0 1 4.2,0A 5.7,5.7 0 0 1 0,-4.2A 5.7,5.7 0 0 1 -4.2,0Z" style="opacity: 1; stroke-width: 0px; fill: rgb(255, 0, 255); fill-opacity: 1;"/><path class="point" transform="translate(383.34,135.58)" d="M-4.2,0A 5.7,5.7 0 0 1 0,4.2A 5.7,5.7 0 0 1 4.2,0A 5.7,5.7 0 0 1 0,-4.2A 5.7,5.7 0 0 1 -4.2,0Z" style="opacity: 1; stroke-width: 0px; fill: rgb(255, 0, 255); fill-opacity: 1;"/><path class="point" transform="translate(441.18,167.03)" d="M-4.2,0A 5.7,5.7 0 0 1 0,4.2A 5.7,5.7 0 0 1 4.2,0A 5.7,5.7 0 0 1 0,-4.2A 5.7,5.7 0 0 1 -4.2,0Z" style="opacity: 1; stroke-width: 0px; fill: rgb(255, 0, 255); fill-opacity: 1;"/><path class="point" transform="translate(499.02,179.28)" d="M-4.2,0A 5.7,5.7 0 0 1 0,4.2A 5.7,5.7 0 0 1 4.2,0A 5.7,5.7 0 0 1 0,-4.2A 5.7,5.7 0 0 1 -4.2,0Z" style="opacity: 1; stroke-width: 0px; fill: rgb(255, 0, 255); fill-opacity: 1;"/><path class="point" transform="translate(556.86,187.13)" d="M-4.2,0A 5.7,5.7 0 0 1 0,4.2A 5.7,5.7 0 0 1 4.2,0A 5.7,5.7 0 0 1 0,-4.2A 5.7,5.7 0 0 1 -4.2,0Z" style="opacity: 1; stroke-width: 0px; fill: rgb(255, 0, 255); fill-opacity: 1;"/><path class="point" transform="translate(614.7,188.83)" d="M-4.2,0A 5.7,5.7 0 0 1 0,4.2A 5.7,5.7 0 0 1 4.2,0A 5.7,5.7 0 0 1 0,-4.2A 5.7,5.7 0 0 1 -4.2,0Z" style="opacity: 1; stroke-width: 0px; fill: rgb(255, 0, 255); fill-opacity: 1;"/></g><g class="text"/></g></g></g><g class="overplot"/><path class="xlines-above crisp" d="M0,0" style="fill: none;"/><path class="ylines-above crisp" d="M0,0" style="fill: none;"/><g class="overlines-above"/><g class="xaxislayer-above"><g class="xtick"><text text-anchor="middle" x="0" y="543" transform="translate(125.3,0)" style="font-family: 'Open Sans', verdana, arial, sans-serif; font-size: 22px; fill: rgb(42, 63, 95); fill-opacity: 1; white-space: pre; opacity: 1;">25</text></g><g class="xtick"><text text-anchor="middle" x="0" y="543" transform="translate(183.14,0)" style="font-family: 'Open Sans', verdana, arial, sans-serif; font-size: 22px; fill: rgb(42, 63, 95); fill-opacity: 1; white-space: pre; opacity: 1;">50</text></g><g class="xtick"><text text-anchor="middle" x="0" y="543" transform="translate(240.98,0)" style="font-family: 'Open Sans', verdana, arial, sans-serif; font-size: 22px; fill: rgb(42, 63, 95); fill-opacity: 1; white-space: pre; opacity: 1;">100</text></g><g class="xtick"><text text-anchor="middle" x="0" y="543" transform="translate(298.82,0)" style="font-family: 'Open Sans', verdana, arial, sans-serif; font-size: 22px; fill: rgb(42, 63, 95); fill-opacity: 1; white-space: pre; opacity: 1;">200</text></g><g class="xtick"><text text-anchor="middle" x="0" y="543" transform="translate(356.66,0)" style="font-family: 'Open Sans', verdana, arial, sans-serif; font-size: 22px; fill: rgb(42, 63, 95); fill-opacity: 1; white-space: pre; opacity: 1;">500</text></g><g class="xtick"><text text-anchor="middle" x="0" y="543" transform="translate(414.5,0)" style="font-family: 'Open Sans', verdana, arial, sans-serif; font-size: 22px; fill: rgb(42, 63, 95); fill-opacity: 1; white-space: pre; opacity: 1;">750</text></g><g class="xtick"><text text-anchor="middle" x="0" y="543" transform="translate(472.34,0)" style="font-family: 'Open Sans', verdana, arial, sans-serif; font-size: 22px; fill: rgb(42, 63, 95); fill-opacity: 1; white-space: pre; opacity: 1;">1000</text></g><g class="xtick"><text text-anchor="middle" x="0" y="543" transform="translate(530.1800000000001,0)" style="font-family: 'Open Sans', verdana, arial, sans-serif; font-size: 22px; fill: rgb(42, 63, 95); fill-opacity: 1; white-space: pre; opacity: 1;">1500</text></g><g class="xtick"><text text-anchor="middle" x="0" y="543" transform="translate(588.02,0)" style="font-family: 'Open Sans', verdana, arial, sans-serif; font-size: 22px; fill: rgb(42, 63, 95); fill-opacity: 1; white-space: pre; opacity: 1;">2000</text></g><g class="xtick"><text text-anchor="middle" x="0" y="543" transform="translate(645.86,0)" style="font-family: 'Open Sans', verdana, arial, sans-serif; font-size: 22px; fill: rgb(42, 63, 95); fill-opacity: 1; white-space: pre; opacity: 1;">2500</text></g><g class="xtick"><text text-anchor="middle" x="0" y="543" transform="translate(703.7,0)" style="font-family: 'Open Sans', verdana, arial, sans-serif; font-size: 22px; fill: rgb(42, 63, 95); fill-opacity: 1; white-space: pre; opacity: 1;">3000</text></g></g><g class="yaxislayer-above"><g class="ytick"><text text-anchor="end" x="88" y="7.699999999999999" transform="translate(0,495.25)" style="font-family: 'Open Sans', verdana, arial, sans-serif; font-size: 22px; fill: rgb(42, 63, 95); fill-opacity: 1; white-space: pre; opacity: 1;">0</text></g><g class="ytick"><text text-anchor="end" x="88" y="7.699999999999999" style="font-family: 'Open Sans', verdana, arial, sans-serif; font-size: 22px; fill: rgb(42, 63, 95); fill-opacity: 1; white-space: pre; opacity: 1;" transform="translate(0,433.7)">0.01</text></g><g class="ytick"><text text-anchor="end" x="88" y="7.699999999999999" style="font-family: 'Open Sans', verdana, arial, sans-serif; font-size: 22px; fill: rgb(42, 63, 95); fill-opacity: 1; white-space: pre; opacity: 1;" transform="translate(0,372.15)">0.02</text></g><g class="ytick"><text text-anchor="end" x="88" y="7.699999999999999" style="font-family: 'Open Sans', verdana, arial, sans-serif; font-size: 22px; fill: rgb(42, 63, 95); fill-opacity: 1; white-space: pre; opacity: 1;" transform="translate(0,310.6)">0.03</text></g><g class="ytick"><text text-anchor="end" x="88" y="7.699999999999999" style="font-family: 'Open Sans', verdana, arial, sans-serif; font-size: 22px; fill: rgb(42, 63, 95); fill-opacity: 1; white-space: pre; opacity: 1;" transform="translate(0,249.05)">0.04</text></g><g class="ytick"><text text-anchor="end" x="88" y="7.699999999999999" style="font-family: 'Open Sans', verdana, arial, sans-serif; font-size: 22px; fill: rgb(42, 63, 95); fill-opacity: 1; white-space: pre; opacity: 1;" transform="translate(0,187.5)">0.05</text></g><g class="ytick"><text text-anchor="end" x="88" y="7.699999999999999" style="font-family: 'Open Sans', verdana, arial, sans-serif; font-size: 22px; fill: rgb(42, 63, 95); fill-opacity: 1; white-space: pre; opacity: 1;" transform="translate(0,125.95)">0.06</text></g></g><g class="overaxes-above"/></g></g><g class="polarlayer"/><g class="smithlayer"/><g class="ternarylayer"/><g class="geolayer"/><g class="funnelarealayer"/><g class="pielayer"/><g class="iciclelayer"/><g class="treemaplayer"/><g class="sunburstlayer"/><g class="glimages"/><defs id="topdefs-33d477"><g class="clips"/><clipPath id="legend33d477"><rect width="285" height="295" x="0" y="0"/></clipPath></defs><g class="layer-above"><g class="imagelayer"/><g class="shapelayer"/></g><g class="infolayer"><g class="legend" pointer-events="all" transform="translate(753.02,100)"><rect class="bg" shape-rendering="crispEdges" width="285" height="295" x="0" y="0" style="stroke: rgb(68, 68, 68); stroke-opacity: 1; fill: rgb(255, 255, 255); fill-opacity: 1; stroke-width: 0px;"/><g class="scrollbox" transform="" clip-path="url(#legend33d477)"><g class="groups"><g class="traces" transform="translate(0,20.8)" style="opacity: 1;"><text class="legendtext" text-anchor="start" x="40" y="8.58" style="font-family: 'Open Sans', verdana, arial, sans-serif; font-size: 22px; fill: rgb(42, 63, 95); fill-opacity: 1; white-space: pre;">XGDAG - GNNExplainer</text><g class="layers" style="opacity: 1;"><g class="legendfill"/><g class="legendlines"><path class="js-line" d="M5,0h30" style="fill: none; stroke: rgb(135, 206, 235); stroke-opacity: 1; stroke-width: 2px;"/></g><g class="legendsymbols"><g class="legendpoints"><path class="scatterpts" transform="translate(20,0)" d="M3,0A3,3 0 1,1 0,-3A3,3 0 0,1 3,0Z" style="opacity: 1; stroke-width: 0px; fill: rgb(135, 206, 235); fill-opacity: 1;"/></g></g></g><rect class="legendtoggle" x="0" y="-15.8" width="279.625" height="31.6" style="fill: rgb(0, 0, 0); fill-opacity: 0;"/></g><g class="traces" transform="translate(0,52.400000000000006)" style="opacity: 1;"><text class="legendtext" text-anchor="start" x="40" y="8.58" style="font-family: 'Open Sans', verdana, arial, sans-serif; font-size: 22px; fill: rgb(42, 63, 95); fill-opacity: 1; white-space: pre;">XGDAG - GraphSVX</text><g class="layers" style="opacity: 1;"><g class="legendfill"/><g class="legendlines"><path class="js-line" d="M5,0h30" style="fill: none; stroke: rgb(255, 99, 71); stroke-opacity: 1; stroke-width: 2px;"/></g><g class="legendsymbols"><g class="legendpoints"><path class="scatterpts" transform="translate(20,0)" d="M3,3H-3V-3H3Z" style="opacity: 1; stroke-width: 0px; fill: rgb(255, 99, 71); fill-opacity: 1;"/></g></g></g><rect class="legendtoggle" x="0" y="-15.8" width="279.625" height="31.6" style="fill: rgb(0, 0, 0); fill-opacity: 0;"/></g><g class="traces" transform="translate(0,84)" style="opacity: 1;"><text class="legendtext" text-anchor="start" x="40" y="8.58" style="font-family: 'Open Sans', verdana, arial, sans-serif; font-size: 22px; fill: rgb(42, 63, 95); fill-opacity: 1; white-space: pre;">NIAPU</text><g class="layers" style="opacity: 1;"><g class="legendfill"/><g class="legendlines"><path class="js-line" d="M5,0h30" style="fill: none; stroke: rgb(46, 139, 87); stroke-opacity: 1; stroke-width: 2px;"/></g><g class="legendsymbols"><g class="legendpoints"><path class="scatterpts" transform="translate(20,0)" d="M3.6,1.2H1.2V3.6H-1.2V1.2H-3.6V-1.2H-1.2V-3.6H1.2V-1.2H3.6Z" style="opacity: 1; stroke-width: 0px; fill: rgb(46, 139, 87); fill-opacity: 1;"/></g></g></g><rect class="legendtoggle" x="0" y="-15.8" width="279.625" height="31.6" style="fill: rgb(0, 0, 0); fill-opacity: 0;"/></g><g class="traces" transform="translate(0,115.60000000000001)" style="opacity: 1;"><text class="legendtext" text-anchor="start" x="40" y="8.58" style="font-family: 'Open Sans', verdana, arial, sans-serif; font-size: 22px; fill: rgb(42, 63, 95); fill-opacity: 1; white-space: pre;">DIAMOnD</text><g class="layers" style="opacity: 1;"><g class="legendfill"/><g class="legendlines"><path class="js-line" d="M5,0h30" style="fill: none; stroke: rgb(255, 165, 0); stroke-opacity: 1; stroke-width: 2px;"/></g><g class="legendsymbols"><g class="legendpoints"><path class="scatterpts" transform="translate(20,0)" d="M3.9,0L0,3.9L-3.9,0L0,-3.9Z" style="opacity: 1; stroke-width: 0px; fill: rgb(255, 165, 0); fill-opacity: 1;"/></g></g></g><rect class="legendtoggle" x="0" y="-15.8" width="279.625" height="31.6" style="fill: rgb(0, 0, 0); fill-opacity: 0;"/></g><g class="traces" transform="translate(0,147.20000000000002)" style="opacity: 1;"><text class="legendtext" text-anchor="start" x="40" y="8.58" style="font-family: 'Open Sans', verdana, arial, sans-serif; font-size: 22px; fill: rgb(42, 63, 95); fill-opacity: 1; white-space: pre;">MCL</text><g class="layers" style="opacity: 1;"><g class="legendfill"/><g class="legendlines"><path class="js-line" d="M5,0h30" style="fill: none; stroke: rgb(165, 42, 42); stroke-opacity: 1; stroke-width: 2px;"/></g><g class="legendsymbols"><g class="legendpoints"><path class="scatterpts" transform="translate(20,0)" d="M0,1.7l1.7,1.7l1.7,-1.7l-1.7,-1.7l1.7,-1.7l-1.7,-1.7l-1.7,1.7l-1.7,-1.7l-1.7,1.7l1.7,1.7l-1.7,1.7l1.7,1.7Z" style="opacity: 1; stroke-width: 0px; fill: rgb(165, 42, 42); fill-opacity: 1;"/></g></g></g><rect class="legendtoggle" x="0" y="-15.8" width="279.625" height="31.6" style="fill: rgb(0, 0, 0); fill-opacity: 0;"/></g><g class="traces" transform="translate(0,178.8)" style="opacity: 1;"><text class="legendtext" text-anchor="start" x="40" y="8.58" style="font-family: 'Open Sans', verdana, arial, sans-serif; font-size: 22px; fill: rgb(42, 63, 95); fill-opacity: 1; white-space: pre;">RWR</text><g class="layers" style="opacity: 1;"><g class="legendfill"/><g class="legendlines"><path class="js-line" d="M5,0h30" style="fill: none; stroke: rgb(128, 0, 128); stroke-opacity: 1; stroke-width: 2px;"/></g><g class="legendsymbols"><g class="legendpoints"><path class="scatterpts" transform="translate(20,0)" d="M-3.46,1.5H3.46L0,-3Z" style="opacity: 1; stroke-width: 0px; fill: rgb(128, 0, 128); fill-opacity: 1;"/></g></g></g><rect class="legendtoggle" x="0" y="-15.8" width="279.625" height="31.6" style="fill: rgb(0, 0, 0); fill-opacity: 0;"/></g><g class="traces" transform="translate(0,210.4)" style="opacity: 1;"><text class="legendtext" text-anchor="start" x="40" y="8.58" style="font-family: 'Open Sans', verdana, arial, sans-serif; font-size: 22px; fill: rgb(42, 63, 95); fill-opacity: 1; white-space: pre;">fFlow</text><g class="layers" style="opacity: 1;"><g class="legendfill"/><g class="legendlines"><path class="js-line" d="M5,0h30" style="fill: none; stroke: rgb(0, 0, 139); stroke-opacity: 1; stroke-width: 2px;"/></g><g class="legendsymbols"><g class="legendpoints"><path class="scatterpts" transform="translate(20,0)" d="M-3.46,-1.5H3.46L0,3Z" style="opacity: 1; stroke-width: 0px; fill: rgb(0, 0, 139); fill-opacity: 1;"/></g></g></g><rect class="legendtoggle" x="0" y="-15.8" width="279.625" height="31.6" style="fill: rgb(0, 0, 0); fill-opacity: 0;"/></g><g class="traces" transform="translate(0,242)" style="opacity: 1;"><text class="legendtext" text-anchor="start" x="40" y="8.58" style="font-family: 'Open Sans', verdana, arial, sans-serif; font-size: 22px; fill: rgb(42, 63, 95); fill-opacity: 1; white-space: pre;">NetCombo</text><g class="layers" style="opacity: 1;"><g class="legendfill"/><g class="legendlines"><path class="js-line" d="M5,0h30" style="fill: none; stroke: rgb(218, 165, 32); stroke-opacity: 1; stroke-width: 2px;"/></g><g class="legendsymbols"><g class="legendpoints"><path class="scatterpts" transform="translate(20,0)" d="M0.94,-1.3H3.99L1.52,0.5L2.47,3.4L0,1.6L-2.47,3.4L-1.52,0.5L-3.99,-1.3H-0.94L0,-4.2Z" style="opacity: 1; stroke-width: 0px; fill: rgb(218, 165, 32); fill-opacity: 1;"/></g></g></g><rect class="legendtoggle" x="0" y="-15.8" width="279.625" height="31.6" style="fill: rgb(0, 0, 0); fill-opacity: 0;"/></g><g class="traces" transform="translate(0,273.59999999999997)" style="opacity: 1;"><text class="legendtext" text-anchor="start" x="40" y="8.58" style="font-family: 'Open Sans', verdana, arial, sans-serif; font-size: 22px; fill: rgb(42, 63, 95); fill-opacity: 1; white-space: pre;">NetRank</text><g class="layers" style="opacity: 1;"><g class="legendfill"/><g class="legendlines"><path class="js-line" d="M5,0h30" style="fill: none; stroke: rgb(255, 0, 255); stroke-opacity: 1; stroke-width: 2px;"/></g><g class="legendsymbols"><g class="legendpoints"><path class="scatterpts" transform="translate(20,0)" d="M-4.2,0A 5.7,5.7 0 0 1 0,4.2A 5.7,5.7 0 0 1 4.2,0A 5.7,5.7 0 0 1 0,-4.2A 5.7,5.7 0 0 1 -4.2,0Z" style="opacity: 1; stroke-width: 0px; fill: rgb(255, 0, 255); fill-opacity: 1;"/></g></g></g><rect class="legendtoggle" x="0" y="-15.8" width="279.625" height="31.6" style="fill: rgb(0, 0, 0); fill-opacity: 0;"/></g></g></g><rect class="scrollbar" rx="20" ry="3" width="0" height="0" x="0" y="0" style="fill: rgb(128, 139, 164); fill-opacity: 1;"/></g><g class="g-gtitle"/><g class="g-xtitle"><text class="xtitle" x="414.5" y="580.7" text-anchor="middle" style="font-family: 'Open Sans', verdana, arial, sans-serif; font-size: 26px; fill: rgb(42, 63, 95); opacity: 1; font-weight: normal; white-space: pre;">Top k genes</text></g><g class="g-ytitle" transform="translate(11.5283203125,0)"><text class="ytitle" transform="rotate(-90,12.471874999999997,310)" x="12.471874999999997" y="310" text-anchor="middle" style="font-family: 'Open Sans', verdana, arial, sans-serif; font-size: 26px; fill: rgb(42, 63, 95); opacity: 1; font-weight: normal; white-space: pre;">F1 score</text></g></g></svg>