<svg class="main-svg" xmlns="http://www.w3.org/2000/svg" xmlns:xlink="http://www.w3.org/1999/xlink" width="1050" height="600" style="" viewBox="0 0 1050 600"><rect x="0" y="0" width="1050" height="600" style="fill: rgb(255, 255, 255); fill-opacity: 1;"/><defs id="defs-a86942"><g class="clips"><clipPath id="clipa86942xyplot" class="plotclip"><rect width="651" height="420"/></clipPath><clipPath class="axesclip" id="clipa86942x"><rect x="89" y="0" width="651" height="600"/></clipPath><clipPath class="axesclip" id="clipa86942y"><rect x="0" y="100" width="1050" height="420"/></clipPath><clipPath class="axesclip" id="clipa86942xy"><rect x="89" y="100" width="651" height="420"/></clipPath></g><g class="gradients"/><g class="patterns"/></defs><g class="bglayer"/><g class="layer-below"><g class="imagelayer"/><g class="shapelayer"/></g><g class="cartesianlayer"><g class="subplot xy"><g class="layer-subplot"><g class="shapelayer"/><g class="imagelayer"/></g><g class="minor-gridlayer"><g class="x"/><g class="y"/></g><g class="gridlayer"><g class="x"><path class="xgrid crisp" transform="translate(125.3,0)" d="M0,100v420" style="stroke: rgb(235, 240, 248); stroke-opacity: 1; stroke-width: 1px;"/><path class="xgrid crisp" transform="translate(183.14,0)" d="M0,100v420" style="stroke: rgb(235, 240, 248); stroke-opacity: 1; stroke-width: 1px;"/><path class="xgrid crisp" transform="translate(240.98,0)" d="M0,100v420" style="stroke: rgb(235, 240, 248); stroke-opacity: 1; stroke-width: 1px;"/><path class="xgrid crisp" transform="translate(298.82,0)" d="M0,100v420" style="stroke: rgb(235, 240, 248); stroke-opacity: 1; stroke-width: 1px;"/><path class="xgrid crisp" transform="translate(356.66,0)" d="M0,100v420" style="stroke: rgb(235, 240, 248); stroke-opacity: 1; stroke-width: 1px;"/><path class="xgrid crisp" transform="translate(414.5,0)" d="M0,100v420" style="stroke: rgb(235, 240, 248); stroke-opacity: 1; stroke-width: 1px;"/><path class="xgrid crisp" transform="translate(472.34,0)" d="M0,100v420" style="stroke: rgb(235, 240, 248); stroke-opacity: 1; stroke-width: 1px;"/><path class="xgrid crisp" transform="translate(530.1800000000001,0)" d="M0,100v420" style="stroke: rgb(235, 240, 248); stroke-opacity: 1; stroke-width: 1px;"/><path class="xgrid crisp" transform="translate(588.02,0)" d="M0,100v420" style="stroke: rgb(235, 240, 248); stroke-opacity: 1; stroke-width: 1px;"/><path class="xgrid crisp" transform="translate(645.86,0)" d="M0,100v420" style="stroke: rgb(235, 240, 248); stroke-opacity: 1; stroke-width: 1px;"/><path class="xgrid crisp" transform="translate(703.7,0)" d="M0,100v420" style="stroke: rgb(235, 240, 248); stroke-opacity: 1; stroke-width: 1px;"/></g><g class="y"><path class="ygrid crisp" transform="translate(0,419.07)" d="M89,0h651" style="stroke: rgb(235, 240, 248); stroke-opacity: 1; stroke-width: 1px;"/><path class="ygrid crisp" transform="translate(0,342.88)" d="M89,0h651" style="stroke: rgb(235, 240, 248); stroke-opacity: 1; stroke-width: 1px;"/><path class="ygrid crisp" transform="translate(0,266.7)" d="M89,0h651" style="stroke: rgb(235, 240, 248); stroke-opacity: 1; stroke-width: 1px;"/><path class="ygrid crisp" transform="translate(0,190.51)" d="M89,0h651" style="stroke: rgb(235, 240, 248); stroke-opacity: 1; stroke-width: 1px;"/><path class="ygrid crisp" transform="translate(0,114.33)" d="M89,0h651" style="stroke: rgb(235, 240, 248); stroke-opacity: 1; stroke-width: 1px;"/></g></g><g class="zerolinelayer"><path class="yzl zl crisp" transform="translate(0,495.25)" d="M89,0h651" style="stroke: rgb(235, 240, 248); stroke-opacity: 1; stroke-width: 2px;"/></g><path class="xlines-below"/><path class="ylines-below"/><g class="overlines-below"/><g class="xaxislayer-below"/><g class="yaxislayer-below"/><g class="overaxes-below"/><g class="plot" transform="translate(89,100)" clip-path="url(#clipa86942xyplot)"><g class="scatterlayer mlayer"><g class="trace scatter tracefc1292" style="stroke-miterlimit: 2; opacity: 1;"><g class="fills"/><g class="errorbars"/><g class="lines"><path class="js-line" d="M36.3,98.43L94.14,139.88L151.98,129.1L209.82,163.69L267.66,104.56L325.5,135.24L383.34,111.84L441.18,189.47L499.02,180.55L556.86,180.81L614.7,190.73" style="vector-effect: none; fill: none; stroke: rgb(135, 206, 235); stroke-opacity: 1; stroke-width: 2px; opacity: 1;"/></g><g class="points"><path class="point" transform="translate(36.3,98.43)" d="M3,0A3,3 0 1,1 0,-3A3,3 0 0,1 3,0Z" style="opacity: 1; stroke-width: 0px; fill: rgb(135, 206, 235); fill-opacity: 1;"/><path class="point" transform="translate(94.14,139.88)" d="M3,0A3,3 0 1,1 0,-3A3,3 0 0,1 3,0Z" style="opacity: 1; stroke-width: 0px; fill: rgb(135, 206, 235); fill-opacity: 1;"/><path class="point" transform="translate(151.98,129.1)" d="M3,0A3,3 0 1,1 0,-3A3,3 0 0,1 3,0Z" style="opacity: 1; stroke-width: 0px; fill: rgb(135, 206, 235); fill-opacity: 1;"/><path class="point" transform="translate(209.82,163.69)" d="M3,0A3,3 0 1,1 0,-3A3,3 0 0,1 3,0Z" style="opacity: 1; stroke-width: 0px; fill: rgb(135, 206, 235); fill-opacity: 1;"/><path class="point" transform="translate(267.66,104.56)" d="M3,0A3,3 0 1,1 0,-3A3,3 0 0,1 3,0Z" style="opacity: 1; stroke-width: 0px; fill: rgb(135, 206, 235); fill-opacity: 1;"/><path class="point" transform="translate(325.5,135.24)" d="M3,0A3,3 0 1,1 0,-3A3,3 0 0,1 3,0Z" style="opacity: 1; stroke-width: 0px; fill: rgb(135, 206, 235); fill-opacity: 1;"/><path class="point" transform="translate(383.34,111.84)" d="M3,0A3,3 0 1,1 0,-3A3,3 0 0,1 3,0Z" style="opacity: 1; stroke-width: 0px; fill: rgb(135, 206, 235); fill-opacity: 1;"/><path class="point" transform="translate(441.18,189.47)" d="M3,0A3,3 0 1,1 0,-3A3,3 0 0,1 3,0Z" style="opacity: 1; stroke-width: 0px; fill: rgb(135, 206, 235); fill-opacity: 1;"/><path class="point" transform="translate(499.02,180.55)" d="M3,0A3,3 0 1,1 0,-3A3,3 0 0,1 3,0Z" style="opacity: 1; stroke-width: 0px; fill: rgb(135, 206, 235); fill-opacity: 1;"/><path class="point" transform="translate(556.86,180.81)" d="M3,0A3,3 0 1,1 0,-3A3,3 0 0,1 3,0Z" style="opacity: 1; stroke-width: 0px; fill: rgb(135, 206, 235); fill-opacity: 1;"/><path class="point" transform="translate(614.7,190.73)" d="M3,0A3,3 0 1,1 0,-3A3,3 0 0,1 3,0Z" style="opacity: 1; stroke-width: 0px; fill: rgb(135, 206, 235); fill-opacity: 1;"/></g><g class="text"/></g><g class="trace scatter trace96729d" style="stroke-miterlimit: 2; opacity: 1;"><g class="fills"/><g class="errorbars"/><g class="lines"><path class="js-line" d="M36.3,98.43L94.14,139.88L151.98,129.1L209.82,163.69L267.66,104.56L325.5,117.9L383.34,111.84L441.18,180.12L499.02,180.55L556.86,180.81L614.7,195.6" style="vector-effect: none; fill: none; stroke: rgb(255, 99, 71); stroke-opacity: 1; stroke-width: 2px; opacity: 1;"/></g><g class="points"><path class="point" transform="translate(36.3,98.43)" d="M3,3H-3V-3H3Z" style="opacity: 1; stroke-width: 0px; fill: rgb(255, 99, 71); fill-opacity: 1;"/><path class="point" transform="translate(94.14,139.88)" d="M3,3H-3V-3H3Z" style="opacity: 1; stroke-width: 0px; fill: rgb(255, 99, 71); fill-opacity: 1;"/><path class="point" transform="translate(151.98,129.1)" d="M3,3H-3V-3H3Z" style="opacity: 1; stroke-width: 0px; fill: rgb(255, 99, 71); fill-opacity: 1;"/><path class="point" transform="translate(209.82,163.69)" d="M3,3H-3V-3H3Z" style="opacity: 1; stroke-width: 0px; fill: rgb(255, 99, 71); fill-opacity: 1;"/><path class="point" transform="translate(267.66,104.56)" d="M3,3H-3V-3H3Z" style="opacity: 1; stroke-width: 0px; fill: rgb(255, 99, 71); fill-opacity: 1;"/><path class="point" transform="translate(325.5,117.9)" d="M3,3H-3V-3H3Z" style="opacity: 1; stroke-width: 0px; fill: rgb(255, 99, 71); fill-opacity: 1;"/><path class="point" transform="translate(383.34,111.84)" d="M3,3H-3V-3H3Z" style="opacity: 1; stroke-width: 0px; fill: rgb(255, 99, 71); fill-opacity: 1;"/><path class="point" transform="translate(441.18,180.12)" d="M3,3H-3V-3H3Z" style="opacity: 1; stroke-width: 0px; fill: rgb(255, 99, 71); fill-opacity: 1;"/><path class="point" transform="translate(499.02,180.55)" d="M3,3H-3V-3H3Z" style="opacity: 1; stroke-width: 0px; fill: rgb(255, 99, 71); fill-opacity: 1;"/><path class="point" transform="translate(556.86,180.81)" d="M3,3H-3V-3H3Z" style="opacity: 1; stroke-width: 0px; fill: rgb(255, 99, 71); fill-opacity: 1;"/><path class="point" transform="translate(614.7,195.6)" d="M3,3H-3V-3H3Z" style="opacity: 1; stroke-width: 0px; fill: rgb(255, 99, 71); fill-opacity: 1;"/></g><g class="text"/></g><g class="trace scatter tracef4780e" style="stroke-miterlimit: 2; opacity: 1;"><g class="fills"/><g class="errorbars"/><g class="lines"><path class="js-line" d="M36.3,197.37L94.14,54.76L151.98,129.1L209.82,24.75L267.66,80.34L325.5,117.9L383.34,138.83L441.18,170.77L499.02,187.7L556.86,192.4L614.7,190.73" style="vector-effect: none; fill: none; stroke: rgb(46, 139, 87); stroke-opacity: 1; stroke-width: 2px; opacity: 1;"/></g><g class="points"><path class="point" transform="translate(36.3,197.37)" d="M3.6,1.2H1.2V3.6H-1.2V1.2H-3.6V-1.2H-1.2V-3.6H1.2V-1.2H3.6Z" style="opacity: 1; stroke-width: 0px; fill: rgb(46, 139, 87); fill-opacity: 1;"/><path class="point" transform="translate(94.14,54.76)" d="M3.6,1.2H1.2V3.6H-1.2V1.2H-3.6V-1.2H-1.2V-3.6H1.2V-1.2H3.6Z" style="opacity: 1; stroke-width: 0px; fill: rgb(46, 139, 87); fill-opacity: 1;"/><path class="point" transform="translate(151.98,129.1)" d="M3.6,1.2H1.2V3.6H-1.2V1.2H-3.6V-1.2H-1.2V-3.6H1.2V-1.2H3.6Z" style="opacity: 1; stroke-width: 0px; fill: rgb(46, 139, 87); fill-opacity: 1;"/><path class="point" transform="translate(209.82,24.75)" d="M3.6,1.2H1.2V3.6H-1.2V1.2H-3.6V-1.2H-1.2V-3.6H1.2V-1.2H3.6Z" style="opacity: 1; stroke-width: 0px; fill: rgb(46, 139, 87); fill-opacity: 1;"/><path class="point" transform="translate(267.66,80.34)" d="M3.6,1.2H1.2V3.6H-1.2V1.2H-3.6V-1.2H-1.2V-3.6H1.2V-1.2H3.6Z" style="opacity: 1; stroke-width: 0px; fill: rgb(46, 139, 87); fill-opacity: 1;"/><path class="point" transform="translate(325.5,117.9)" d="M3.6,1.2H1.2V3.6H-1.2V1.2H-3.6V-1.2H-1.2V-3.6H1.2V-1.2H3.6Z" style="opacity: 1; stroke-width: 0px; fill: rgb(46, 139, 87); fill-opacity: 1;"/><path class="point" transform="translate(383.34,138.83)" d="M3.6,1.2H1.2V3.6H-1.2V1.2H-3.6V-1.2H-1.2V-3.6H1.2V-1.2H3.6Z" style="opacity: 1; stroke-width: 0px; fill: rgb(46, 139, 87); fill-opacity: 1;"/><path class="point" transform="translate(441.18,170.77)" d="M3.6,1.2H1.2V3.6H-1.2V1.2H-3.6V-1.2H-1.2V-3.6H1.2V-1.2H3.6Z" style="opacity: 1; stroke-width: 0px; fill: rgb(46, 139, 87); fill-opacity: 1;"/><path class="point" transform="translate(499.02,187.7)" d="M3.6,1.2H1.2V3.6H-1.2V1.2H-3.6V-1.2H-1.2V-3.6H1.2V-1.2H3.6Z" style="opacity: 1; stroke-width: 0px; fill: rgb(46, 139, 87); fill-opacity: 1;"/><path class="point" transform="translate(556.86,192.4)" d="M3.6,1.2H1.2V3.6H-1.2V1.2H-3.6V-1.2H-1.2V-3.6H1.2V-1.2H3.6Z" style="opacity: 1; stroke-width: 0px; fill: rgb(46, 139, 87); fill-opacity: 1;"/><path class="point" transform="translate(614.7,190.73)" d="M3.6,1.2H1.2V3.6H-1.2V1.2H-3.6V-1.2H-1.2V-3.6H1.2V-1.2H3.6Z" style="opacity: 1; stroke-width: 0px; fill: rgb(46, 139, 87); fill-opacity: 1;"/></g><g class="text"/></g><g class="trace scatter traceec1cca" style="stroke-miterlimit: 2; opacity: 1;"><g class="fills"/><g class="errorbars"/><g class="lines"><path class="js-line" d="M36.3,395.25L151.98,395.25L209.82,256.31L267.66,263.44L325.5,263.44L614.7,263.44" style="vector-effect: none; fill: none; stroke: rgb(255, 165, 0); stroke-opacity: 1; stroke-width: 2px; opacity: 1;"/></g><g class="points"><path class="point" transform="translate(36.3,395.25)" d="M3.9,0L0,3.9L-3.9,0L0,-3.9Z" style="opacity: 1; stroke-width: 0px; fill: rgb(255, 165, 0); fill-opacity: 1;"/><path class="point" transform="translate(94.14,395.25)" d="M3.9,0L0,3.9L-3.9,0L0,-3.9Z" style="opacity: 1; stroke-width: 0px; fill: rgb(255, 165, 0); fill-opacity: 1;"/><path class="point" transform="translate(151.98,395.25)" d="M3.9,0L0,3.9L-3.9,0L0,-3.9Z" style="opacity: 1; stroke-width: 0px; fill: rgb(255, 165, 0); fill-opacity: 1;"/><path class="point" transform="translate(209.82,256.31)" d="M3.9,0L0,3.9L-3.9,0L0,-3.9Z" style="opacity: 1; stroke-width: 0px; fill: rgb(255, 165, 0); fill-opacity: 1;"/><path class="point" transform="translate(267.66,263.44)" d="M3.9,0L0,3.9L-3.9,0L0,-3.9Z" style="opacity: 1; stroke-width: 0px; fill: rgb(255, 165, 0); fill-opacity: 1;"/><path class="point" transform="translate(325.5,263.44)" d="M3.9,0L0,3.9L-3.9,0L0,-3.9Z" style="opacity: 1; stroke-width: 0px; fill: rgb(255, 165, 0); fill-opacity: 1;"/><path class="point" transform="translate(383.34,263.44)" d="M3.9,0L0,3.9L-3.9,0L0,-3.9Z" style="opacity: 1; stroke-width: 0px; fill: rgb(255, 165, 0); fill-opacity: 1;"/><path class="point" transform="translate(441.18,263.44)" d="M3.9,0L0,3.9L-3.9,0L0,-3.9Z" style="opacity: 1; stroke-width: 0px; fill: rgb(255, 165, 0); fill-opacity: 1;"/><path class="point" transform="translate(499.02,263.44)" d="M3.9,0L0,3.9L-3.9,0L0,-3.9Z" style="opacity: 1; stroke-width: 0px; fill: rgb(255, 165, 0); fill-opacity: 1;"/><path class="point" transform="translate(556.86,263.44)" d="M3.9,0L0,3.9L-3.9,0L0,-3.9Z" style="opacity: 1; stroke-width: 0px; fill: rgb(255, 165, 0); fill-opacity: 1;"/><path class="point" transform="translate(614.7,263.44)" d="M3.9,0L0,3.9L-3.9,0L0,-3.9Z" style="opacity: 1; stroke-width: 0px; fill: rgb(255, 165, 0); fill-opacity: 1;"/></g><g class="text"/></g><g class="trace scatter trace872411" style="stroke-miterlimit: 2; opacity: 1;"><g class="fills"/><g class="errorbars"/><g class="lines"><path class="js-line" d="M36.3,395.25L94.14,395.25L151.98,328.71L209.82,348.94L267.66,201.46L325.5,221.91L383.34,233.3L441.18,236.12L499.02,236.12L614.7,236.12" style="vector-effect: none; fill: none; stroke: rgb(165, 42, 42); stroke-opacity: 1; stroke-width: 2px; opacity: 1;"/></g><g class="points"><path class="point" transform="translate(36.3,395.25)" d="M0,1.7l1.7,1.7l1.7,-1.7l-1.7,-1.7l1.7,-1.7l-1.7,-1.7l-1.7,1.7l-1.7,-1.7l-1.7,1.7l1.7,1.7l-1.7,1.7l1.7,1.7Z" style="opacity: 1; stroke-width: 0px; fill: rgb(165, 42, 42); fill-opacity: 1;"/><path class="point" transform="translate(94.14,395.25)" d="M0,1.7l1.7,1.7l1.7,-1.7l-1.7,-1.7l1.7,-1.7l-1.7,-1.7l-1.7,1.7l-1.7,-1.7l-1.7,1.7l1.7,1.7l-1.7,1.7l1.7,1.7Z" style="opacity: 1; stroke-width: 0px; fill: rgb(165, 42, 42); fill-opacity: 1;"/><path class="point" transform="translate(151.98,328.71)" d="M0,1.7l1.7,1.7l1.7,-1.7l-1.7,-1.7l1.7,-1.7l-1.7,-1.7l-1.7,1.7l-1.7,-1.7l-1.7,1.7l1.7,1.7l-1.7,1.7l1.7,1.7Z" style="opacity: 1; stroke-width: 0px; fill: rgb(165, 42, 42); fill-opacity: 1;"/><path class="point" transform="translate(209.82,348.94)" d="M0,1.7l1.7,1.7l1.7,-1.7l-1.7,-1.7l1.7,-1.7l-1.7,-1.7l-1.7,1.7l-1.7,-1.7l-1.7,1.7l1.7,1.7l-1.7,1.7l1.7,1.7Z" style="opacity: 1; stroke-width: 0px; fill: rgb(165, 42, 42); fill-opacity: 1;"/><path class="point" transform="translate(267.66,201.46)" d="M0,1.7l1.7,1.7l1.7,-1.7l-1.7,-1.7l1.7,-1.7l-1.7,-1.7l-1.7,1.7l-1.7,-1.7l-1.7,1.7l1.7,1.7l-1.7,1.7l1.7,1.7Z" style="opacity: 1; stroke-width: 0px; fill: rgb(165, 42, 42); fill-opacity: 1;"/><path class="point" transform="translate(325.5,221.91)" d="M0,1.7l1.7,1.7l1.7,-1.7l-1.7,-1.7l1.7,-1.7l-1.7,-1.7l-1.7,1.7l-1.7,-1.7l-1.7,1.7l1.7,1.7l-1.7,1.7l1.7,1.7Z" style="opacity: 1; stroke-width: 0px; fill: rgb(165, 42, 42); fill-opacity: 1;"/><path class="point" transform="translate(383.34,233.3)" d="M0,1.7l1.7,1.7l1.7,-1.7l-1.7,-1.7l1.7,-1.7l-1.7,-1.7l-1.7,1.7l-1.7,-1.7l-1.7,1.7l1.7,1.7l-1.7,1.7l1.7,1.7Z" style="opacity: 1; stroke-width: 0px; fill: rgb(165, 42, 42); fill-opacity: 1;"/><path class="point" transform="translate(441.18,236.12)" d="M0,1.7l1.7,1.7l1.7,-1.7l-1.7,-1.7l1.7,-1.7l-1.7,-1.7l-1.7,1.7l-1.7,-1.7l-1.7,1.7l1.7,1.7l-1.7,1.7l1.7,1.7Z" style="opacity: 1; stroke-width: 0px; fill: rgb(165, 42, 42); fill-opacity: 1;"/><path class="point" transform="translate(499.02,236.12)" d="M0,1.7l1.7,1.7l1.7,-1.7l-1.7,-1.7l1.7,-1.7l-1.7,-1.7l-1.7,1.7l-1.7,-1.7l-1.7,1.7l1.7,1.7l-1.7,1.7l1.7,1.7Z" style="opacity: 1; stroke-width: 0px; fill: rgb(165, 42, 42); fill-opacity: 1;"/><path class="point" transform="translate(556.86,236.12)" d="M0,1.7l1.7,1.7l1.7,-1.7l-1.7,-1.7l1.7,-1.7l-1.7,-1.7l-1.7,1.7l-1.7,-1.7l-1.7,1.7l1.7,1.7l-1.7,1.7l1.7,1.7Z" style="opacity: 1; stroke-width: 0px; fill: rgb(165, 42, 42); fill-opacity: 1;"/><path class="point" transform="translate(614.7,236.12)" d="M0,1.7l1.7,1.7l1.7,-1.7l-1.7,-1.7l1.7,-1.7l-1.7,-1.7l-1.7,1.7l-1.7,-1.7l-1.7,1.7l1.7,1.7l-1.7,1.7l1.7,1.7Z" style="opacity: 1; stroke-width: 0px; fill: rgb(165, 42, 42); fill-opacity: 1;"/></g><g class="text"/></g><g class="trace scatter traceefee14" style="stroke-miterlimit: 2; opacity: 1;"><g class="fills"/><g class="errorbars"/><g class="lines"><path class="js-line" d="M36.3,395.25L151.98,395.25L209.82,348.94L267.66,274.13L325.5,204.57L383.34,206.31L441.18,226.89L499.02,237.8L556.86,261.95L614.7,268.64" style="vector-effect: none; fill: none; stroke: rgb(128, 0, 128); stroke-opacity: 1; stroke-width: 2px; opacity: 1;"/></g><g class="points"><path class="point" transform="translate(36.3,395.25)" d="M-3.46,1.5H3.46L0,-3Z" style="opacity: 1; stroke-width: 0px; fill: rgb(128, 0, 128); fill-opacity: 1;"/><path class="point" transform="translate(94.14,395.25)" d="M-3.46,1.5H3.46L0,-3Z" style="opacity: 1; stroke-width: 0px; fill: rgb(128, 0, 128); fill-opacity: 1;"/><path class="point" transform="translate(151.98,395.25)" d="M-3.46,1.5H3.46L0,-3Z" style="opacity: 1; stroke-width: 0px; fill: rgb(128, 0, 128); fill-opacity: 1;"/><path class="point" transform="translate(209.82,348.94)" d="M-3.46,1.5H3.46L0,-3Z" style="opacity: 1; stroke-width: 0px; fill: rgb(128, 0, 128); fill-opacity: 1;"/><path class="point" transform="translate(267.66,274.13)" d="M-3.46,1.5H3.46L0,-3Z" style="opacity: 1; stroke-width: 0px; fill: rgb(128, 0, 128); fill-opacity: 1;"/><path class="point" transform="translate(325.5,204.57)" d="M-3.46,1.5H3.46L0,-3Z" style="opacity: 1; stroke-width: 0px; fill: rgb(128, 0, 128); fill-opacity: 1;"/><path class="point" transform="translate(383.34,206.31)" d="M-3.46,1.5H3.46L0,-3Z" style="opacity: 1; stroke-width: 0px; fill: rgb(128, 0, 128); fill-opacity: 1;"/><path class="point" transform="translate(441.18,226.89)" d="M-3.46,1.5H3.46L0,-3Z" style="opacity: 1; stroke-width: 0px; fill: rgb(128, 0, 128); fill-opacity: 1;"/><path class="point" transform="translate(499.02,237.8)" d="M-3.46,1.5H3.46L0,-3Z" style="opacity: 1; stroke-width: 0px; fill: rgb(128, 0, 128); fill-opacity: 1;"/><path class="point" transform="translate(556.86,261.95)" d="M-3.46,1.5H3.46L0,-3Z" style="opacity: 1; stroke-width: 0px; fill: rgb(128, 0, 128); fill-opacity: 1;"/><path class="point" transform="translate(614.7,268.64)" d="M-3.46,1.5H3.46L0,-3Z" style="opacity: 1; stroke-width: 0px; fill: rgb(128, 0, 128); fill-opacity: 1;"/></g><g class="text"/></g><g class="trace scatter tracede27b3" style="stroke-miterlimit: 2; opacity: 1;"><g class="fills"/><g class="errorbars"/><g class="lines"><path class="js-line" d="M36.3,197.37L94.14,139.88L151.98,129.1L209.82,71.06L267.66,153.01L325.5,169.9L383.34,165.82L441.18,189.47L499.02,230.64L556.86,250.36L614.7,258.9" style="vector-effect: none; fill: none; stroke: rgb(0, 0, 139); stroke-opacity: 1; stroke-width: 2px; opacity: 1;"/></g><g class="points"><path class="point" transform="translate(36.3,197.37)" d="M-3.46,-1.5H3.46L0,3Z" style="opacity: 1; stroke-width: 0px; fill: rgb(0, 0, 139); fill-opacity: 1;"/><path class="point" transform="translate(94.14,139.88)" d="M-3.46,-1.5H3.46L0,3Z" style="opacity: 1; stroke-width: 0px; fill: rgb(0, 0, 139); fill-opacity: 1;"/><path class="point" transform="translate(151.98,129.1)" d="M-3.46,-1.5H3.46L0,3Z" style="opacity: 1; stroke-width: 0px; fill: rgb(0, 0, 139); fill-opacity: 1;"/><path class="point" transform="translate(209.82,71.06)" d="M-3.46,-1.5H3.46L0,3Z" style="opacity: 1; stroke-width: 0px; fill: rgb(0, 0, 139); fill-opacity: 1;"/><path class="point" transform="translate(267.66,153.01)" d="M-3.46,-1.5H3.46L0,3Z" style="opacity: 1; stroke-width: 0px; fill: rgb(0, 0, 139); fill-opacity: 1;"/><path class="point" transform="translate(325.5,169.9)" d="M-3.46,-1.5H3.46L0,3Z" style="opacity: 1; stroke-width: 0px; fill: rgb(0, 0, 139); fill-opacity: 1;"/><path class="point" transform="translate(383.34,165.82)" d="M-3.46,-1.5H3.46L0,3Z" style="opacity: 1; stroke-width: 0px; fill: rgb(0, 0, 139); fill-opacity: 1;"/><path class="point" transform="translate(441.18,189.47)" d="M-3.46,-1.5H3.46L0,3Z" style="opacity: 1; stroke-width: 0px; fill: rgb(0, 0, 139); fill-opacity: 1;"/><path class="point" transform="translate(499.02,230.64)" d="M-3.46,-1.5H3.46L0,3Z" style="opacity: 1; stroke-width: 0px; fill: rgb(0, 0, 139); fill-opacity: 1;"/><path class="point" transform="translate(556.86,250.36)" d="M-3.46,-1.5H3.46L0,3Z" style="opacity: 1; stroke-width: 0px; fill: rgb(0, 0, 139); fill-opacity: 1;"/><path class="point" transform="translate(614.7,258.9)" d="M-3.46,-1.5H3.46L0,3Z" style="opacity: 1; stroke-width: 0px; fill: rgb(0, 0, 139); fill-opacity: 1;"/></g><g class="text"/></g><g class="trace scatter trace2f9cd9" style="stroke-miterlimit: 2; opacity: 1;"><g class="fills"/><g class="errorbars"/><g class="lines"><path class="js-line" d="M36.3,197.37L94.14,139.88L151.98,129.1L209.82,163.69L267.66,225.68L325.5,221.91L383.34,179.32L441.18,180.12L499.02,187.7L556.86,186.61L614.7,176.12" style="vector-effect: none; fill: none; stroke: rgb(218, 165, 32); stroke-opacity: 1; stroke-width: 2px; opacity: 1;"/></g><g class="points"><path class="point" transform="translate(36.3,197.37)" d="M0.94,-1.3H3.99L1.52,0.5L2.47,3.4L0,1.6L-2.47,3.4L-1.52,0.5L-3.99,-1.3H-0.94L0,-4.2Z" style="opacity: 1; stroke-width: 0px; fill: rgb(218, 165, 32); fill-opacity: 1;"/><path class="point" transform="translate(94.14,139.88)" d="M0.94,-1.3H3.99L1.52,0.5L2.47,3.4L0,1.6L-2.47,3.4L-1.52,0.5L-3.99,-1.3H-0.94L0,-4.2Z" style="opacity: 1; stroke-width: 0px; fill: rgb(218, 165, 32); fill-opacity: 1;"/><path class="point" transform="translate(151.98,129.1)" d="M0.94,-1.3H3.99L1.52,0.5L2.47,3.4L0,1.6L-2.47,3.4L-1.52,0.5L-3.99,-1.3H-0.94L0,-4.2Z" style="opacity: 1; stroke-width: 0px; fill: rgb(218, 165, 32); fill-opacity: 1;"/><path class="point" transform="translate(209.82,163.69)" d="M0.94,-1.3H3.99L1.52,0.5L2.47,3.4L0,1.6L-2.47,3.4L-1.52,0.5L-3.99,-1.3H-0.94L0,-4.2Z" style="opacity: 1; stroke-width: 0px; fill: rgb(218, 165, 32); fill-opacity: 1;"/><path class="point" transform="translate(267.66,225.68)" d="M0.94,-1.3H3.99L1.52,0.5L2.47,3.4L0,1.6L-2.47,3.4L-1.52,0.5L-3.99,-1.3H-0.94L0,-4.2Z" style="opacity: 1; stroke-width: 0px; fill: rgb(218, 165, 32); fill-opacity: 1;"/><path class="point" transform="translate(325.5,221.91)" d="M0.94,-1.3H3.99L1.52,0.5L2.47,3.4L0,1.6L-2.47,3.4L-1.52,0.5L-3.99,-1.3H-0.94L0,-4.2Z" style="opacity: 1; stroke-width: 0px; fill: rgb(218, 165, 32); fill-opacity: 1;"/><path class="point" transform="translate(383.34,179.32)" d="M0.94,-1.3H3.99L1.52,0.5L2.47,3.4L0,1.6L-2.47,3.4L-1.52,0.5L-3.99,-1.3H-0.94L0,-4.2Z" style="opacity: 1; stroke-width: 0px; fill: rgb(218, 165, 32); fill-opacity: 1;"/><path class="point" transform="translate(441.18,180.12)" d="M0.94,-1.3H3.99L1.52,0.5L2.47,3.4L0,1.6L-2.47,3.4L-1.52,0.5L-3.99,-1.3H-0.94L0,-4.2Z" style="opacity: 1; stroke-width: 0px; fill: rgb(218, 165, 32); fill-opacity: 1;"/><path class="point" transform="translate(499.02,187.7)" d="M0.94,-1.3H3.99L1.52,0.5L2.47,3.4L0,1.6L-2.47,3.4L-1.52,0.5L-3.99,-1.3H-0.94L0,-4.2Z" style="opacity: 1; stroke-width: 0px; fill: rgb(218, 165, 32); fill-opacity: 1;"/><path class="point" transform="translate(556.86,186.61)" d="M0.94,-1.3H3.99L1.52,0.5L2.47,3.4L0,1.6L-2.47,3.4L-1.52,0.5L-3.99,-1.3H-0.94L0,-4.2Z" style="opacity: 1; stroke-width: 0px; fill: rgb(218, 165, 32); fill-opacity: 1;"/><path class="point" transform="translate(614.7,176.12)" d="M0.94,-1.3H3.99L1.52,0.5L2.47,3.4L0,1.6L-2.47,3.4L-1.52,0.5L-3.99,-1.3H-0.94L0,-4.2Z" style="opacity: 1; stroke-width: 0px; fill: rgb(218, 165, 32); fill-opacity: 1;"/></g><g class="text"/></g><g class="trace scatter traced4a83b" style="stroke-miterlimit: 2; opacity: 1;"><g class="fills"/><g class="errorbars"/><g class="lines"><path class="js-line" d="M36.3,197.37L94.14,54.76L151.98,62.57L209.82,24.75L267.66,128.79L325.5,169.9L383.34,165.82L441.18,152.06L499.02,159.08L556.86,186.61L614.7,215.08" style="vector-effect: none; fill: none; stroke: rgb(255, 0, 255); stroke-opacity: 1; stroke-width: 2px; opacity: 1;"/></g><g class="points"><path class="point" transform="translate(36.3,197.37)" d="M-4.2,0A 5.7,5.7 0 0 1 0,4.2A 5.7,5.7 0 0 1 4.2,0A 5.7,5.7 0 0 1 0,-4.2A 5.7,5.7 0 0 1 -4.2,0Z" style="opacity: 1; stroke-width: 0px; fill: rgb(255, 0, 255); fill-opacity: 1;"/><path class="point" transform="translate(94.14,54.76)" d="M-4.2,0A 5.7,5.7 0 0 1 0,4.2A 5.7,5.7 0 0 1 4.2,0A 5.7,5.7 0 0 1 0,-4.2A 5.7,5.7 0 0 1 -4.2,0Z" style="opacity: 1; stroke-width: 0px; fill: rgb(255, 0, 255); fill-opacity: 1;"/><path class="point" transform="translate(151.98,62.57)" d="M-4.2,0A 5.7,5.7 0 0 1 0,4.2A 5.7,5.7 0 0 1 4.2,0A 5.7,5.7 0 0 1 0,-4.2A 5.7,5.7 0 0 1 -4.2,0Z" style="opacity: 1; stroke-width: 0px; fill: rgb(255, 0, 255); fill-opacity: 1;"/><path class="point" transform="translate(209.82,24.75)" d="M-4.2,0A 5.7,5.7 0 0 1 0,4.2A 5.7,5.7 0 0 1 4.2,0A 5.7,5.7 0 0 1 0,-4.2A 5.7,5.7 0 0 1 -4.2,0Z" style="opacity: 1; stroke-width: 0px; fill: rgb(255, 0, 255); fill-opacity: 1;"/><path class="point" transform="translate(267.66,128.79)" d="M-4.2,0A 5.7,5.7 0 0 1 0,4.2A 5.7,5.7 0 0 1 4.2,0A 5.7,5.7 0 0 1 0,-4.2A 5.7,5.7 0 0 1 -4.2,0Z" style="opacity: 1; stroke-width: 0px; fill: rgb(255, 0, 255); fill-opacity: 1;"/><path class="point" transform="translate(325.5,169.9)" d="M-4.2,0A 5.7,5.7 0 0 1 0,4.2A 5.7,5.7 0 0 1 4.2,0A 5.7,5.7 0 0 1 0,-4.2A 5.7,5.7 0 0 1 -4.2,0Z" style="opacity: 1; stroke-width: 0px; fill: rgb(255, 0, 255); fill-opacity: 1;"/><path class="point" transform="translate(383.34,165.82)" d="M-4.2,0A 5.7,5.7 0 0 1 0,4.2A 5.7,5.7 0 0 1 4.2,0A 5.7,5.7 0 0 1 0,-4.2A 5.7,5.7 0 0 1 -4.2,0Z" style="opacity: 1; stroke-width: 0px; fill: rgb(255, 0, 255); fill-opacity: 1;"/><path class="point" transform="translate(441.18,152.06)" d="M-4.2,0A 5.7,5.7 0 0 1 0,4.2A 5.7,5.7 0 0 1 4.2,0A 5.7,5.7 0 0 1 0,-4.2A 5.7,5.7 0 0 1 -4.2,0Z" style="opacity: 1; stroke-width: 0px; fill: rgb(255, 0, 255); fill-opacity: 1;"/><path class="point" transform="translate(499.02,159.08)" d="M-4.2,0A 5.7,5.7 0 0 1 0,4.2A 5.7,5.7 0 0 1 4.2,0A 5.7,5.7 0 0 1 0,-4.2A 5.7,5.7 0 0 1 -4.2,0Z" style="opacity: 1; stroke-width: 0px; fill: rgb(255, 0, 255); fill-opacity: 1;"/><path class="point" transform="translate(556.86,186.61)" d="M-4.2,0A 5.7,5.7 0 0 1 0,4.2A 5.7,5.7 0 0 1 4.2,0A 5.7,5.7 0 0 1 0,-4.2A 5.7,5.7 0 0 1 -4.2,0Z" style="opacity: 1; stroke-width: 0px; fill: rgb(255, 0, 255); fill-opacity: 1;"/><path class="point" transform="translate(614.7,215.08)" d="M-4.2,0A 5.7,5.7 0 0 1 0,4.2A 5.7,5.7 0 0 1 4.2,0A 5.7,5.7 0 0 1 0,-4.2A 5.7,5.7 0 0 1 -4.2,0Z" style="opacity: 1; stroke-width: 0px; fill: rgb(255, 0, 255); fill-opacity: 1;"/></g><g class="text"/></g></g></g><g class="overplot"/><path class="xlines-above crisp" d="M0,0" style="fill: none;"/><path class="ylines-above crisp" d="M0,0" style="fill: none;"/><g class="overlines-above"/><g class="xaxislayer-above"><g class="xtick"><text text-anchor="middle" x="0" y="543" transform="translate(125.3,0)" style="font-family: 'Open Sans', verdana, arial, sans-serif; font-size: 22px; fill: rgb(42, 63, 95); fill-opacity: 1; white-space: pre; opacity: 1;">25</text></g><g class="xtick"><text text-anchor="middle" x="0" y="543" transform="translate(183.14,0)" style="font-family: 'Open Sans', verdana, arial, sans-serif; font-size: 22px; fill: rgb(42, 63, 95); fill-opacity: 1; white-space: pre; opacity: 1;">50</text></g><g class="xtick"><text text-anchor="middle" x="0" y="543" transform="translate(240.98,0)" style="font-family: 'Open Sans', verdana, arial, sans-serif; font-size: 22px; fill: rgb(42, 63, 95); fill-opacity: 1; white-space: pre; opacity: 1;">100</text></g><g class="xtick"><text text-anchor="middle" x="0" y="543" transform="translate(298.82,0)" style="font-family: 'Open Sans', verdana, arial, sans-serif; font-size: 22px; fill: rgb(42, 63, 95); fill-opacity: 1; white-space: pre; opacity: 1;">200</text></g><g class="xtick"><text text-anchor="middle" x="0" y="543" transform="translate(356.66,0)" style="font-family: 'Open Sans', verdana, arial, sans-serif; font-size: 22px; fill: rgb(42, 63, 95); fill-opacity: 1; white-space: pre; opacity: 1;">500</text></g><g class="xtick"><text text-anchor="middle" x="0" y="543" transform="translate(414.5,0)" style="font-family: 'Open Sans', verdana, arial, sans-serif; font-size: 22px; fill: rgb(42, 63, 95); fill-opacity: 1; white-space: pre; opacity: 1;">750</text></g><g class="xtick"><text text-anchor="middle" x="0" y="543" transform="translate(472.34,0)" style="font-family: 'Open Sans', verdana, arial, sans-serif; font-size: 22px; fill: rgb(42, 63, 95); fill-opacity: 1; white-space: pre; opacity: 1;">1000</text></g><g class="xtick"><text text-anchor="middle" x="0" y="543" transform="translate(530.1800000000001,0)" style="font-family: 'Open Sans', verdana, arial, sans-serif; font-size: 22px; fill: rgb(42, 63, 95); fill-opacity: 1; white-space: pre; opacity: 1;">1500</text></g><g class="xtick"><text text-anchor="middle" x="0" y="543" transform="translate(588.02,0)" style="font-family: 'Open Sans', verdana, arial, sans-serif; font-size: 22px; fill: rgb(42, 63, 95); fill-opacity: 1; white-space: pre; opacity: 1;">2000</text></g><g class="xtick"><text text-anchor="middle" x="0" y="543" transform="translate(645.86,0)" style="font-family: 'Open Sans', verdana, arial, sans-serif; font-size: 22px; fill: rgb(42, 63, 95); fill-opacity: 1; white-space: pre; opacity: 1;">2500</text></g><g class="xtick"><text text-anchor="middle" x="0" y="543" transform="translate(703.7,0)" style="font-family: 'Open Sans', verdana, arial, sans-serif; font-size: 22px; fill: rgb(42, 63, 95); fill-opacity: 1; white-space: pre; opacity: 1;">3000</text></g></g><g class="yaxislayer-above"><g class="ytick"><text text-anchor="end" x="88" y="7.699999999999999" transform="translate(0,495.25)" style="font-family: 'Open Sans', verdana, arial, sans-serif; font-size: 22px; fill: rgb(42, 63, 95); fill-opacity: 1; white-space: pre; opacity: 1;">0</text></g><g class="ytick"><text text-anchor="end" x="88" y="7.699999999999999" style="font-family: 'Open Sans', verdana, arial, sans-serif; font-size: 22px; fill: rgb(42, 63, 95); fill-opacity: 1; white-space: pre; opacity: 1;" transform="translate(0,419.07)">0.01</text></g><g class="ytick"><text text-anchor="end" x="88" y="7.699999999999999" style="font-family: 'Open Sans', verdana, arial, sans-serif; font-size: 22px; fill: rgb(42, 63, 95); fill-opacity: 1; white-space: pre; opacity: 1;" transform="translate(0,342.88)">0.02</text></g><g class="ytick"><text text-anchor="end" x="88" y="7.699999999999999" style="font-family: 'Open Sans', verdana, arial, sans-serif; font-size: 22px; fill: rgb(42, 63, 95); fill-opacity: 1; white-space: pre; opacity: 1;" transform="translate(0,266.7)">0.03</text></g><g class="ytick"><text text-anchor="end" x="88" y="7.699999999999999" style="font-family: 'Open Sans', verdana, arial, sans-serif; font-size: 22px; fill: rgb(42, 63, 95); fill-opacity: 1; white-space: pre; opacity: 1;" transform="translate(0,190.51)">0.04</text></g><g class="ytick"><text text-anchor="end" x="88" y="7.699999999999999" style="font-family: 'Open Sans', verdana, arial, sans-serif; font-size: 22px; fill: rgb(42, 63, 95); fill-opacity: 1; white-space: pre; opacity: 1;" transform="translate(0,114.33)">0.05</text></g></g><g class="overaxes-above"/></g></g><g class="polarlayer"/><g class="smithlayer"/><g class="ternarylayer"/><g class="geolayer"/><g class="funnelarealayer"/><g class="pielayer"/><g class="iciclelayer"/><g class="treemaplayer"/><g class="sunburstlayer"/><g class="glimages"/><defs id="topdefs-a86942"><g class="clips"/><clipPath id="legenda86942"><rect width="285" height="295" x="0" y="0"/></clipPath></defs><g class="layer-above"><g class="imagelayer"/><g class="shapelayer"/></g><g class="infolayer"><g class="legend" pointer-events="all" transform="translate(753.02,100)"><rect class="bg" shape-rendering="crispEdges" width="285" height="295" x="0" y="0" style="stroke: rgb(68, 68, 68); stroke-opacity: 1; fill: rgb(255, 255, 255); fill-opacity: 1; stroke-width: 0px;"/><g class="scrollbox" transform="" clip-path="url(#legenda86942)"><g class="groups"><g class="traces" transform="translate(0,20.8)" style="opacity: 1;"><text class="legendtext" text-anchor="start" x="40" y="8.58" style="font-family: 'Open Sans', verdana, arial, sans-serif; font-size: 22px; fill: rgb(42, 63, 95); fill-opacity: 1; white-space: pre;">XGDAG - GNNExplainer</text><g class="layers" style="opacity: 1;"><g class="legendfill"/><g class="legendlines"><path class="js-line" d="M5,0h30" style="fill: none; stroke: rgb(135, 206, 235); stroke-opacity: 1; stroke-width: 2px;"/></g><g class="legendsymbols"><g class="legendpoints"><path class="scatterpts" transform="translate(20,0)" d="M3,0A3,3 0 1,1 0,-3A3,3 0 0,1 3,0Z" style="opacity: 1; stroke-width: 0px; fill: rgb(135, 206, 235); fill-opacity: 1;"/></g></g></g><rect class="legendtoggle" x="0" y="-15.8" width="279.625" height="31.6" style="fill: rgb(0, 0, 0); fill-opacity: 0;"/></g><g class="traces" transform="translate(0,52.400000000000006)" style="opacity: 1;"><text class="legendtext" text-anchor="start" x="40" y="8.58" style="font-family: 'Open Sans', verdana, arial, sans-serif; font-size: 22px; fill: rgb(42, 63, 95); fill-opacity: 1; white-space: pre;">XGDAG - GraphSVX</text><g class="layers" style="opacity: 1;"><g class="legendfill"/><g class="legendlines"><path class="js-line" d="M5,0h30" style="fill: none; stroke: rgb(255, 99, 71); stroke-opacity: 1; stroke-width: 2px;"/></g><g class="legendsymbols"><g class="legendpoints"><path class="scatterpts" transform="translate(20,0)" d="M3,3H-3V-3H3Z" style="opacity: 1; stroke-width: 0px; fill: rgb(255, 99, 71); fill-opacity: 1;"/></g></g></g><rect class="legendtoggle" x="0" y="-15.8" width="279.625" height="31.6" style="fill: rgb(0, 0, 0); fill-opacity: 0;"/></g><g class="traces" transform="translate(0,84)" style="opacity: 1;"><text class="legendtext" text-anchor="start" x="40" y="8.58" style="font-family: 'Open Sans', verdana, arial, sans-serif; font-size: 22px; fill: rgb(42, 63, 95); fill-opacity: 1; white-space: pre;">NIAPU</text><g class="layers" style="opacity: 1;"><g class="legendfill"/><g class="legendlines"><path class="js-line" d="M5,0h30" style="fill: none; stroke: rgb(46, 139, 87); stroke-opacity: 1; stroke-width: 2px;"/></g><g class="legendsymbols"><g class="legendpoints"><path class="scatterpts" transform="translate(20,0)" d="M3.6,1.2H1.2V3.6H-1.2V1.2H-3.6V-1.2H-1.2V-3.6H1.2V-1.2H3.6Z" style="opacity: 1; stroke-width: 0px; fill: rgb(46, 139, 87); fill-opacity: 1;"/></g></g></g><rect class="legendtoggle" x="0" y="-15.8" width="279.625" height="31.6" style="fill: rgb(0, 0, 0); fill-opacity: 0;"/></g><g class="traces" transform="translate(0,115.60000000000001)" style="opacity: 1;"><text class="legendtext" text-anchor="start" x="40" y="8.58" style="font-family: 'Open Sans', verdana, arial, sans-serif; font-size: 22px; fill: rgb(42, 63, 95); fill-opacity: 1; white-space: pre;">DIAMOnD</text><g class="layers" style="opacity: 1;"><g class="legendfill"/><g class="legendlines"><path class="js-line" d="M5,0h30" style="fill: none; stroke: rgb(255, 165, 0); stroke-opacity: 1; stroke-width: 2px;"/></g><g class="legendsymbols"><g class="legendpoints"><path class="scatterpts" transform="translate(20,0)" d="M3.9,0L0,3.9L-3.9,0L0,-3.9Z" style="opacity: 1; stroke-width: 0px; fill: rgb(255, 165, 0); fill-opacity: 1;"/></g></g></g><rect class="legendtoggle" x="0" y="-15.8" width="279.625" height="31.6" style="fill: rgb(0, 0, 0); fill-opacity: 0;"/></g><g class="traces" transform="translate(0,147.20000000000002)" style="opacity: 1;"><text class="legendtext" text-anchor="start" x="40" y="8.58" style="font-family: 'Open Sans', verdana, arial, sans-serif; font-size: 22px; fill: rgb(42, 63, 95); fill-opacity: 1; white-space: pre;">MCL</text><g class="layers" style="opacity: 1;"><g class="legendfill"/><g class="legendlines"><path class="js-line" d="M5,0h30" style="fill: none; stroke: rgb(165, 42, 42); stroke-opacity: 1; stroke-width: 2px;"/></g><g class="legendsymbols"><g class="legendpoints"><path class="scatterpts" transform="translate(20,0)" d="M0,1.7l1.7,1.7l1.7,-1.7l-1.7,-1.7l1.7,-1.7l-1.7,-1.7l-1.7,1.7l-1.7,-1.7l-1.7,1.7l1.7,1.7l-1.7,1.7l1.7,1.7Z" style="opacity: 1; stroke-width: 0px; fill: rgb(165, 42, 42); fill-opacity: 1;"/></g></g></g><rect class="legendtoggle" x="0" y="-15.8" width="279.625" height="31.6" style="fill: rgb(0, 0, 0); fill-opacity: 0;"/></g><g class="traces" transform="translate(0,178.8)" style="opacity: 1;"><text class="legendtext" text-anchor="start" x="40" y="8.58" style="font-family: 'Open Sans', verdana, arial, sans-serif; font-size: 22px; fill: rgb(42, 63, 95); fill-opacity: 1; white-space: pre;">RWR</text><g class="layers" style="opacity: 1;"><g class="legendfill"/><g class="legendlines"><path class="js-line" d="M5,0h30" style="fill: none; stroke: rgb(128, 0, 128); stroke-opacity: 1; stroke-width: 2px;"/></g><g class="legendsymbols"><g class="legendpoints"><path class="scatterpts" transform="translate(20,0)" d="M-3.46,1.5H3.46L0,-3Z" style="opacity: 1; stroke-width: 0px; fill: rgb(128, 0, 128); fill-opacity: 1;"/></g></g></g><rect class="legendtoggle" x="0" y="-15.8" width="279.625" height="31.6" style="fill: rgb(0, 0, 0); fill-opacity: 0;"/></g><g class="traces" transform="translate(0,210.4)" style="opacity: 1;"><text class="legendtext" text-anchor="start" x="40" y="8.58" style="font-family: 'Open Sans', verdana, arial, sans-serif; font-size: 22px; fill: rgb(42, 63, 95); fill-opacity: 1; white-space: pre;">fFlow</text><g class="layers" style="opacity: 1;"><g class="legendfill"/><g class="legendlines"><path class="js-line" d="M5,0h30" style="fill: none; stroke: rgb(0, 0, 139); stroke-opacity: 1; stroke-width: 2px;"/></g><g class="legendsymbols"><g class="legendpoints"><path class="scatterpts" transform="translate(20,0)" d="M-3.46,-1.5H3.46L0,3Z" style="opacity: 1; stroke-width: 0px; fill: rgb(0, 0, 139); fill-opacity: 1;"/></g></g></g><rect class="legendtoggle" x="0" y="-15.8" width="279.625" height="31.6" style="fill: rgb(0, 0, 0); fill-opacity: 0;"/></g><g class="traces" transform="translate(0,242)" style="opacity: 1;"><text class="legendtext" text-anchor="start" x="40" y="8.58" style="font-family: 'Open Sans', verdana, arial, sans-serif; font-size: 22px; fill: rgb(42, 63, 95); fill-opacity: 1; white-space: pre;">NetCombo</text><g class="layers" style="opacity: 1;"><g class="legendfill"/><g class="legendlines"><path class="js-line" d="M5,0h30" style="fill: none; stroke: rgb(218, 165, 32); stroke-opacity: 1; stroke-width: 2px;"/></g><g class="legendsymbols"><g class="legendpoints"><path class="scatterpts" transform="translate(20,0)" d="M0.94,-1.3H3.99L1.52,0.5L2.47,3.4L0,1.6L-2.47,3.4L-1.52,0.5L-3.99,-1.3H-0.94L0,-4.2Z" style="opacity: 1; stroke-width: 0px; fill: rgb(218, 165, 32); fill-opacity: 1;"/></g></g></g><rect class="legendtoggle" x="0" y="-15.8" width="279.625" height="31.6" style="fill: rgb(0, 0, 0); fill-opacity: 0;"/></g><g class="traces" transform="translate(0,273.59999999999997)" style="opacity: 1;"><text class="legendtext" text-anchor="start" x="40" y="8.58" style="font-family: 'Open Sans', verdana, arial, sans-serif; font-size: 22px; fill: rgb(42, 63, 95); fill-opacity: 1; white-space: pre;">NetRank</text><g class="layers" style="opacity: 1;"><g class="legendfill"/><g class="legendlines"><path class="js-line" d="M5,0h30" style="fill: none; stroke: rgb(255, 0, 255); stroke-opacity: 1; stroke-width: 2px;"/></g><g class="legendsymbols"><g class="legendpoints"><path class="scatterpts" transform="translate(20,0)" d="M-4.2,0A 5.7,5.7 0 0 1 0,4.2A 5.7,5.7 0 0 1 4.2,0A 5.7,5.7 0 0 1 0,-4.2A 5.7,5.7 0 0 1 -4.2,0Z" style="opacity: 1; stroke-width: 0px; fill: rgb(255, 0, 255); fill-opacity: 1;"/></g></g></g><rect class="legendtoggle" x="0" y="-15.8" width="279.625" height="31.6" style="fill: rgb(0, 0, 0); fill-opacity: 0;"/></g></g></g><rect class="scrollbar" rx="20" ry="3" width="0" height="0" x="0" y="0" style="fill: rgb(128, 139, 164); fill-opacity: 1;"/></g><g class="g-gtitle"/><g class="g-xtitle"><text class="xtitle" x="414.5" y="580.7" text-anchor="middle" style="font-family: 'Open Sans', verdana, arial, sans-serif; font-size: 26px; fill: rgb(42, 63, 95); opacity: 1; font-weight: normal; white-space: pre;">Top k genes</text></g><g class="g-ytitle" transform="translate(11.5283203125,0)"><text class="ytitle" transform="rotate(-90,12.471874999999997,310)" x="12.471874999999997" y="310" text-anchor="middle" style="font-family: 'Open Sans', verdana, arial, sans-serif; font-size: 26px; fill: rgb(42, 63, 95); opacity: 1; font-weight: normal; white-space: pre;">F1 score</text></g></g></svg>