<svg class="main-svg" xmlns="http://www.w3.org/2000/svg" xmlns:xlink="http://www.w3.org/1999/xlink" width="1050" height="600" style="" viewBox="0 0 1050 600"><rect x="0" y="0" width="1050" height="600" style="fill: rgb(255, 255, 255); fill-opacity: 1;"/><defs id="defs-5fde55"><g class="clips"><clipPath id="clip5fde55xyplot" class="plotclip"><rect width="651" height="420"/></clipPath><clipPath class="axesclip" id="clip5fde55x"><rect x="89" y="0" width="651" height="600"/></clipPath><clipPath class="axesclip" id="clip5fde55y"><rect x="0" y="100" width="1050" height="420"/></clipPath><clipPath class="axesclip" id="clip5fde55xy"><rect x="89" y="100" width="651" height="420"/></clipPath></g><g class="gradients"/><g class="patterns"/></defs><g class="bglayer"/><g class="layer-below"><g class="imagelayer"/><g class="shapelayer"/></g><g class="cartesianlayer"><g class="subplot xy"><g class="layer-subplot"><g class="shapelayer"/><g class="imagelayer"/></g><g class="minor-gridlayer"><g class="x"/><g class="y"/></g><g class="gridlayer"><g class="x"><path class="xgrid crisp" transform="translate(125.3,0)" d="M0,100v420" style="stroke: rgb(235, 240, 248); stroke-opacity: 1; stroke-width: 1px;"/><path class="xgrid crisp" transform="translate(183.14,0)" d="M0,100v420" style="stroke: rgb(235, 240, 248); stroke-opacity: 1; stroke-width: 1px;"/><path class="xgrid crisp" transform="translate(240.98,0)" d="M0,100v420" style="stroke: rgb(235, 240, 248); stroke-opacity: 1; stroke-width: 1px;"/><path class="xgrid crisp" transform="translate(298.82,0)" d="M0,100v420" style="stroke: rgb(235, 240, 248); stroke-opacity: 1; stroke-width: 1px;"/><path class="xgrid crisp" transform="translate(356.66,0)" d="M0,100v420" style="stroke: rgb(235, 240, 248); stroke-opacity: 1; stroke-width: 1px;"/><path class="xgrid crisp" transform="translate(414.5,0)" d="M0,100v420" style="stroke: rgb(235, 240, 248); stroke-opacity: 1; stroke-width: 1px;"/><path class="xgrid crisp" transform="translate(472.34,0)" d="M0,100v420" style="stroke: rgb(235, 240, 248); stroke-opacity: 1; stroke-width: 1px;"/><path class="xgrid crisp" transform="translate(530.1800000000001,0)" d="M0,100v420" style="stroke: rgb(235, 240, 248); stroke-opacity: 1; stroke-width: 1px;"/><path class="xgrid crisp" transform="translate(588.02,0)" d="M0,100v420" style="stroke: rgb(235, 240, 248); stroke-opacity: 1; stroke-width: 1px;"/><path class="xgrid crisp" transform="translate(645.86,0)" d="M0,100v420" style="stroke: rgb(235, 240, 248); stroke-opacity: 1; stroke-width: 1px;"/><path class="xgrid crisp" transform="translate(703.7,0)" d="M0,100v420" style="stroke: rgb(235, 240, 248); stroke-opacity: 1; stroke-width: 1px;"/></g><g class="y"><path class="ygrid crisp" transform="translate(0,430.22)" d="M89,0h651" style="stroke: rgb(235, 240, 248); stroke-opacity: 1; stroke-width: 1px;"/><path class="ygrid crisp" transform="translate(0,365.19)" d="M89,0h651" style="stroke: rgb(235, 240, 248); stroke-opacity: 1; stroke-width: 1px;"/><path class="ygrid crisp" transform="translate(0,300.15)" d="M89,0h651" style="stroke: rgb(235, 240, 248); stroke-opacity: 1; stroke-width: 1px;"/><path class="ygrid crisp" transform="translate(0,235.12)" d="M89,0h651" style="stroke: rgb(235, 240, 248); stroke-opacity: 1; stroke-width: 1px;"/><path class="ygrid crisp" transform="translate(0,170.09)" d="M89,0h651" style="stroke: rgb(235, 240, 248); stroke-opacity: 1; stroke-width: 1px;"/><path class="ygrid crisp" transform="translate(0,105.06)" d="M89,0h651" style="stroke: rgb(235, 240, 248); stroke-opacity: 1; stroke-width: 1px;"/></g></g><g class="zerolinelayer"><path class="yzl zl crisp" transform="translate(0,495.25)" d="M89,0h651" style="stroke: rgb(235, 240, 248); stroke-opacity: 1; stroke-width: 2px;"/></g><path class="xlines-below"/><path class="ylines-below"/><g class="overlines-below"/><g class="xaxislayer-below"/><g class="yaxislayer-below"/><g class="overaxes-below"/><g class="plot" transform="translate(89,100)" clip-path="url(#clip5fde55xyplot)"><g class="scatterlayer mlayer"><g class="trace scatter trace854867" style="stroke-miterlimit: 2; opacity: 1;"><g class="fills"/><g class="errorbars"/><g class="lines"><path class="js-line" d="M36.3,309.96L94.14,237.6L151.98,121.43L209.82,151.38L267.66,95.1L325.5,117.44L383.34,120.89L441.18,146.81L499.02,149.95L556.86,156.64L614.7,157.33" style="vector-effect: none; fill: none; stroke: rgb(135, 206, 235); stroke-opacity: 1; stroke-dasharray: 9px, 9px; stroke-width: 2px; opacity: 1;"/></g><g class="points"><path class="point" transform="translate(36.3,309.96)" d="M3,0A3,3 0 1,1 0,-3A3,3 0 0,1 3,0Z" style="opacity: 1; stroke-width: 0px; fill: rgb(135, 206, 235); fill-opacity: 1;"/><path class="point" transform="translate(94.14,237.6)" d="M3,0A3,3 0 1,1 0,-3A3,3 0 0,1 3,0Z" style="opacity: 1; stroke-width: 0px; fill: rgb(135, 206, 235); fill-opacity: 1;"/><path class="point" transform="translate(151.98,121.43)" d="M3,0A3,3 0 1,1 0,-3A3,3 0 0,1 3,0Z" style="opacity: 1; stroke-width: 0px; fill: rgb(135, 206, 235); fill-opacity: 1;"/><path class="point" transform="translate(209.82,151.38)" d="M3,0A3,3 0 1,1 0,-3A3,3 0 0,1 3,0Z" style="opacity: 1; stroke-width: 0px; fill: rgb(135, 206, 235); fill-opacity: 1;"/><path class="point" transform="translate(267.66,95.1)" d="M3,0A3,3 0 1,1 0,-3A3,3 0 0,1 3,0Z" style="opacity: 1; stroke-width: 0px; fill: rgb(135, 206, 235); fill-opacity: 1;"/><path class="point" transform="translate(325.5,117.44)" d="M3,0A3,3 0 1,1 0,-3A3,3 0 0,1 3,0Z" style="opacity: 1; stroke-width: 0px; fill: rgb(135, 206, 235); fill-opacity: 1;"/><path class="point" transform="translate(383.34,120.89)" d="M3,0A3,3 0 1,1 0,-3A3,3 0 0,1 3,0Z" style="opacity: 1; stroke-width: 0px; fill: rgb(135, 206, 235); fill-opacity: 1;"/><path class="point" transform="translate(441.18,146.81)" d="M3,0A3,3 0 1,1 0,-3A3,3 0 0,1 3,0Z" style="opacity: 1; stroke-width: 0px; fill: rgb(135, 206, 235); fill-opacity: 1;"/><path class="point" transform="translate(499.02,149.95)" d="M3,0A3,3 0 1,1 0,-3A3,3 0 0,1 3,0Z" style="opacity: 1; stroke-width: 0px; fill: rgb(135, 206, 235); fill-opacity: 1;"/><path class="point" transform="translate(556.86,156.64)" d="M3,0A3,3 0 1,1 0,-3A3,3 0 0,1 3,0Z" style="opacity: 1; stroke-width: 0px; fill: rgb(135, 206, 235); fill-opacity: 1;"/><path class="point" transform="translate(614.7,157.33)" d="M3,0A3,3 0 1,1 0,-3A3,3 0 0,1 3,0Z" style="opacity: 1; stroke-width: 0px; fill: rgb(135, 206, 235); fill-opacity: 1;"/></g><g class="text"/></g><g class="trace scatter traceb17f21" style="stroke-miterlimit: 2; opacity: 1;"><g class="fills"/><g class="errorbars"/><g class="lines"><path class="js-line" d="M36.3,309.96L94.14,237.6L151.98,121.43L209.82,151.38L267.66,78.43L325.5,117.44L383.34,120.89L441.18,146.81L499.02,144.25L556.86,137.93L614.7,145.43" style="vector-effect: none; fill: none; stroke: rgb(135, 206, 235); stroke-opacity: 1; stroke-width: 2px; opacity: 1;"/></g><g class="points"><path class="point" transform="translate(36.3,309.96)" d="M3,3H-3V-3H3Z" style="opacity: 1; stroke-width: 0px; fill: rgb(135, 206, 235); fill-opacity: 1;"/><path class="point" transform="translate(94.14,237.6)" d="M3,3H-3V-3H3Z" style="opacity: 1; stroke-width: 0px; fill: rgb(135, 206, 235); fill-opacity: 1;"/><path class="point" transform="translate(151.98,121.43)" d="M3,3H-3V-3H3Z" style="opacity: 1; stroke-width: 0px; fill: rgb(135, 206, 235); fill-opacity: 1;"/><path class="point" transform="translate(209.82,151.38)" d="M3,3H-3V-3H3Z" style="opacity: 1; stroke-width: 0px; fill: rgb(135, 206, 235); fill-opacity: 1;"/><path class="point" transform="translate(267.66,78.43)" d="M3,3H-3V-3H3Z" style="opacity: 1; stroke-width: 0px; fill: rgb(135, 206, 235); fill-opacity: 1;"/><path class="point" transform="translate(325.5,117.44)" d="M3,3H-3V-3H3Z" style="opacity: 1; stroke-width: 0px; fill: rgb(135, 206, 235); fill-opacity: 1;"/><path class="point" transform="translate(383.34,120.89)" d="M3,3H-3V-3H3Z" style="opacity: 1; stroke-width: 0px; fill: rgb(135, 206, 235); fill-opacity: 1;"/><path class="point" transform="translate(441.18,146.81)" d="M3,3H-3V-3H3Z" style="opacity: 1; stroke-width: 0px; fill: rgb(135, 206, 235); fill-opacity: 1;"/><path class="point" transform="translate(499.02,144.25)" d="M3,3H-3V-3H3Z" style="opacity: 1; stroke-width: 0px; fill: rgb(135, 206, 235); fill-opacity: 1;"/><path class="point" transform="translate(556.86,137.93)" d="M3,3H-3V-3H3Z" style="opacity: 1; stroke-width: 0px; fill: rgb(135, 206, 235); fill-opacity: 1;"/><path class="point" transform="translate(614.7,145.43)" d="M3,3H-3V-3H3Z" style="opacity: 1; stroke-width: 0px; fill: rgb(135, 206, 235); fill-opacity: 1;"/></g><g class="text"/></g><g class="trace scatter trace0fe32a" style="stroke-miterlimit: 2; opacity: 1;"><g class="fills"/><g class="errorbars"/><g class="lines"><path class="js-line" d="M36.3,309.96L94.14,198.18L151.98,189.88L209.82,178.48L267.66,95.1L325.5,130.07L383.34,151.38L441.18,132.2L499.02,132.84L556.86,119.21L614.7,141.46" style="vector-effect: none; fill: none; stroke: rgb(255, 99, 71); stroke-opacity: 1; stroke-dasharray: 9px, 9px; stroke-width: 2px; opacity: 1;"/></g><g class="points"><path class="point" transform="translate(36.3,309.96)" d="M3.6,1.2H1.2V3.6H-1.2V1.2H-3.6V-1.2H-1.2V-3.6H1.2V-1.2H3.6Z" style="opacity: 1; stroke-width: 0px; fill: rgb(255, 99, 71); fill-opacity: 1;"/><path class="point" transform="translate(94.14,198.18)" d="M3.6,1.2H1.2V3.6H-1.2V1.2H-3.6V-1.2H-1.2V-3.6H1.2V-1.2H3.6Z" style="opacity: 1; stroke-width: 0px; fill: rgb(255, 99, 71); fill-opacity: 1;"/><path class="point" transform="translate(151.98,189.88)" d="M3.6,1.2H1.2V3.6H-1.2V1.2H-3.6V-1.2H-1.2V-3.6H1.2V-1.2H3.6Z" style="opacity: 1; stroke-width: 0px; fill: rgb(255, 99, 71); fill-opacity: 1;"/><path class="point" transform="translate(209.82,178.48)" d="M3.6,1.2H1.2V3.6H-1.2V1.2H-3.6V-1.2H-1.2V-3.6H1.2V-1.2H3.6Z" style="opacity: 1; stroke-width: 0px; fill: rgb(255, 99, 71); fill-opacity: 1;"/><path class="point" transform="translate(267.66,95.1)" d="M3.6,1.2H1.2V3.6H-1.2V1.2H-3.6V-1.2H-1.2V-3.6H1.2V-1.2H3.6Z" style="opacity: 1; stroke-width: 0px; fill: rgb(255, 99, 71); fill-opacity: 1;"/><path class="point" transform="translate(325.5,130.07)" d="M3.6,1.2H1.2V3.6H-1.2V1.2H-3.6V-1.2H-1.2V-3.6H1.2V-1.2H3.6Z" style="opacity: 1; stroke-width: 0px; fill: rgb(255, 99, 71); fill-opacity: 1;"/><path class="point" transform="translate(383.34,151.38)" d="M3.6,1.2H1.2V3.6H-1.2V1.2H-3.6V-1.2H-1.2V-3.6H1.2V-1.2H3.6Z" style="opacity: 1; stroke-width: 0px; fill: rgb(255, 99, 71); fill-opacity: 1;"/><path class="point" transform="translate(441.18,132.2)" d="M3.6,1.2H1.2V3.6H-1.2V1.2H-3.6V-1.2H-1.2V-3.6H1.2V-1.2H3.6Z" style="opacity: 1; stroke-width: 0px; fill: rgb(255, 99, 71); fill-opacity: 1;"/><path class="point" transform="translate(499.02,132.84)" d="M3.6,1.2H1.2V3.6H-1.2V1.2H-3.6V-1.2H-1.2V-3.6H1.2V-1.2H3.6Z" style="opacity: 1; stroke-width: 0px; fill: rgb(255, 99, 71); fill-opacity: 1;"/><path class="point" transform="translate(556.86,119.21)" d="M3.6,1.2H1.2V3.6H-1.2V1.2H-3.6V-1.2H-1.2V-3.6H1.2V-1.2H3.6Z" style="opacity: 1; stroke-width: 0px; fill: rgb(255, 99, 71); fill-opacity: 1;"/><path class="point" transform="translate(614.7,141.46)" d="M3.6,1.2H1.2V3.6H-1.2V1.2H-3.6V-1.2H-1.2V-3.6H1.2V-1.2H3.6Z" style="opacity: 1; stroke-width: 0px; fill: rgb(255, 99, 71); fill-opacity: 1;"/></g><g class="text"/></g><g class="trace scatter tracedaafa8" style="stroke-miterlimit: 2; opacity: 1;"><g class="fills"/><g class="errorbars"/><g class="lines"><path class="js-line" d="M36.3,309.96L94.14,237.6L151.98,121.43L209.82,151.38L267.66,111.78L325.5,104.81L383.34,120.89L441.18,139.5L499.02,155.66L556.86,161.32L614.7,137.5" style="vector-effect: none; fill: none; stroke: rgb(255, 99, 71); stroke-opacity: 1; stroke-width: 2px; opacity: 1;"/></g><g class="points"><path class="point" transform="translate(36.3,309.96)" d="M3.9,0L0,3.9L-3.9,0L0,-3.9Z" style="opacity: 1; stroke-width: 0px; fill: rgb(255, 99, 71); fill-opacity: 1;"/><path class="point" transform="translate(94.14,237.6)" d="M3.9,0L0,3.9L-3.9,0L0,-3.9Z" style="opacity: 1; stroke-width: 0px; fill: rgb(255, 99, 71); fill-opacity: 1;"/><path class="point" transform="translate(151.98,121.43)" d="M3.9,0L0,3.9L-3.9,0L0,-3.9Z" style="opacity: 1; stroke-width: 0px; fill: rgb(255, 99, 71); fill-opacity: 1;"/><path class="point" transform="translate(209.82,151.38)" d="M3.9,0L0,3.9L-3.9,0L0,-3.9Z" style="opacity: 1; stroke-width: 0px; fill: rgb(255, 99, 71); fill-opacity: 1;"/><path class="point" transform="translate(267.66,111.78)" d="M3.9,0L0,3.9L-3.9,0L0,-3.9Z" style="opacity: 1; stroke-width: 0px; fill: rgb(255, 99, 71); fill-opacity: 1;"/><path class="point" transform="translate(325.5,104.81)" d="M3.9,0L0,3.9L-3.9,0L0,-3.9Z" style="opacity: 1; stroke-width: 0px; fill: rgb(255, 99, 71); fill-opacity: 1;"/><path class="point" transform="translate(383.34,120.89)" d="M3.9,0L0,3.9L-3.9,0L0,-3.9Z" style="opacity: 1; stroke-width: 0px; fill: rgb(255, 99, 71); fill-opacity: 1;"/><path class="point" transform="translate(441.18,139.5)" d="M3.9,0L0,3.9L-3.9,0L0,-3.9Z" style="opacity: 1; stroke-width: 0px; fill: rgb(255, 99, 71); fill-opacity: 1;"/><path class="point" transform="translate(499.02,155.66)" d="M3.9,0L0,3.9L-3.9,0L0,-3.9Z" style="opacity: 1; stroke-width: 0px; fill: rgb(255, 99, 71); fill-opacity: 1;"/><path class="point" transform="translate(556.86,161.32)" d="M3.9,0L0,3.9L-3.9,0L0,-3.9Z" style="opacity: 1; stroke-width: 0px; fill: rgb(255, 99, 71); fill-opacity: 1;"/><path class="point" transform="translate(614.7,137.5)" d="M3.9,0L0,3.9L-3.9,0L0,-3.9Z" style="opacity: 1; stroke-width: 0px; fill: rgb(255, 99, 71); fill-opacity: 1;"/></g><g class="text"/></g><g class="trace scatter trace856f7d" style="stroke-miterlimit: 2; opacity: 1;"><g class="fills"/><g class="errorbars"/><g class="lines"><path class="js-line" d="M36.3,395.25L94.14,355.84L151.98,292.57L209.82,205.57L267.66,24.75L614.7,24.75" style="vector-effect: none; fill: none; stroke: rgb(165, 42, 42); stroke-opacity: 1; stroke-dasharray: 9px, 9px; stroke-width: 2px; opacity: 1;"/></g><g class="points"><path class="point" transform="translate(36.3,395.25)" d="M0,1.7l1.7,1.7l1.7,-1.7l-1.7,-1.7l1.7,-1.7l-1.7,-1.7l-1.7,1.7l-1.7,-1.7l-1.7,1.7l1.7,1.7l-1.7,1.7l1.7,1.7Z" style="opacity: 1; stroke-width: 0px; fill: rgb(165, 42, 42); fill-opacity: 1;"/><path class="point" transform="translate(94.14,355.84)" d="M0,1.7l1.7,1.7l1.7,-1.7l-1.7,-1.7l1.7,-1.7l-1.7,-1.7l-1.7,1.7l-1.7,-1.7l-1.7,1.7l1.7,1.7l-1.7,1.7l1.7,1.7Z" style="opacity: 1; stroke-width: 0px; fill: rgb(165, 42, 42); fill-opacity: 1;"/><path class="point" transform="translate(151.98,292.57)" d="M0,1.7l1.7,1.7l1.7,-1.7l-1.7,-1.7l1.7,-1.7l-1.7,-1.7l-1.7,1.7l-1.7,-1.7l-1.7,1.7l1.7,1.7l-1.7,1.7l1.7,1.7Z" style="opacity: 1; stroke-width: 0px; fill: rgb(165, 42, 42); fill-opacity: 1;"/><path class="point" transform="translate(209.82,205.57)" d="M0,1.7l1.7,1.7l1.7,-1.7l-1.7,-1.7l1.7,-1.7l-1.7,-1.7l-1.7,1.7l-1.7,-1.7l-1.7,1.7l1.7,1.7l-1.7,1.7l1.7,1.7Z" style="opacity: 1; stroke-width: 0px; fill: rgb(165, 42, 42); fill-opacity: 1;"/><path class="point" transform="translate(267.66,24.75)" d="M0,1.7l1.7,1.7l1.7,-1.7l-1.7,-1.7l1.7,-1.7l-1.7,-1.7l-1.7,1.7l-1.7,-1.7l-1.7,1.7l1.7,1.7l-1.7,1.7l1.7,1.7Z" style="opacity: 1; stroke-width: 0px; fill: rgb(165, 42, 42); fill-opacity: 1;"/><path class="point" transform="translate(325.5,24.75)" d="M0,1.7l1.7,1.7l1.7,-1.7l-1.7,-1.7l1.7,-1.7l-1.7,-1.7l-1.7,1.7l-1.7,-1.7l-1.7,1.7l1.7,1.7l-1.7,1.7l1.7,1.7Z" style="opacity: 1; stroke-width: 0px; fill: rgb(165, 42, 42); fill-opacity: 1;"/><path class="point" transform="translate(383.34,24.75)" d="M0,1.7l1.7,1.7l1.7,-1.7l-1.7,-1.7l1.7,-1.7l-1.7,-1.7l-1.7,1.7l-1.7,-1.7l-1.7,1.7l1.7,1.7l-1.7,1.7l1.7,1.7Z" style="opacity: 1; stroke-width: 0px; fill: rgb(165, 42, 42); fill-opacity: 1;"/><path class="point" transform="translate(441.18,24.75)" d="M0,1.7l1.7,1.7l1.7,-1.7l-1.7,-1.7l1.7,-1.7l-1.7,-1.7l-1.7,1.7l-1.7,-1.7l-1.7,1.7l1.7,1.7l-1.7,1.7l1.7,1.7Z" style="opacity: 1; stroke-width: 0px; fill: rgb(165, 42, 42); fill-opacity: 1;"/><path class="point" transform="translate(499.02,24.75)" d="M0,1.7l1.7,1.7l1.7,-1.7l-1.7,-1.7l1.7,-1.7l-1.7,-1.7l-1.7,1.7l-1.7,-1.7l-1.7,1.7l1.7,1.7l-1.7,1.7l1.7,1.7Z" style="opacity: 1; stroke-width: 0px; fill: rgb(165, 42, 42); fill-opacity: 1;"/><path class="point" transform="translate(556.86,24.75)" d="M0,1.7l1.7,1.7l1.7,-1.7l-1.7,-1.7l1.7,-1.7l-1.7,-1.7l-1.7,1.7l-1.7,-1.7l-1.7,1.7l1.7,1.7l-1.7,1.7l1.7,1.7Z" style="opacity: 1; stroke-width: 0px; fill: rgb(165, 42, 42); fill-opacity: 1;"/><path class="point" transform="translate(614.7,24.75)" d="M0,1.7l1.7,1.7l1.7,-1.7l-1.7,-1.7l1.7,-1.7l-1.7,-1.7l-1.7,1.7l-1.7,-1.7l-1.7,1.7l1.7,1.7l-1.7,1.7l1.7,1.7Z" style="opacity: 1; stroke-width: 0px; fill: rgb(165, 42, 42); fill-opacity: 1;"/></g><g class="text"/></g><g class="trace scatter trace0c3c39" style="stroke-miterlimit: 2; opacity: 1;"><g class="fills"/><g class="errorbars"/><g class="lines"><path class="js-line" d="M36.3,352.61L94.14,316.42L151.98,258.34L209.82,232.67L267.66,172.15L614.7,172.15" style="vector-effect: none; fill: none; stroke: rgb(165, 42, 42); stroke-opacity: 1; stroke-width: 2px; opacity: 1;"/></g><g class="points"><path class="point" transform="translate(36.3,352.61)" d="M-3.46,1.5H3.46L0,-3Z" style="opacity: 1; stroke-width: 0px; fill: rgb(165, 42, 42); fill-opacity: 1;"/><path class="point" transform="translate(94.14,316.42)" d="M-3.46,1.5H3.46L0,-3Z" style="opacity: 1; stroke-width: 0px; fill: rgb(165, 42, 42); fill-opacity: 1;"/><path class="point" transform="translate(151.98,258.34)" d="M-3.46,1.5H3.46L0,-3Z" style="opacity: 1; stroke-width: 0px; fill: rgb(165, 42, 42); fill-opacity: 1;"/><path class="point" transform="translate(209.82,232.67)" d="M-3.46,1.5H3.46L0,-3Z" style="opacity: 1; stroke-width: 0px; fill: rgb(165, 42, 42); fill-opacity: 1;"/><path class="point" transform="translate(267.66,172.15)" d="M-3.46,1.5H3.46L0,-3Z" style="opacity: 1; stroke-width: 0px; fill: rgb(165, 42, 42); fill-opacity: 1;"/><path class="point" transform="translate(325.5,172.15)" d="M-3.46,1.5H3.46L0,-3Z" style="opacity: 1; stroke-width: 0px; fill: rgb(165, 42, 42); fill-opacity: 1;"/><path class="point" transform="translate(383.34,172.15)" d="M-3.46,1.5H3.46L0,-3Z" style="opacity: 1; stroke-width: 0px; fill: rgb(165, 42, 42); fill-opacity: 1;"/><path class="point" transform="translate(441.18,172.15)" d="M-3.46,1.5H3.46L0,-3Z" style="opacity: 1; stroke-width: 0px; fill: rgb(165, 42, 42); fill-opacity: 1;"/><path class="point" transform="translate(499.02,172.15)" d="M-3.46,1.5H3.46L0,-3Z" style="opacity: 1; stroke-width: 0px; fill: rgb(165, 42, 42); fill-opacity: 1;"/><path class="point" transform="translate(556.86,172.15)" d="M-3.46,1.5H3.46L0,-3Z" style="opacity: 1; stroke-width: 0px; fill: rgb(165, 42, 42); fill-opacity: 1;"/><path class="point" transform="translate(614.7,172.15)" d="M-3.46,1.5H3.46L0,-3Z" style="opacity: 1; stroke-width: 0px; fill: rgb(165, 42, 42); fill-opacity: 1;"/></g><g class="text"/></g></g></g><g class="overplot"/><path class="xlines-above crisp" d="M0,0" style="fill: none;"/><path class="ylines-above crisp" d="M0,0" style="fill: none;"/><g class="overlines-above"/><g class="xaxislayer-above"><g class="xtick"><text text-anchor="middle" x="0" y="543" transform="translate(125.3,0)" style="font-family: 'Open Sans', verdana, arial, sans-serif; font-size: 22px; fill: rgb(42, 63, 95); fill-opacity: 1; white-space: pre; opacity: 1;">25</text></g><g class="xtick"><text text-anchor="middle" x="0" y="543" transform="translate(183.14,0)" style="font-family: 'Open Sans', verdana, arial, sans-serif; font-size: 22px; fill: rgb(42, 63, 95); fill-opacity: 1; white-space: pre; opacity: 1;">50</text></g><g class="xtick"><text text-anchor="middle" x="0" y="543" transform="translate(240.98,0)" style="font-family: 'Open Sans', verdana, arial, sans-serif; font-size: 22px; fill: rgb(42, 63, 95); fill-opacity: 1; white-space: pre; opacity: 1;">100</text></g><g class="xtick"><text text-anchor="middle" x="0" y="543" transform="translate(298.82,0)" style="font-family: 'Open Sans', verdana, arial, sans-serif; font-size: 22px; fill: rgb(42, 63, 95); fill-opacity: 1; white-space: pre; opacity: 1;">200</text></g><g class="xtick"><text text-anchor="middle" x="0" y="543" transform="translate(356.66,0)" style="font-family: 'Open Sans', verdana, arial, sans-serif; font-size: 22px; fill: rgb(42, 63, 95); fill-opacity: 1; white-space: pre; opacity: 1;">500</text></g><g class="xtick"><text text-anchor="middle" x="0" y="543" transform="translate(414.5,0)" style="font-family: 'Open Sans', verdana, arial, sans-serif; font-size: 22px; fill: rgb(42, 63, 95); fill-opacity: 1; white-space: pre; opacity: 1;">750</text></g><g class="xtick"><text text-anchor="middle" x="0" y="543" transform="translate(472.34,0)" style="font-family: 'Open Sans', verdana, arial, sans-serif; font-size: 22px; fill: rgb(42, 63, 95); fill-opacity: 1; white-space: pre; opacity: 1;">1000</text></g><g class="xtick"><text text-anchor="middle" x="0" y="543" transform="translate(530.1800000000001,0)" style="font-family: 'Open Sans', verdana, arial, sans-serif; font-size: 22px; fill: rgb(42, 63, 95); fill-opacity: 1; white-space: pre; opacity: 1;">1500</text></g><g class="xtick"><text text-anchor="middle" x="0" y="543" transform="translate(588.02,0)" style="font-family: 'Open Sans', verdana, arial, sans-serif; font-size: 22px; fill: rgb(42, 63, 95); fill-opacity: 1; white-space: pre; opacity: 1;">2000</text></g><g class="xtick"><text text-anchor="middle" x="0" y="543" transform="translate(645.86,0)" style="font-family: 'Open Sans', verdana, arial, sans-serif; font-size: 22px; fill: rgb(42, 63, 95); fill-opacity: 1; white-space: pre; opacity: 1;">2500</text></g><g class="xtick"><text text-anchor="middle" x="0" y="543" transform="translate(703.7,0)" style="font-family: 'Open Sans', verdana, arial, sans-serif; font-size: 22px; fill: rgb(42, 63, 95); fill-opacity: 1; white-space: pre; opacity: 1;">3000</text></g></g><g class="yaxislayer-above"><g class="ytick"><text text-anchor="end" x="88" y="7.699999999999999" transform="translate(0,495.25)" style="font-family: 'Open Sans', verdana, arial, sans-serif; font-size: 22px; fill: rgb(42, 63, 95); fill-opacity: 1; white-space: pre; opacity: 1;">0</text></g><g class="ytick"><text text-anchor="end" x="88" y="7.699999999999999" style="font-family: 'Open Sans', verdana, arial, sans-serif; font-size: 22px; fill: rgb(42, 63, 95); fill-opacity: 1; white-space: pre; opacity: 1;" transform="translate(0,430.22)">0.01</text></g><g class="ytick"><text text-anchor="end" x="88" y="7.699999999999999" style="font-family: 'Open Sans', verdana, arial, sans-serif; font-size: 22px; fill: rgb(42, 63, 95); fill-opacity: 1; white-space: pre; opacity: 1;" transform="translate(0,365.19)">0.02</text></g><g class="ytick"><text text-anchor="end" x="88" y="7.699999999999999" style="font-family: 'Open Sans', verdana, arial, sans-serif; font-size: 22px; fill: rgb(42, 63, 95); fill-opacity: 1; white-space: pre; opacity: 1;" transform="translate(0,300.15)">0.03</text></g><g class="ytick"><text text-anchor="end" x="88" y="7.699999999999999" style="font-family: 'Open Sans', verdana, arial, sans-serif; font-size: 22px; fill: rgb(42, 63, 95); fill-opacity: 1; white-space: pre; opacity: 1;" transform="translate(0,235.12)">0.04</text></g><g class="ytick"><text text-anchor="end" x="88" y="7.699999999999999" style="font-family: 'Open Sans', verdana, arial, sans-serif; font-size: 22px; fill: rgb(42, 63, 95); fill-opacity: 1; white-space: pre; opacity: 1;" transform="translate(0,170.09)">0.05</text></g><g class="ytick"><text text-anchor="end" x="88" y="7.699999999999999" style="font-family: 'Open Sans', verdana, arial, sans-serif; font-size: 22px; fill: rgb(42, 63, 95); fill-opacity: 1; white-space: pre; opacity: 1;" transform="translate(0,105.06)">0.06</text></g></g><g class="overaxes-above"/></g></g><g class="polarlayer"/><g class="smithlayer"/><g class="ternarylayer"/><g class="geolayer"/><g class="funnelarealayer"/><g class="pielayer"/><g class="iciclelayer"/><g class="treemaplayer"/><g class="sunburstlayer"/><g class="glimages"/><defs id="topdefs-5fde55"><g class="clips"/><clipPath id="legend5fde55"><rect width="285" height="200" x="0" y="0"/></clipPath></defs><g class="layer-above"><g class="imagelayer"/><g class="shapelayer"/></g><g class="infolayer"><g class="legend" pointer-events="all" transform="translate(753.02,100)"><rect class="bg" shape-rendering="crispEdges" width="285" height="200" x="0" y="0" style="stroke: rgb(68, 68, 68); stroke-opacity: 1; fill: rgb(255, 255, 255); fill-opacity: 1; stroke-width: 0px;"/><g class="scrollbox" transform="" clip-path="url(#legend5fde55)"><g class="groups"><g class="traces" transform="translate(0,20.8)" style="opacity: 1;"><text class="legendtext" text-anchor="start" x="40" y="8.58" style="font-family: 'Open Sans', verdana, arial, sans-serif; font-size: 22px; fill: rgb(42, 63, 95); fill-opacity: 1; white-space: pre;">GNNExplainer</text><g class="layers" style="opacity: 1;"><g class="legendfill"/><g class="legendlines"><path class="js-line" d="M5,0h30" style="fill: none; stroke: rgb(135, 206, 235); stroke-opacity: 1; stroke-dasharray: 9px, 9px; stroke-width: 2px;"/></g><g class="legendsymbols"><g class="legendpoints"><path class="scatterpts" transform="translate(20,0)" d="M3,0A3,3 0 1,1 0,-3A3,3 0 0,1 3,0Z" style="opacity: 1; stroke-width: 0px; fill: rgb(135, 206, 235); fill-opacity: 1;"/></g></g></g><rect class="legendtoggle" x="0" y="-15.8" width="279.625" height="31.6" style="fill: rgb(0, 0, 0); fill-opacity: 0;"/></g><g class="traces" transform="translate(0,52.400000000000006)" style="opacity: 1;"><text class="legendtext" text-anchor="start" x="40" y="8.58" style="font-family: 'Open Sans', verdana, arial, sans-serif; font-size: 22px; fill: rgb(42, 63, 95); fill-opacity: 1; white-space: pre;">XGDAG - GNNExplainer</text><g class="layers" style="opacity: 1;"><g class="legendfill"/><g class="legendlines"><path class="js-line" d="M5,0h30" style="fill: none; stroke: rgb(135, 206, 235); stroke-opacity: 1; stroke-width: 2px;"/></g><g class="legendsymbols"><g class="legendpoints"><path class="scatterpts" transform="translate(20,0)" d="M3,3H-3V-3H3Z" style="opacity: 1; stroke-width: 0px; fill: rgb(135, 206, 235); fill-opacity: 1;"/></g></g></g><rect class="legendtoggle" x="0" y="-15.8" width="279.625" height="31.6" style="fill: rgb(0, 0, 0); fill-opacity: 0;"/></g><g class="traces" transform="translate(0,84)" style="opacity: 1;"><text class="legendtext" text-anchor="start" x="40" y="8.58" style="font-family: 'Open Sans', verdana, arial, sans-serif; font-size: 22px; fill: rgb(42, 63, 95); fill-opacity: 1; white-space: pre;">GraphSVX</text><g class="layers" style="opacity: 1;"><g class="legendfill"/><g class="legendlines"><path class="js-line" d="M5,0h30" style="fill: none; stroke: rgb(255, 99, 71); stroke-opacity: 1; stroke-dasharray: 9px, 9px; stroke-width: 2px;"/></g><g class="legendsymbols"><g class="legendpoints"><path class="scatterpts" transform="translate(20,0)" d="M3.6,1.2H1.2V3.6H-1.2V1.2H-3.6V-1.2H-1.2V-3.6H1.2V-1.2H3.6Z" style="opacity: 1; stroke-width: 0px; fill: rgb(255, 99, 71); fill-opacity: 1;"/></g></g></g><rect class="legendtoggle" x="0" y="-15.8" width="279.625" height="31.6" style="fill: rgb(0, 0, 0); fill-opacity: 0;"/></g><g class="traces" transform="translate(0,115.60000000000001)" style="opacity: 1;"><text class="legendtext" text-anchor="start" x="40" y="8.58" style="font-family: 'Open Sans', verdana, arial, sans-serif; font-size: 22px; fill: rgb(42, 63, 95); fill-opacity: 1; white-space: pre;">XGDAG - GraphSVX</text><g class="layers" style="opacity: 1;"><g class="legendfill"/><g class="legendlines"><path class="js-line" d="M5,0h30" style="fill: none; stroke: rgb(255, 99, 71); stroke-opacity: 1; stroke-width: 2px;"/></g><g class="legendsymbols"><g class="legendpoints"><path class="scatterpts" transform="translate(20,0)" d="M3.9,0L0,3.9L-3.9,0L0,-3.9Z" style="opacity: 1; stroke-width: 0px; fill: rgb(255, 99, 71); fill-opacity: 1;"/></g></g></g><rect class="legendtoggle" x="0" y="-15.8" width="279.625" height="31.6" style="fill: rgb(0, 0, 0); fill-opacity: 0;"/></g><g class="traces" transform="translate(0,147.20000000000002)" style="opacity: 1;"><text class="legendtext" text-anchor="start" x="40" y="8.58" style="font-family: 'Open Sans', verdana, arial, sans-serif; font-size: 22px; fill: rgb(42, 63, 95); fill-opacity: 1; white-space: pre;">SubgraphX</text><g class="layers" style="opacity: 1;"><g class="legendfill"/><g class="legendlines"><path class="js-line" d="M5,0h30" style="fill: none; stroke: rgb(165, 42, 42); stroke-opacity: 1; stroke-dasharray: 9px, 9px; stroke-width: 2px;"/></g><g class="legendsymbols"><g class="legendpoints"><path class="scatterpts" transform="translate(20,0)" d="M0,1.7l1.7,1.7l1.7,-1.7l-1.7,-1.7l1.7,-1.7l-1.7,-1.7l-1.7,1.7l-1.7,-1.7l-1.7,1.7l1.7,1.7l-1.7,1.7l1.7,1.7Z" style="opacity: 1; stroke-width: 0px; fill: rgb(165, 42, 42); fill-opacity: 1;"/></g></g></g><rect class="legendtoggle" x="0" y="-15.8" width="279.625" height="31.6" style="fill: rgb(0, 0, 0); fill-opacity: 0;"/></g><g class="traces" transform="translate(0,178.8)" style="opacity: 1;"><text class="legendtext" text-anchor="start" x="40" y="8.58" style="font-family: 'Open Sans', verdana, arial, sans-serif; font-size: 22px; fill: rgb(42, 63, 95); fill-opacity: 1; white-space: pre;">XGDAG - SubgraphX</text><g class="layers" style="opacity: 1;"><g class="legendfill"/><g class="legendlines"><path class="js-line" d="M5,0h30" style="fill: none; stroke: rgb(165, 42, 42); stroke-opacity: 1; stroke-width: 2px;"/></g><g class="legendsymbols"><g class="legendpoints"><path class="scatterpts" transform="translate(20,0)" d="M-3.46,1.5H3.46L0,-3Z" style="opacity: 1; stroke-width: 0px; fill: rgb(165, 42, 42); fill-opacity: 1;"/></g></g></g><rect class="legendtoggle" x="0" y="-15.8" width="279.625" height="31.6" style="fill: rgb(0, 0, 0); fill-opacity: 0;"/></g></g></g><rect class="scrollbar" rx="20" ry="3" width="0" height="0" x="0" y="0" style="fill: rgb(128, 139, 164); fill-opacity: 1;"/></g><g class="g-gtitle"/><g class="g-xtitle"><text class="xtitle" x="414.5" y="580.7" text-anchor="middle" style="font-family: 'Open Sans', verdana, arial, sans-serif; font-size: 26px; fill: rgb(42, 63, 95); opacity: 1; font-weight: normal; white-space: pre;">Top k genes</text></g><g class="g-ytitle" transform="translate(11.5283203125,0)"><text class="ytitle" transform="rotate(-90,12.471874999999997,310)" x="12.471874999999997" y="310" text-anchor="middle" style="font-family: 'Open Sans', verdana, arial, sans-serif; font-size: 26px; fill: rgb(42, 63, 95); opacity: 1; font-weight: normal; white-space: pre;">F1 score</text></g></g></svg>