<?xml version="1.0" encoding="UTF-8" standalone="no"?>
<!DOCTYPE svg PUBLIC "-//W3C//DTD SVG 1.1//EN" "http://www.w3.org/Graphics/SVG/1.1/DTD/svg11.dtd">
<!-- Created with Vectornator (http://vectornator.io/) -->
<svg height="100%" stroke-miterlimit="10" style="fill-rule:nonzero;clip-rule:evenodd;stroke-linecap:round;stroke-linejoin:round;" version="1.1" viewBox="0 0 1573.06 320" width="100%" xml:space="preserve" xmlns="http://www.w3.org/2000/svg" xmlns:vectornator="http://vectornator.io" xmlns:xlink="http://www.w3.org/1999/xlink">
<defs/>
<g id="Livello-1" vectornator:layerName="Livello 1">
<path d="M358.966 230.107L216.725 60.2147" fill="none" opacity="1" stroke="#606366" stroke-linecap="butt" stroke-linejoin="round" stroke-width="15" vectornator:layerName="Linea 10"/>
<path d="M643.446 230.107L785.686 60.2147" fill="none" opacity="1" stroke="#606366" stroke-linecap="butt" stroke-linejoin="round" stroke-width="15" vectornator:layerName="Linea 5"/>
<path d="M927.926 229.161L1070.17 59.2683" fill="none" opacity="1" stroke="#606366" stroke-linecap="butt" stroke-linejoin="round" stroke-width="15" vectornator:layerName="Linea 7"/>
<path d="M1212.41 230.107L1354.65 60.2147" fill="none" opacity="1" stroke="#606366" stroke-linecap="butt" stroke-linejoin="round" stroke-width="15" vectornator:layerName="Linea 9"/>
<g fill="#000000" opacity="1" stroke="none" vectornator:layerName="Testo 1">
<path d="M180.242 287.161L209.042 212.561L182.442 144.761L204.042 144.761L219.442 186.961L235.042 144.761L256.642 144.761L229.442 212.561L258.842 287.161L237.242 287.161L219.442 239.161L201.842 287.161L180.242 287.161Z"/>
<path d="M466.842 178.361C466.842 172.628 467.842 167.561 469.842 163.161C471.842 158.761 474.509 155.094 477.842 152.161C481.042 149.361 484.676 147.228 488.742 145.761C492.809 144.294 496.909 143.561 501.042 143.561C505.176 143.561 509.276 144.294 513.342 145.761C517.409 147.228 521.109 149.361 524.442 152.161C527.642 155.094 530.242 158.761 532.242 163.161C534.242 167.561 535.242 172.628 535.242 178.361L535.242 185.561L514.842 185.561L514.842 178.361C514.842 173.428 513.476 169.794 510.742 167.461C508.009 165.128 504.776 163.961 501.042 163.961C497.309 163.961 494.076 165.128 491.342 167.461C488.609 169.794 487.242 173.428 487.242 178.361L487.242 253.561C487.242 258.494 488.609 262.128 491.342 264.461C494.076 266.794 497.309 267.961 501.042 267.961C504.776 267.961 508.009 266.794 510.742 264.461C513.476 262.128 514.842 258.494 514.842 253.561L514.842 226.761L498.642 226.761L498.642 208.761L535.242 208.761L535.242 253.561C535.242 259.561 534.242 264.694 532.242 268.961C530.242 273.228 527.642 276.761 524.442 279.561C521.109 282.494 517.409 284.694 513.342 286.161C509.276 287.628 505.176 288.361 501.042 288.361C496.909 288.361 492.809 287.628 488.742 286.161C484.676 284.694 481.042 282.494 477.842 279.561C474.509 276.761 471.842 273.228 469.842 268.961C467.842 264.694 466.842 259.561 466.842 253.561L466.842 178.361Z"/>
<path d="M753.242 287.161L753.242 144.761L783.442 144.761C795.176 144.761 804.076 147.961 810.142 154.361C816.209 160.761 819.242 169.828 819.242 181.561L819.242 248.161C819.242 261.494 816.009 271.328 809.542 277.661C803.076 283.994 793.776 287.161 781.642 287.161L753.242 287.161ZM773.642 163.961L773.642 267.961L783.042 267.961C788.776 267.961 792.842 266.528 795.242 263.661C797.642 260.794 798.842 256.294 798.842 250.161L798.842 181.561C798.842 175.961 797.709 171.628 795.442 168.561C793.176 165.494 789.042 163.961 783.042 163.961L773.642 163.961Z"/>
<path d="M1077.24 237.361L1067.24 185.761L1066.84 185.761L1056.84 237.361L1077.24 237.361ZM1026.84 287.161L1058.64 144.761L1075.64 144.761L1107.44 287.161L1087.04 287.161L1081.04 256.561L1053.24 256.561L1047.24 287.161L1026.84 287.161Z"/>
<path d="M1316.24 178.361C1316.24 172.628 1317.24 167.561 1319.24 163.161C1321.24 158.761 1323.91 155.094 1327.24 152.161C1330.44 149.361 1334.08 147.228 1338.14 145.761C1342.21 144.294 1346.31 143.561 1350.44 143.561C1354.58 143.561 1358.68 144.294 1362.74 145.761C1366.81 147.228 1370.51 149.361 1373.84 152.161C1377.04 155.094 1379.64 158.761 1381.64 163.161C1383.64 167.561 1384.64 172.628 1384.64 178.361L1384.64 185.561L1364.24 185.561L1364.24 178.361C1364.24 173.428 1362.88 169.794 1360.14 167.461C1357.41 165.128 1354.18 163.961 1350.44 163.961C1346.71 163.961 1343.48 165.128 1340.74 167.461C1338.01 169.794 1336.64 173.428 1336.64 178.361L1336.64 253.561C1336.64 258.494 1338.01 262.128 1340.74 264.461C1343.48 266.794 1346.71 267.961 1350.44 267.961C1354.18 267.961 1357.41 266.794 1360.14 264.461C1362.88 262.128 1364.24 258.494 1364.24 253.561L1364.24 226.761L1348.04 226.761L1348.04 208.761L1384.64 208.761L1384.64 253.561C1384.64 259.561 1383.64 264.694 1381.64 268.961C1379.64 273.228 1377.04 276.761 1373.84 279.561C1370.51 282.494 1366.81 284.694 1362.74 286.161C1358.68 287.628 1354.58 288.361 1350.44 288.361C1346.31 288.361 1342.21 287.628 1338.14 286.161C1334.08 284.694 1330.44 282.494 1327.24 279.561C1323.91 276.761 1321.24 273.228 1319.24 268.961C1317.24 264.694 1316.24 259.561 1316.24 253.561L1316.24 178.361Z"/>
</g>
<path d="M643.446 229.161L501.206 59.2683" fill="none" opacity="1" stroke="#606366" stroke-linecap="butt" stroke-linejoin="round" stroke-width="15" vectornator:layerName="Linea 2"/>
<path d="M673.446 229.161C673.446 212.592 660.014 199.161 643.446 199.161C626.877 199.161 613.446 212.592 613.446 229.161C613.446 245.73 626.877 259.161 643.446 259.161C660.014 259.161 673.446 245.73 673.446 229.161Z" fill="#7cc9bf" fill-rule="nonzero" opacity="1" stroke="#000000" stroke-linecap="butt" stroke-linejoin="round" stroke-width="15" vectornator:layerName="Ovale 8"/>
<path d="M358.966 229.161L501.206 59.2683" fill="none" opacity="1" stroke="#606366" stroke-linecap="butt" stroke-linejoin="round" stroke-width="15" vectornator:layerName="Linea 3"/>
<path d="M328.966 229.161C328.966 212.592 342.397 199.161 358.966 199.161C375.534 199.161 388.966 212.592 388.966 229.161C388.966 245.73 375.534 259.161 358.966 259.161C342.397 259.161 328.966 245.73 328.966 229.161Z" fill="#7cc9bf" fill-rule="nonzero" opacity="1" stroke="#000000" stroke-linecap="butt" stroke-linejoin="round" stroke-width="15" vectornator:layerName="Ovale 9"/>
<path d="M471.206 59.2683C471.206 42.6998 484.637 29.2683 501.206 29.2683C517.774 29.2683 531.206 42.6998 531.206 59.2683C531.206 75.8369 517.774 89.2683 501.206 89.2683C484.637 89.2683 471.206 75.8369 471.206 59.2683Z" fill="#c2d047" fill-rule="nonzero" opacity="1" stroke="#000000" stroke-linecap="butt" stroke-linejoin="round" stroke-width="15" vectornator:layerName="Ovale 7"/>
<path d="M74.4855 230.107L216.725 60.2147" fill="none" opacity="1" stroke="#606366" stroke-linecap="butt" stroke-linejoin="round" stroke-width="15" vectornator:layerName="Linea 11"/>
<path d="M44.4855 230.107C44.4855 213.539 57.917 200.107 74.4855 200.107C91.054 200.107 104.485 213.539 104.485 230.107C104.485 246.676 91.054 260.107 74.4855 260.107C57.917 260.107 44.4855 246.676 44.4855 230.107Z" fill="#7cc9bf" fill-rule="nonzero" opacity="1" stroke="#000000" stroke-linecap="butt" stroke-linejoin="round" stroke-width="15" vectornator:layerName="Ovale 16"/>
<path d="M186.725 60.2147C186.725 43.6461 200.157 30.2147 216.725 30.2147C233.294 30.2147 246.725 43.6461 246.725 60.2147C246.725 76.7832 233.294 90.2147 216.725 90.2147C200.157 90.2147 186.725 76.7832 186.725 60.2147Z" fill="#c2d047" fill-rule="nonzero" opacity="1" stroke="#000000" stroke-linecap="butt" stroke-linejoin="round" stroke-width="15" vectornator:layerName="Ovale 17"/>
<path d="M927.926 230.107L785.686 60.2147" fill="none" opacity="1" stroke="#606366" stroke-linecap="butt" stroke-linejoin="round" stroke-width="15" vectornator:layerName="Linea 4"/>
<path d="M957.926 230.107C957.926 213.539 944.494 200.107 927.926 200.107C911.357 200.107 897.926 213.539 897.926 230.107C897.926 246.676 911.357 260.107 927.926 260.107C944.494 260.107 957.926 246.676 957.926 230.107Z" fill="#7cc9bf" fill-rule="nonzero" opacity="1" stroke="#000000" stroke-linecap="butt" stroke-linejoin="round" stroke-width="15" vectornator:layerName="Ovale 10"/>
<path d="M755.686 60.2147C755.686 43.6461 769.117 30.2147 785.686 30.2147C802.254 30.2147 815.686 43.6461 815.686 60.2147C815.686 76.7832 802.254 90.2147 785.686 90.2147C769.117 90.2147 755.686 76.7832 755.686 60.2147Z" fill="#c2d047" fill-rule="nonzero" opacity="1" stroke="#000000" stroke-linecap="butt" stroke-linejoin="round" stroke-width="15" vectornator:layerName="Ovale 11"/>
<path d="M1212.41 229.161L1070.17 59.2683" fill="none" opacity="1" stroke="#606366" stroke-linecap="butt" stroke-linejoin="round" stroke-width="15" vectornator:layerName="Linea 6"/>
<path d="M1242.41 229.161C1242.41 212.592 1228.97 199.161 1212.41 199.161C1195.84 199.161 1182.41 212.592 1182.41 229.161C1182.41 245.73 1195.84 259.161 1212.41 259.161C1228.97 259.161 1242.41 245.73 1242.41 229.161Z" fill="#7cc9bf" fill-rule="nonzero" opacity="1" stroke="#000000" stroke-linecap="butt" stroke-linejoin="round" stroke-width="15" vectornator:layerName="Ovale 12"/>
<path d="M1040.17 59.2683C1040.17 42.6998 1053.6 29.2683 1070.17 29.2683C1086.73 29.2683 1100.17 42.6998 1100.17 59.2683C1100.17 75.8369 1086.73 89.2683 1070.17 89.2683C1053.6 89.2683 1040.17 75.8369 1040.17 59.2683Z" fill="#c2d047" fill-rule="nonzero" opacity="1" stroke="#000000" stroke-linecap="butt" stroke-linejoin="round" stroke-width="15" vectornator:layerName="Ovale 13"/>
<path d="M1496.89 230.107L1354.65 60.2147" fill="none" opacity="1" stroke="#606366" stroke-linecap="butt" stroke-linejoin="round" stroke-width="15" vectornator:layerName="Linea 8"/>
<path d="M1526.89 230.107C1526.89 213.539 1513.45 200.107 1496.89 200.107C1480.32 200.107 1466.89 213.539 1466.89 230.107C1466.89 246.676 1480.32 260.107 1496.89 260.107C1513.45 260.107 1526.89 246.676 1526.89 230.107Z" fill="#7cc9bf" fill-rule="nonzero" opacity="1" stroke="#000000" stroke-linecap="butt" stroke-linejoin="round" stroke-width="15" vectornator:layerName="Ovale 14"/>
<path d="M1324.65 60.2147C1324.65 43.6461 1338.08 30.2147 1354.65 30.2147C1371.21 30.2147 1384.65 43.6461 1384.65 60.2147C1384.65 76.7832 1371.21 90.2147 1354.65 90.2147C1338.08 90.2147 1324.65 76.7832 1324.65 60.2147Z" fill="#c2d047" fill-rule="nonzero" opacity="1" stroke="#000000" stroke-linecap="butt" stroke-linejoin="round" stroke-width="15" vectornator:layerName="Ovale 15"/>
</g>
</svg>
